<svg xmlns="http://www.w3.org/2000/svg"  viewBox="0 0 95 95" width="66px" height="66px"><path fill="#e8f0fd" d="M88.4,47.7c0,4.9-4.2,8.9-8.7,10.5c-4.5,1.6-9.5,1.5-14.3,2s-10.4,4.9-13.8,8.4c-2.2,2.3-3.3,5.4-4.9,8.2 c-1.6,2.8-3.8,5.5-6.9,6.2c-3.4,0.7-6.9-1.5-8.9-4.3c-2-2.9-2.9-6.4-3.9-9.8c-1-3.4-1.5-10.1-3.9-12.7c-2.1-2.2-4.9-3.6-7.6-5 c-2.7-1.4-5.5-2.9-7.2-5.4c-1.8-2.5-2.3-6.1-0.4-8.5c2.4-3,6.8-2.6,10.6-2.9c7.1-0.6,13.7-4.9,17.3-11c1.3-2.3,2.2-4.8,3.7-7.1 c1.5-2.2,3.6-4.2,6.3-4.5c3.7-0.4,6.8,2.6,9.4,5.3c4.9,5.2,9.6,11.8,16,15.2C77.4,35.7,88.4,38.7,88.4,47.7z"/><path fill="#e8f0fd" d="M7.3,21.5c-0.1,0.4-0.5,0.6-0.9,0.6l-1-0.2l-0.2,1c-0.1,0.4-0.5,0.6-0.9,0.6c-0.4-0.1-0.6-0.5-0.6-0.9l0.2-1 l-1-0.2c-0.4-0.1-0.6-0.5-0.6-0.9c0.1-0.4,0.5-0.6,0.9-0.6l1,0.2l0.2-1c0.1-0.4,0.5-0.6,0.9-0.6C5.7,18.6,6,19,5.9,19.4l-0.2,1 l1,0.2C7.1,20.8,7.3,21.1,7.3,21.5z"/><path fill="#e8f0fd" d="M60.5,79.9c-0.1,0.4-0.5,0.6-0.9,0.6l-1-0.2l-0.2,1c-0.1,0.4-0.5,0.6-0.9,0.6c-0.4-0.1-0.6-0.5-0.6-0.9 l0.2-1l-1-0.2c-0.4-0.1-0.6-0.5-0.6-0.9c0.1-0.4,0.5-0.6,0.9-0.6l1,0.2l0.2-1c0.1-0.4,0.5-0.6,0.9-0.6c0.4,0.1,0.6,0.5,0.6,0.9 l-0.2,1l1,0.2C60.3,79.1,60.5,79.5,60.5,79.9z"/><polygon fill="#fff" points="47.6,63.2 49.1,70.7 34.7,70.7 36.2,63.2"/><polygon fill="#fff" points="47.6,63.2 49.1,70.7 34.7,70.7 36.2,63.2"/><polygon fill="#fff" points="47.6,63.2 49.1,70.7 34.7,70.7 36.2,63.2"/><path fill="#e8f0fd" d="M49.1,70.7H34.7l0.3-1.8c0.9,0.4,1.9,0.6,2.9,0.6c3.7,0,6.8-2.7,7.3-6.2h2.3L49.1,70.7z"/><path fill="#fff" d="M55.4,75H28.8c0-1.2,0.5-2.3,1.3-3.1c0.8-0.8,1.9-1.3,3.1-1.3H51C53.4,70.7,55.4,72.6,55.4,75z"/><path fill="#e8f0fd" d="M55.4,75h-3.8c0-2.4-1.9-4.3-4.3-4.3H51C53.4,70.7,55.4,72.6,55.4,75z"/><path fill="#fff" d="M72.9,21.2v39.2c0,0.5-0.1,1-0.3,1.4c-0.1,0.2-0.3,0.5-0.5,0.7c-0.5,0.5-1.2,0.8-2,0.8H14.2 c-1.6,0-2.9-1.3-2.9-2.9V21.2c0-2.1,1.7-3.7,3.7-3.7h54.2C71.2,17.5,72.9,19.1,72.9,21.2z"/><path fill="#fff" d="M72.9,21.2v39.2c0,0.5-0.1,1-0.4,1.4c-0.1,0.2-0.3,0.5-0.5,0.6v0c0,0-0.1,0.1-0.1,0.1c0,0-0.1,0.1-0.1,0.1 c-0.5,0.4-1.1,0.7-1.8,0.7H14.2c-1.6,0-2.9-1.3-2.9-2.9V21.2c0-2.1,1.7-3.7,3.7-3.7h54.2C71.2,17.5,72.9,19.1,72.9,21.2z"/><path fill="#fff" d="M72.9,56v4.4c0,0.5-0.1,1-0.4,1.4c-0.1,0.2-0.3,0.5-0.5,0.6v0c0,0-0.1,0.1-0.1,0.1c0,0-0.1,0.1-0.1,0.1 c-0.5,0.4-1.1,0.7-1.8,0.7H14.2c-1.6,0-2.9-1.3-2.9-2.9V56H72.9z"/><path fill="#e8f0fd" d="M72.9,56v4.4c0,1.6-1.3,2.9-2.9,2.9h-6c1.6,0,2.9-1.3,2.9-2.9V56H72.9z"/><path fill="#cedbf0" d="M72.9,45.6v14.7c0,0.5-0.1,1-0.4,1.4c-0.1,0.2-0.3,0.5-0.5,0.6v0c0,0-0.1,0.1-0.1,0.1 c0,0-0.1,0.1-0.1,0.1c-0.5,0.4-1.1,0.7-1.8,0.7H54.3c0-0.6-0.1-1.2-0.1-1.8c0-1.9,0.4-3.8,1.1-5.5 c2.3-6.1,8.3-10.5,15.2-10.5h0.3C71.5,45.5,72.2,45.5,72.9,45.6z" opacity=".3"/><path fill="#e8f0fd" d="M20.9,47.1c0-0.6,0.5-1.1,1.1-1.1h5.2c0.6,0,1.1,0.5,1.1,1.1c0,0.6-0.5,1.1-1.1,1.1h-5.2 C21.3,48.2,20.9,47.7,20.9,47.1z"/><path fill="#e8f0fd" d="M20.9,32.9c0-0.6,0.5-1.1,1.1-1.1h5.2c0.6,0,1.1,0.5,1.1,1.1c0,0.6-0.5,1.1-1.1,1.1h-5.2 C21.3,33.9,20.9,33.5,20.9,32.9z"/><path fill="#e8f0fd" d="M63.3,50.6c0,0.6-0.5,1.1-1.1,1.1h-3c-0.6,0-1.1-0.5-1.1-1.1c0-0.6,0.5-1.1,1.1-1.1h3 C62.8,49.5,63.3,50,63.3,50.6z"/><path fill="#e8f0fd" d="M20.9,42.4c0-0.6,0.5-1.1,1.1-1.1h5.2c0.6,0,1.1,0.5,1.1,1.1c0,0.6-0.5,1.1-1.1,1.1h-5.2 C21.3,43.4,20.9,43,20.9,42.4z"/><path fill="#e8f0fd" d="M63.3,47.1c0,0.6-0.5,1.1-1.1,1.1H57c-0.6,0-1.1-0.5-1.1-1.1c0-0.6,0.5-1.1,1.1-1.1h5.2 C62.8,46.1,63.3,46.5,63.3,47.1z"/><path fill="#e8f0fd" d="M63.3,42.4c0,0.6-0.5,1.1-1.1,1.1H57c-0.6,0-1.1-0.5-1.1-1.1c0-0.6,0.5-1.1,1.1-1.1h5.2 C62.8,41.3,63.3,41.8,63.3,42.4z"/><path fill="#e8f0fd" d="M63.3,32.9c0,0.6-0.5,1.1-1.1,1.1H57c-0.6,0-1.1-0.5-1.1-1.1c0-0.6,0.5-1.1,1.1-1.1h5.2 C62.8,31.8,63.3,32.3,63.3,32.9z"/><path fill="#e8f0fd" d="M55.3,50.6c0,0.6-0.5,1.1-1.1,1.1H21.9c-0.6,0-1.1-0.5-1.1-1.1c0-0.6,0.5-1.1,1.1-1.1h32.3 C54.8,49.5,55.3,50,55.3,50.6z"/><path fill="#e8f0fd" d="M20.9,28.1c0-0.6,0.5-1.1,1.1-1.1h5.2c0.6,0,1.1,0.5,1.1,1.1c0,0.6-0.5,1.1-1.1,1.1h-5.2 C21.3,29.2,20.9,28.7,20.9,28.1z"/><path fill="#e8f0fd" d="M31.8,28.1c0-0.6,0.5-1.1,1.1-1.1h29.3c0.6,0,1.1,0.5,1.1,1.1c0,0.6-0.5,1.1-1.1,1.1H32.9 C32.3,29.2,31.8,28.7,31.8,28.1z"/><g><path fill="#fff" d="M83.7,62c-0.1,7.3-6.2,13.2-13.5,13c-7.3-0.1-13.2-6.2-13-13.5s6.2-13.2,13.5-13 C78,48.6,83.9,54.6,83.7,62z"/><path fill="#e8f0fd" d="M83.7,62c-0.1,7.3-6.2,13.2-13.5,13c-0.6,0-1.3-0.1-1.9-0.2c6.4-0.8,11.4-6.3,11.6-12.9 s-4.7-12.3-11.1-13.3c0.6-0.1,1.3-0.1,1.9-0.1C78,48.6,83.9,54.6,83.7,62z"/><path fill="#1369f0" d="M77.3,23.7l1-0.2l0.2,1c0.1,0.4,0.5,0.6,0.9,0.5c0.4-0.1,0.6-0.5,0.6-0.9l-0.2-1l1-0.2 c0.4-0.1,0.6-0.5,0.5-0.9c-0.1-0.4-0.5-0.6-0.9-0.5l-1,0.2l-0.2-1c-0.1-0.4-0.5-0.6-0.9-0.5c-0.4,0.1-0.6,0.5-0.5,0.9l0.2,1 l-1,0.2c-0.4,0.1-0.6,0.5-0.5,0.9C76.5,23.5,76.9,23.7,77.3,23.7z"/><path fill="#1369f0" d="M89.7,68.2c0.1,0.4,0.5,0.6,0.9,0.5c0.4-0.1,0.6-0.5,0.6-0.9l-0.2-1l1-0.2c0.4-0.1,0.6-0.5,0.5-0.9 c-0.1-0.4-0.5-0.6-0.9-0.5l-1,0.2l-0.2-1c-0.1-0.4-0.5-0.6-0.9-0.5c-0.4,0.1-0.6,0.5-0.5,0.9l0.2,1l-1,0.2 c-0.4,0.1-0.6,0.5-0.5,0.9c0.1,0.4,0.5,0.6,0.9,0.6l1-0.2L89.7,68.2z"/><path fill="#1369f0" d="M6.3,73.9l-3.8,0h0c-0.6,0-1,0.4-1,1c0,0.6,0.4,1,1,1l3.8,0h0c0.6,0,1-0.4,1-1 C7.3,74.4,6.8,73.9,6.3,73.9z"/><path fill="#1369f0" d="M84.9,74l-7.1,0c0.9-0.6,1.8-1.2,2.6-2c2.7-2.6,4.3-6.2,4.4-10c0.1-3.8-1.4-7.4-4-10.2 c-1.9-2-4.3-3.3-6.9-3.9V21c0-2.6-2.1-4.7-4.7-4.7H15c-2.6,0-4.7,2.1-4.7,4.7v39.2c0,2.1,1.7,3.9,3.9,3.9H35l-1.1,5.7h-0.8 c-2.6,0-4.7,1.8-5.2,4.3l-15.1,0h0c-0.6,0-1,0.4-1,1c0,0.6,0.4,1,1,1C25.7,76,84.4,76,84.9,76h0c0.6,0,1-0.4,1-1 C85.9,74.4,85.4,74,84.9,74z M82.7,61.9c-0.1,3.3-1.4,6.3-3.7,8.6c-2.2,2.2-5.1,3.4-8.2,3.4h-0.5c-3.2-0.1-6.2-1.3-8.6-3.7 c-2.3-2.4-3.5-5.5-3.4-8.7c0.1-3.3,1.4-6.3,3.7-8.6c2.3-2.2,5.3-3.4,8.5-3.4C77.4,49.5,82.8,55.1,82.7,61.9z M58,54.7H17.6 V23.5h49V48C62.9,49,59.9,51.5,58,54.7z M12.3,21c0-1.5,1.2-2.7,2.7-2.7h54.2c1.5,0,2.7,1.2,2.7,2.7v26.6 c-0.4,0-0.8-0.1-1.2-0.1c-0.7,0-1.4,0-2.1,0.1V22.5c0-0.6-0.4-1-1-1h-51c-0.6,0-1,0.4-1,1v32.2h-3.3V21z M14.2,62 c-1.1,0-1.9-0.8-1.9-1.9v-3.4c23.4,0,37,0,44.8,0c-0.6,1.5-0.9,3.1-0.9,4.7c0,0.2,0,0.4,0,0.5C45.6,62,38.8,62,14.2,62z M47.8,69.4H36l1-5.4h9.8L47.8,69.4z M33.1,71.7H51c1.5,0,2.7,1,3.2,2.3l-24.2,0C30.4,72.6,31.7,71.7,33.1,71.7z M56.3,74 c-0.5-2.4-2.6-4.3-5.2-4.3h-1.1L48.8,64h7.6c0.5,2.9,1.8,5.5,3.8,7.6c0.9,0.9,1.9,1.7,3,2.3L56.3,74z"/><path fill="#1369f0" d="M92.5,74L90,74h0c-0.6,0-1,0.4-1,1c0,0.6,0.4,1,1,1l2.5,0h0c0.6,0,1-0.4,1-1C93.5,74.4,93.1,74,92.5,74z"/><path fill="#1369f0" d="M41.9,58c-0.8,0-1.5,0.7-1.5,1.5s0.7,1.5,1.5,1.5c0.8,0,1.5-0.7,1.5-1.5S42.8,58,41.9,58z"/><path fill="#1369f0" d="M32.1,39.2l4.2-2c0.7-0.3,0.9-1.2,0.4-1.8c-0.3-0.5-1-0.6-1.5-0.3l-6.8,3.3c-0.5,0.2-0.8,0.8-0.6,1.4 c0.1,0.4,0.4,0.6,0.7,0.8l6.8,3.3c0.7,0.3,1.4,0,1.7-0.7c0.2-0.6-0.1-1.2-0.7-1.5l-4.1-2C32,39.5,32,39.3,32.1,39.2z"/><path fill="#1369f0" d="M55.7,38.2L48.9,35c-0.6-0.3-1.4,0-1.6,0.6c-0.3,0.6,0.1,1.3,0.7,1.6l4.1,2c0.2,0.1,0.2,0.3,0,0.4l-4.1,2 c-0.6,0.3-0.9,0.9-0.7,1.5c0.2,0.7,1,1,1.7,0.7l6.8-3.3c0.5-0.2,0.8-0.8,0.6-1.4C56.3,38.7,56,38.4,55.7,38.2z"/><path fill="#1369f0" d="M45.9,31.3c-0.6-0.3-1.3,0-1.6,0.6l-6.5,14c-0.3,0.6,0,1.3,0.6,1.6c0.6,0.3,1.3,0,1.6-0.6l6.5-14 C46.7,32.3,46.5,31.6,45.9,31.3z"/><g><path fill="#1369f0" d="M79.7,59c0,0.2-0.1,0.3-0.2,0.5l-0.2,0.2L71.8,68l-1.3,1.4L69,67.8l-7.3-8.2l-0.3-0.3 c-0.1-0.1-0.2-0.3-0.2-0.5c0-0.2,0.1-0.5,0.2-0.6l0.1-0.1l3.6-3.7c0.3-0.3,0.7-0.5,1.2-0.5l8.6,0.1c0.4,0,0.9,0.2,1.2,0.5 l3.3,3.7l0.2,0.2C79.7,58.6,79.8,58.8,79.7,59z"/><path fill="#fff" d="M75.3,58.6L73.8,54l-1.5,0l1.5,4.9l0,0.1l-3.4,8.5l-3.2-8.5l0-0.1l1.6-4.9l-1.5,0l-1.5,4.6 c-0.1,0.1-0.1,0.2-0.1,0.4c0,0.1,0,0.1,0,0.2l3.3,8.8l1.5,1.7l1.3-1.4l3.5-8.9c0-0.1,0-0.1,0-0.2 C75.3,58.9,75.3,58.8,75.3,58.6z"/></g></g><g><path fill="#fff" d="M79.7,59c0,0.2-0.1,0.3-0.2,0.5l-0.2,0.2l-17.6-0.1l-0.3-0.3c-0.1-0.1-0.2-0.3-0.2-0.5 c0-0.2,0.1-0.5,0.2-0.6l0.1-0.1l17.9,0.1l0.2,0.2C79.7,58.6,79.8,58.8,79.7,59z"/></g></svg>