<svg xmlns="http://www.w3.org/2000/svg"  viewBox="0 0 95 95" width="66px" height="66px"><path fill="#e8f0fd" d="M88.4,47.7c0,4.9-4.2,8.9-8.7,10.5c-4.5,1.6-9.5,1.5-14.3,2s-10.4,4.9-13.8,8.4c-2.2,2.3-3.3,5.4-4.9,8.2 c-1.6,2.8-3.8,5.5-6.9,6.2c-3.4,0.7-6.9-1.5-8.9-4.3c-2-2.9-2.9-6.4-3.9-9.8c-1-3.4-1.5-10.1-3.9-12.7c-2.1-2.2-4.9-3.6-7.6-5 c-2.7-1.4-5.5-2.9-7.2-5.4c-1.8-2.5-2.3-6.1-0.4-8.5c2.4-3,6.8-2.6,10.6-2.9c7.1-0.6,13.7-4.9,17.3-11c1.3-2.3,2.2-4.8,3.7-7.1 c1.5-2.2,3.6-4.2,6.3-4.5c3.7-0.4,6.8,2.6,9.4,5.3c4.9,5.2,9.6,11.8,16,15.2C77.4,35.7,88.4,38.7,88.4,47.7z"/><path fill="#e8f0fd" d="M10.7,21.7c0.2,0.4,0,0.8-0.4,1l-1,0.4l0.4,1c0.2,0.4,0,0.8-0.4,0.9c-0.4,0.1-0.8,0-0.9-0.4l-0.4-1L7,24 c-0.4,0.2-0.8,0-0.9-0.4c-0.1-0.4,0-0.8,0.4-0.9l1-0.4l-0.4-1c-0.1-0.4,0-0.8,0.4-0.9c0.4-0.2,0.8,0,1,0.4l0.4,1l1-0.4 C10.1,21.1,10.6,21.3,10.7,21.7z"/><path fill="#e8f0fd" d="M60.1,79.6c0,0.4-0.3,0.7-0.7,0.8l-1.1,0l0,1.1c0,0.4-0.3,0.7-0.7,0.7c-0.4,0-0.7-0.3-0.7-0.7l0-1.1l-1.1,0 c-0.4,0-0.7-0.3-0.7-0.7c0-0.4,0.3-0.7,0.7-0.7l1.1,0l0-1.1c0-0.4,0.3-0.7,0.7-0.7c0.4,0,0.7,0.3,0.8,0.7l0,1.1l1.1,0 C59.8,78.9,60.1,79.2,60.1,79.6z"/><path fill="#fff" d="M20.9,42l-2.1,2.9l-0.7,0.9c-0.6,0.8-1.6,0.9-2.4,0.3l-5.4-4.3c-0.7-0.6-0.8-1.6-0.3-2.3l13-17.7 c0.5-0.7,1.6-0.9,2.3-0.3l5.4,4.3c0.7,0.5,0.8,1.6,0.3,2.3L31,28.3l-7.5,10.2h0L20.9,42z"/><path fill="#e8f0fd" d="M31.2,28.1L31,28.3l-7.5,10.2h0L20.9,42l-2.1,2.9l-0.7,0.9c-0.6,0.8-1.6,0.9-2.4,0.3l-2-1.6 c0.7,0.4,1.6,0.2,2.1-0.5l0.7-0.9l2.1-2.9l2.6-3.5h0l7.5-10.2l0.2-0.2c0.5-0.7,0.4-1.7-0.3-2.3l-3.4-2.7c0.1,0,0.1,0.1,0.2,0.1 l5.4,4.3C31.6,26.4,31.7,27.4,31.2,28.1z"/><path fill="#fff" d="M26.1,60.1c-1.5,1.9-4.2,2.2-6,0.7c-1.9-1.5-2.2-4.2-0.7-6l2.2-2.9l1.6-2.1c1.5-1.9,4.2-2.2,6-0.8 c1.1,0.9,1.7,2.1,1.7,3.4c0,0.9-0.3,1.9-0.9,2.6l-0.2,0.2L26.1,60.1z"/><path fill="#e8f0fd" d="M30.9,52.4c0,0.9-0.3,1.9-0.9,2.7l-0.2,0.2l-3.7,4.8c-1.4,1.9-4.1,2.2-6,0.7c-0.4-0.3-0.7-0.6-0.9-1 c1.7,0.7,3.7,0.1,4.9-1.4l3.7-4.8l0.2-0.2c0.6-0.8,0.9-1.7,0.9-2.7c0-0.9-0.3-1.7-0.8-2.4c0.4,0.1,0.8,0.4,1.1,0.6 C30.3,49.9,30.9,51.2,30.9,52.4z"/><path fill="#fff" d="M29.8,55.3c1.4-1.8,4-2.1,5.7-0.7l0.1,0.1c1.7,1.4,2,3.9,0.6,5.7l-1.4,1.7l-2.6,3.2c-1.4,1.7-3.9,2-5.7,0.6 c-1-0.8-1.5-2-1.5-3.1c0-0.9,0.3-1.7,0.9-2.5l0.2-0.2L29.8,55.3z"/><path fill="#e8f0fd" d="M36.2,60.4l-1.4,1.7l-2.6,3.2c-1.4,1.7-3.9,2-5.7,0.6c-0.3-0.3-0.6-0.6-0.9-1c1.6,0.7,3.6,0.3,4.8-1.1 l2.6-3.2l1.4-1.7c1.1-1.4,1.2-3.3,0.2-4.7c0.3,0.1,0.5,0.3,0.8,0.5l0.1,0.1C37.4,56.1,37.6,58.7,36.2,60.4z"/><path fill="#fff" d="M41.6,65.4c0,0,0.1-0.1,0.1-0.1c0.4-0.6,0.6-1.3,0.6-2.1c0-1.1-0.5-2.2-1.5-2.9c-1.6-1.2-3.8-0.9-5,0.6 l-1,1.2l-2,2.4c-1.3,1.6-1,4,0.7,5.2l0.1,0.1c1.6,1.2,3.9,0.9,5.1-0.7L41.6,65.4z"/><path fill="#e8f0fd" d="M42.3,63.2c0,0.7-0.2,1.4-0.6,2.1c0,0.1,0,0.1-0.1,0.1l-2.8,3.7c-1.2,1.6-3.5,1.9-5.1,0.7l-0.1-0.1 c-0.2-0.2-0.4-0.3-0.6-0.6c1.4,0.4,3,0,4-1.3l2.8-3.7c0,0,0.1-0.1,0.1-0.1c0.4-0.6,0.6-1.3,0.6-2.1c0-0.8-0.3-1.6-0.8-2.3 c0.4,0.1,0.8,0.3,1.1,0.6C41.8,61,42.3,62.1,42.3,63.2z"/><path fill="#fff" d="M39.7,68c-1.3,1.7-0.8,4.2,1,5.3l0.1,0.1c1.7,1.1,4,0.6,5.2-1.1l0.8-1.2l0.6-0.9c0.4-0.6,0.6-1.3,0.6-2 c0-1.2-0.6-2.4-1.7-3.1c-1.2-0.8-2.8-0.8-4,0c-0.1,0.1-0.2,0.1-0.3,0.2c0,0-0.1,0.1-0.2,0.1C41.6,65.4,39.7,68,39.7,68z"/><path fill="#e8f0fd" d="M48,68.1c0,0.7-0.2,1.4-0.6,2l-0.6,0.9L46,72.3c-1.1,1.7-3.4,2.2-5.2,1.1l-0.1-0.1c-0.6-0.4-1.1-1-1.4-1.6 c1.7,0.8,3.7,0.3,4.8-1.3l0.8-1.2l0.6-0.9c0.4-0.6,0.6-1.3,0.6-2c0-0.5-0.1-1.1-0.3-1.5c0.2,0.1,0.4,0.2,0.5,0.3 C47.4,65.7,48,66.9,48,68.1z"/><path fill="#fff" d="M67.6,30.4l-1.4-3.3l-2.6,1.5c-0.8,0.5-1.8,0.6-2.8,0.5L48,27.1c-1.9-0.3-3.9,0.3-5.3,1.7L41.4,30l-4.7,4.5 C36.2,35,36,35.6,36,36.3c0,0.9,0.5,1.7,1.4,2.2c2.7,1.3,5.8,1.2,8.4-0.2l1.2-0.6c1.5-0.8,3.4-0.6,4.8,0.5l0.6,0.5l11.5,9.2 c0.6,0.5,1.3,0.9,2,1.2c0.2,0.1,0.5,0.2,0.7,0.3c0.2,0.1,0.4,0.1,0.6,0.2c0.2,0.1,0.4,0.1,0.6,0.1c0.3,0,0.5,0.1,0.8,0.1 c0.2,0,0.5,0,0.7,0c0.5,0,1,0,1.5-0.1l4.4-0.6c0-0.1-0.1-0.2-0.1-0.3l-5.8-14.4"/><path fill="#e8f0fd" d="M75.2,49.1l-3.1,0.4l-5.6-13.8l-1.6-4l-1.3-3.1h0l2.6-1.5l1.4,3.3l1.6,4L75,48.8 C75.1,48.9,75.1,49,75.2,49.1z"/><path fill="#e8f0fd" d="M63.6,28.5c-0.4,0.2-0.8,0.4-1.2,0.4l1.1-0.6L63.6,28.5z"/><path fill="#fff" d="M49.7,54.9l8.2,5.9l-0.4-0.3c1.8,1.3,2,3.9,0.5,5.5h0c-1.3,1.3-3.3,1.4-4.7,0.3l-3.5-2.7l-4.2-3.3l6.8,5.3 c1.9,1.4,2,4.1,0.4,5.8C52,72.1,51,72.5,50,72.5c-0.8,0-1.6-0.2-2.3-0.8l-0.9-0.7l0.6-0.9c0.4-0.6,0.6-1.3,0.6-2 c0-1.2-0.6-2.4-1.7-3.1c-1.6-1-3.8-0.7-4.9,0.8l0.3-0.4c0.5-0.7,0.7-1.4,0.7-2.2c0-1.1-0.5-2.2-1.5-2.9c-1.6-1.2-3.8-0.9-5,0.6 l-1,1.2l0,0l1.4-1.7c1.4-1.7,1.1-4.3-0.6-5.7l-0.1-0.1c-1.8-1.4-4.3-1.1-5.7,0.7l0.2-0.2c0.6-0.8,0.9-1.7,0.9-2.6 c0-1.3-0.6-2.5-1.7-3.4c-1.9-1.5-4.6-1.1-6,0.8l-1.6,2.1v-3.6c0-0.9-0.4-1.8-1.1-2.3l-1.6-1.2L31,28.3l1.3,1.1 c0.4,0.4,1,0.6,1.6,0.6h7.6l-4.7,4.5C36.2,35,36,35.6,36,36.3c0,0.9,0.5,1.7,1.4,2.2c2.7,1.3,5.8,1.2,8.4-0.2l1.2-0.6 c1.5-0.8,3.4-0.6,4.8,0.5l0.6,0.5l11.5,9.2c0.6,0.5,1.3,0.9,2,1.2c0.2,0.1,0.5,0.2,0.7,0.3c0.2,0.1,0.4,0.1,0.6,0.2 c0.2,0.1,0.4,0.1,0.6,0.1c0.3,0,0.5,0.1,0.8,0.1c0.2,0,0.5,0,0.7,0c0.8,1.5,0.7,3.4-0.6,4.7c-0.8,0.7-1.7,1.1-2.7,1.1 c-0.8,0-1.6-0.2-2.3-0.7l-9.5-7.1l2.5,1.9l6.1,4.5c1.9,1.4,2.3,4.2,0.7,6l0,0c-1.4,1.6-3.8,1.9-5.5,0.7"/><path fill="#fff" d="M69.2,34.4L75,48.8c0,0.1,0.1,0.2,0.1,0.3c0.4,0.7,1.3,1,2.1,0.6l7-3.1c0.8-0.4,1.2-1.3,0.9-2.1l-9-22.2 c-0.3-0.9-1.3-1.3-2.2-0.9l-7,3.1c-0.8,0.3-1.2,1.3-0.9,2.1l0.2,0.4l1.4,3.3L69.2,34.4z"/><path fill="#e8f0fd" d="M84.2,46.6l-1.8,0.8c0.1-0.3,0.1-0.7,0-1.1l-9-22.2c-0.3-0.9-1.3-1.3-2.2-0.9L66,25.6 c0.1-0.5,0.5-0.9,0.9-1l7-3.1c0.9-0.4,1.8,0,2.2,0.9l9,22.2C85.4,45.3,85,46.2,84.2,46.6z"/><g><path fill="#1369f0" d="M87,22.1l1.1,0l0,1.1c0,0.4,0.3,0.7,0.7,0.8c0.4,0,0.7-0.3,0.8-0.7l0-1.1l1.1,0c0.4,0,0.7-0.3,0.8-0.7 c0-0.4-0.3-0.7-0.7-0.8l-1.1,0l0-1.1c0-0.4-0.3-0.7-0.7-0.8c-0.4,0-0.7,0.3-0.8,0.7l0,1.1l-1.1,0c-0.4,0-0.7,0.3-0.8,0.7 C86.2,21.7,86.5,22.1,87,22.1z"/><path fill="#1369f0" d="M6.3,60.8l-1,0.4l-0.4-1c-0.1-0.4-0.6-0.6-1-0.4c-0.4,0.1-0.6,0.6-0.4,0.9l0.4,1l-1,0.4 c-0.4,0.2-0.6,0.6-0.4,0.9c0.2,0.4,0.6,0.6,0.9,0.4l1-0.4l0.4,1c0.2,0.4,0.6,0.6,0.9,0.4c0.4-0.2,0.6-0.6,0.4-0.9l-0.4-1l1-0.4 c0.4-0.1,0.6-0.6,0.4-1C7.1,60.9,6.6,60.7,6.3,60.8z"/><path fill="#1369f0" d="M5.1,73.9l-2.6,0c0,0,0,0,0,0c-0.6,0-1,0.4-1,1c0,0.6,0.4,1,1,1l2.6,0c0,0,0,0,0,0c0.6,0,1-0.4,1-1 C6.1,74.4,5.7,73.9,5.1,73.9z"/><path fill="#1369f0" d="M92.5,74l-5.6,0c0,0,0,0,0,0c-0.6,0-1,0.4-1,1c0,0.6,0.4,1,1,1l5.6,0c0,0,0,0,0,0c0.6,0,1-0.4,1-1 C93.5,74.5,93.1,74,92.5,74z"/><path fill="#1369f0" d="M86,44.1l-9-22.2c-0.3-0.7-0.8-1.2-1.5-1.5c-0.7-0.3-1.4-0.3-2.1,0l-7,3.1c-1.2,0.5-1.8,1.8-1.5,3l-1.9,1.1 C62.5,28,61.7,28.2,61,28l-12.9-1.9c-2.2-0.3-4.5,0.4-6.1,2L41,29h-7.2c-0.3,0-0.7-0.1-0.9-0.3l-0.6-0.6c0.5-1.1,0.2-2.3-0.8-3.1 l-5.4-4.3c-0.6-0.5-1.3-0.6-2-0.5c-0.7,0.1-1.4,0.5-1.8,1.1l-13,17.7c-0.9,1.1-0.6,2.8,0.5,3.7l5.4,4.3c0.5,0.4,1.1,0.6,1.6,0.6 c0.1,0,0.2,0,0.4,0c0.7-0.1,1.3-0.5,1.8-1.1l0.1-0.1l0.8,0.6c0.5,0.3,0.7,0.9,0.7,1.5v3.2l-2,2.6c-1.8,2.3-1.4,5.7,0.9,7.4 c1.3,1,2.9,1.4,4.7,0.9c0,0.1,0,0.2,0,0.2c0,1.5,0.7,3,1.9,3.9c1.5,1.2,3.5,1.4,5.2,0.7c0,0,0,0.1,0,0.1c0.2,1.3,0.8,2.4,1.8,3.1 l0.2,0.2c1.3,1,3.2,1.3,4.9,0.4c0.2,1.2,0.9,2.2,1.9,2.9l-27.6,0h0c-0.6,0-1,0.4-1,1c0,0.6,0.4,1,1,1L79,76h0c0.6,0,1-0.4,1-1 c0-0.6-0.4-1-1-1l-33.2,0c0.4-0.3,0.8-0.7,1.1-1.1l0.2-0.3l0,0c0.8,0.6,1.9,1,2.9,1c1.3,0,2.5-0.5,3.4-1.4 c1.1-1.1,1.6-2.5,1.4-4.1c1.4,0.2,2.9-0.2,3.9-1.3c1.1-1.1,1.5-2.7,1.2-4.2c1.6,0.1,3.2-0.5,4.2-1.8c0.9-1.1,1.3-2.5,1.2-3.9 c0-0.1,0-0.2-0.1-0.3c1.5,0.2,2.9-0.3,4-1.4c1.2-1.2,1.6-2.9,1.3-4.4c0.1,0,0.1,0,0.2,0l3.9-0.5c0.5,0.4,1.1,0.7,1.8,0.7 c0.4,0,0.7-0.1,1.1-0.2l7-3.1C85.9,46.9,86.5,45.4,86,44.1z M16.9,45.4c-0.2,0-0.4,0-0.5-0.1L11,41.1c-0.3-0.2-0.3-0.6-0.1-0.9 l13-17.7c0.1-0.1,0.3-0.2,0.4-0.3c0,0,0.1,0,0.1,0c0.1,0,0.3,0,0.4,0.1l5.4,4.3c0.3,0.2,0.3,0.6,0.1,0.9l-0.2,0.2c0,0,0,0,0,0 c-0.1,0.1-12.9,17.5-12.8,17.4C17.3,45.3,17.1,45.4,16.9,45.4z M20.7,60c-1.4-1.1-1.7-3.2-0.6-4.6c4-5.1,3.8-5,4.4-5.5 c1.2-0.9,2.9-1,4.1-0.1c1.4,1.1,1.7,3.2,0.6,4.7l-3.9,5C24.2,60.9,22.2,61.2,20.7,60z M27.3,65.1c-0.7-0.6-1.1-1.5-1.1-2.4 c0-0.7,0.2-1.3,0.7-1.9c3.1-4,3.8-5,4.3-5.4c1.1-1,2.8-0.9,3.9,0l0.1,0.1c1.3,1.1,1.5,3,0.5,4.3l-3.9,4.9 C30.5,66,28.5,66.2,27.3,65.1z M34.4,69.1l-0.2-0.2c-0.6-0.4-0.9-1.1-1-1.8c-0.1-0.7,0.1-1.4,0.6-2c3.1-3.8,2.9-3.7,3.3-4 c0.9-0.8,2.3-0.7,3.2-0.1c1,0.8,1.3,2.1,0.8,3.3c-0.3,0.6-1.1,1.5-3,4.1C37.2,69.7,35.5,69.9,34.4,69.1z M45.7,65.8 c1.3,0.8,1.6,2.6,0.8,3.8c-0.1,0.1-1.4,2.2-1.4,2.1c-0.8,1.3-2.5,1.6-3.8,0.8l-0.2-0.1c-0.6-0.4-1.1-1-1.2-1.8 c-0.1-0.7,0-1.5,0.5-2.1c0.4-0.6,1.8-2.4,2-2.6c0,0,0,0,0,0C43.5,65.2,44.8,65.2,45.7,65.8z M68,53.7c-1,1-2.6,1.1-3.7,0.3 l-9.5-7.1c-0.4-0.3-1.1-0.2-1.4,0.2c0,0,0,0,0,0c0,0,0,0,0,0c-0.3,0.4-0.2,1.1,0.2,1.4c0.9,0.7-3.2-2.4,8.6,6.4 c0.7,0.5,1.2,1.3,1.3,2.1c0.1,0.9-0.1,1.7-0.7,2.4c-1,1.2-2.9,1.5-4.2,0.5c0,0,0,0,0,0l-8.2-5.9c-0.5-0.3-1.1-0.2-1.4,0.2 c-0.3,0.4-0.2,1.1,0.2,1.4l7.9,5.6c0,0,0,0,0,0c1.3,0.9,1.5,2.8,0.3,3.9c-0.9,0.9-2.4,1-3.4,0.2l-7.8-6.1 c-0.4-0.3-1.1-0.3-1.4,0.2s-0.3,1.1,0.2,1.4l6.8,5.3c1.4,1.1,1.5,3.1,0.3,4.3c-1,1-2.7,1.1-3.7,0.3l-0.1-0.1l0.1-0.1 c1.4-2.1,0.9-5.1-1.4-6.6c0,0,0,0,0,0c-1-0.7-2.4-0.9-3.5-0.7c0-0.1,0-0.2,0-0.3c0-1.5-0.7-2.8-1.9-3.7c-1-0.8-2.3-1-3.4-0.9 c0,0,0,0,0,0c0.3-1.8-0.5-3.6-1.8-4.7l-0.1-0.1c-1.2-1-2.8-1.3-4.3-1c0-0.1,0-0.3,0-0.4c0-1.6-0.7-3.2-2-4.2 c-2.1-1.6-5-1.5-7,0.4c-0.1,0.1-0.2,0.2-0.3,0.3v-0.7c0-1.2-0.6-2.4-1.5-3.1l-0.8-0.6c0.7-0.9-3.2,4.3,10.9-14.9l0.5,0.4 c0.6,0.5,1.4,0.8,2.2,0.8h5.1L36,33.8c-1.7,1.6-1.2,4.5,0.9,5.5c2.9,1.4,6.4,1.3,9.3-0.2l1.2-0.6c1.2-0.6,2.6-0.5,3.7,0.4 l12.1,9.7c1.7,1.4,3.8,2.1,5.2,2.1c0.1,0,0.1,0,0.2,0C69,51.8,68.8,52.9,68,53.7z M70.6,48.7c-2,0.3-4.3-0.2-6.2-1.7L53,37.8 l-0.6-0.5c-1.7-1.3-4-1.6-5.9-0.6l-1.2,0.6c-2.3,1.2-5.1,1.3-7.5,0.1c-0.5-0.2-0.8-0.7-0.8-1.2c0-0.3,0.1-0.6,0.4-1 c0.1-0.1,4.8-4.6,4.7-4.5l1.2-1.2c1.2-1.1,2.9-1.7,4.5-1.4L60.7,30c1.2,0.2,2.4-0.1,3.4-0.6l1.6-0.9l2.6,6.3c0,0,0,0,0,0 l5.5,13.5L70.6,48.7z M83.8,45.7l-7,3.1c-0.3,0.1-0.6,0-0.8-0.2l0,0c0,0,0-0.1,0-0.1L70.1,34l-1.6-4c0,0,0,0,0,0l-0.9-2.2 L67,26.3c-0.1-0.3,0-0.7,0.4-0.8l7-3.1c0.2-0.1,0.4-0.1,0.5,0c0.2,0.1,0.3,0.2,0.4,0.4l9,22.2C84.3,45.2,84.1,45.5,83.8,45.7z"/><path fill="#1369f0" d="M40.5,23.6c0.2,0.2,0.5,0.3,0.7,0.3s0.5-0.1,0.7-0.3c0.4-0.4,0.4-1,0-1.4l-4.3-4.3c-0.4-0.4-1-0.4-1.4,0 s-0.4,1,0,1.4L40.5,23.6z"/><path fill="#1369f0" d="M53.8,23.9c0.3,0,0.5-0.1,0.7-0.3l4.3-4.3c0.4-0.4,0.4-1,0-1.4s-1-0.4-1.4,0l-4.3,4.3c-0.4,0.4-0.4,1,0,1.4 C53.3,23.8,53.5,23.9,53.8,23.9z"/><path fill="#1369f0" d="M47.5,23.9c0.6,0,1-0.4,1-1v-5.5c0-0.6-0.4-1-1-1s-1,0.4-1,1v5.5C46.5,23.5,46.9,23.9,47.5,23.9z"/></g></svg>