<svg xmlns="http://www.w3.org/2000/svg"  viewBox="0 0 95 95" width="66px" height="66px"><path fill="#e8f0fd" d="M82.6,81.7c-3.7,2-8.3,0.1-11.5-2.6c-3.2-2.7-7.1-7.7-10.4-10.2c-5.5-4.1-13.6-4.4-19.4-0.8 c-3.5,2.1-6.1,5.4-8.9,8.4c-2.8,3-6.1,5.8-10.1,6.5c-4.8,0.9-9.9-1.5-12.6-5.6c-2.7-4-3.2-9.3-1.8-14c1.5-4.6,4.8-8.6,8.8-11.3 c3.5-2.4,8-4.6,8.6-8.7c0.5-3.6-2-6.2-3.4-9.3c-1.4-3-2.3-6.3-2.7-9.6c-0.3-2.4-0.3-4.9,0.9-6.9c2.1-3.5,7.4-4.1,11-2 s5.7,6,7,9.9c0.5,1.5,0.9,3,1.7,4.3c0.8,1.3,2,2.5,3.5,2.8c1.6,0.3,3.3-0.4,4.5-1.6c1.9-1.9,2.6-4.8,3.9-7.2 c1.5-2.6,3.2-5.2,5.4-7.3c3-2.8,6.9-4.7,11-4.6c4.1,0.1,8.2,2.6,9.6,6.4c1.4,3.8,0,8-2.2,11.4c-2.2,3.4-5.2,6.2-7.4,9.5 c-2.3,3.3-3.8,7.5-2.7,11.3c1.7,3.1,4.9,4.1,8.6,7.1c3.7,3,9.2,7.3,11.3,11.5C87.5,73.4,86.8,79.4,82.6,81.7z"/><path fill="#e8f0fd" d="M8,46.9c0,0.4-0.4,0.7-0.8,0.7l-1.1,0l0,1.1c0,0.4-0.4,0.7-0.8,0.7c-0.4,0-0.7-0.3-0.7-0.8l0-1.1l-1.1,0 c-0.4,0-0.7-0.4-0.7-0.8C3,46.3,3.4,46,3.8,46l1.1,0l0-1.1c0-0.4,0.4-0.7,0.8-0.7c0.4,0,0.7,0.4,0.7,0.8l0,1.1l1.1,0 C7.7,46.1,8.1,46.5,8,46.9z"/><path fill="#e8f0fd" d="M43.1,80.7c0,0.4-0.4,0.7-0.8,0.7l-1.1,0l0,1.1c0,0.4-0.4,0.7-0.8,0.7c-0.4,0-0.7-0.3-0.7-0.8l0-1.1l-1.1,0 c-0.4,0-0.7-0.4-0.7-0.8c0-0.4,0.3-0.7,0.8-0.7l1.1,0l0-1.1c0-0.4,0.4-0.7,0.8-0.7c0.4,0,0.7,0.4,0.7,0.8l0,1.1l1.1,0 C42.8,79.9,43.1,80.3,43.1,80.7z"/><polygon fill="#fff" points="77.1,31.7 78.1,74.9 11.8,74.9 10.8,31.7"/><rect width="4.2" height="43.1" x="72.9" y="31.7" fill="#e8f0fd"/><path fill="#fff" d="M10.8,31.7v-6.8c0-2.7,2.2-4.9,4.9-4.9h56.4c2.7,0,4.9,2.2,4.9,4.9v6.8H10.8z"/><path fill="#e8f0fd" d="M77.1,24.9v6.8h-3.8v-6.8c0-2.7-2.2-4.9-4.9-4.9h3.8C74.9,20,77.1,22.2,77.1,24.9z"/><path fill="#e8f0fd" d="M10.8,24.9v6.8h4.6v-6.8c0-2.7,2.2-4.9,5-4.9h-4.6C13.1,20,10.8,22.2,10.8,24.9z"/><path fill="#cedbf0" d="M77.1,36.9v27.7l-4.4,6.6c-0.6,0.9-1.5,1.4-2.5,1.4c-0.1,0-0.3,0-0.4,0c-1.1-0.2-2.1-1-2.4-2L67,69.3 l-1.6,0.3c-0.2,0-0.4,0.1-0.6,0.1c-1,0-1.9-0.5-2.5-1.3c-0.7-1-0.7-2.3,0-3.3l4-6.4c-1.8-2.3-2.8-5.2-2.8-8.2 C63.5,43,69.6,36.9,77.1,36.9L77.1,36.9z" opacity=".3"/><path fill="#e8f0fd" d="M16.8,67.8v-5.6c0-0.6,0.4-1,1-1h6.5c0.6,0,1,0.4,1,1v5.6c0,0.6-0.4,1-1,1h-6.5 C17.3,68.8,16.8,68.4,16.8,67.8z"/><path fill="#e8f0fd" d="M40.2,67.8V55.2c0-0.6,0.4-1,1-1h6.5c0.6,0,1,0.4,1,1v12.6c0,0.6-0.4,1-1,1h-6.5 C40.7,68.8,40.2,68.4,40.2,67.8z"/><path fill="#fff" d="M21.2,25.9c0,1.5-1.2,2.7-2.7,2.7c-1.5,0-2.7-1.2-2.7-2.7c0-1.5,1.2-2.7,2.7-2.7 C20,23.2,21.2,24.4,21.2,25.9z"/><path fill="#e8f0fd" d="M21.2,25.9c0,1.5-1.2,2.7-2.7,2.7c-0.4,0-0.7-0.1-1-0.2c1-0.4,1.7-1.3,1.7-2.5c0-1.1-0.7-2.1-1.7-2.5 c0.3-0.1,0.6-0.2,1-0.2C20,23.2,21.2,24.4,21.2,25.9z"/><path fill="#fff" d="M30.3,25.9c0,1.5-1.2,2.7-2.7,2.7c-1.5,0-2.7-1.2-2.7-2.7c0-1.5,1.2-2.7,2.7-2.7 C29.1,23.2,30.3,24.4,30.3,25.9z"/><path fill="#e8f0fd" d="M30.3,25.9c0,1.5-1.2,2.7-2.7,2.7c-0.3,0-0.7-0.1-1-0.2c1-0.4,1.7-1.4,1.7-2.5c0-1.1-0.7-2.1-1.7-2.5 c0.3-0.1,0.6-0.2,1-0.2C29.1,23.2,30.3,24.4,30.3,25.9z"/><path fill="#fff" d="M39.4,25.9c0,1.5-1.2,2.7-2.7,2.7c-1.5,0-2.7-1.2-2.7-2.7c0-1.5,1.2-2.7,2.7-2.7 C38.2,23.2,39.4,24.4,39.4,25.9z"/><path fill="#e8f0fd" d="M39.4,25.9c0,1.5-1.2,2.7-2.7,2.7c-0.3,0-0.7-0.1-0.9-0.2c1-0.4,1.7-1.3,1.7-2.5c0-1.1-0.7-2.1-1.7-2.5 c0.3-0.1,0.6-0.2,0.9-0.2C38.2,23.2,39.4,24.4,39.4,25.9z"/><path fill="#e8f0fd" d="M23.7,43.6l0.9,2.8c0.1,0.3-0.2,0.5-0.5,0.4L21.7,45c-0.1-0.1-0.3-0.1-0.4,0L19,46.7 c-0.3,0.2-0.6-0.1-0.5-0.4l0.9-2.8c0-0.1,0-0.3-0.1-0.4L17,41.5c-0.3-0.2-0.1-0.6,0.2-0.6h2.9c0.1,0,0.3-0.1,0.3-0.2l0.9-2.8 c0.1-0.3,0.5-0.3,0.6,0l0.9,2.8c0,0.1,0.2,0.2,0.3,0.2H26c0.3,0,0.4,0.4,0.2,0.6l-2.3,1.7C23.7,43.3,23.6,43.4,23.7,43.6z"/><path fill="#e8f0fd" d="M35.6,43.6l0.9,2.8c0.1,0.3-0.2,0.5-0.5,0.4L33.7,45c-0.1-0.1-0.3-0.1-0.4,0l-2.4,1.7 c-0.3,0.2-0.6-0.1-0.5-0.4l0.9-2.8c0-0.1,0-0.3-0.1-0.4l-2.3-1.7c-0.3-0.2-0.1-0.6,0.2-0.6H32c0.1,0,0.3-0.1,0.3-0.2l0.9-2.8 c0.1-0.3,0.5-0.3,0.6,0l0.9,2.8c0,0.1,0.2,0.2,0.3,0.2h2.9c0.3,0,0.4,0.4,0.2,0.6l-2.3,1.7C35.6,43.3,35.6,43.4,35.6,43.6z"/><path fill="#e8f0fd" d="M47.5,43.6l0.9,2.8c0.1,0.3-0.2,0.5-0.5,0.4L45.6,45c-0.1-0.1-0.3-0.1-0.4,0l-2.4,1.7 c-0.3,0.2-0.6-0.1-0.5-0.4l0.9-2.8c0-0.1,0-0.3-0.1-0.4l-2.3-1.7c-0.3-0.2-0.1-0.6,0.2-0.6h2.9c0.1,0,0.3-0.1,0.3-0.2l0.9-2.8 c0.1-0.3,0.5-0.3,0.6,0l0.9,2.8c0,0.1,0.2,0.2,0.3,0.2h2.9c0.3,0,0.4,0.4,0.2,0.6l-2.3,1.7C47.5,43.3,47.5,43.4,47.5,43.6z"/><path fill="#e8f0fd" d="M59.5,43.6l0.9,2.8c0.1,0.3-0.2,0.5-0.5,0.4L57.5,45c-0.1-0.1-0.3-0.1-0.4,0l-2.4,1.7 c-0.3,0.2-0.6-0.1-0.5-0.4l0.9-2.8c0-0.1,0-0.3-0.1-0.4l-2.3-1.7c-0.3-0.2-0.1-0.6,0.2-0.6h2.9c0.1,0,0.3-0.1,0.3-0.2L57,38 c0.1-0.3,0.5-0.3,0.6,0l0.9,2.8c0,0.1,0.2,0.2,0.3,0.2h2.9c0.3,0,0.4,0.4,0.2,0.6l-2.3,1.7C59.5,43.3,59.4,43.4,59.5,43.6z"/><g><path fill="#fff" d="M77.8,58.1L75.2,62l-4.9,7.5L69,65.8l-4.2,0.8l6.1-9.3c0.4,0.2,0.9,0.2,1.4,0.1c0.3-0.1,0.7-0.2,0.9-0.4 c0.1,0.8,1.1,0.4,2.1,0.5c1.1,0.2,1.8,0.9,2.2,0.1C77.6,57.9,77.7,58,77.8,58.1z"/><path fill="#fff" d="M75.6,57.3l2.9,3.6l5.6,7l0.9-3.8l4.3,0.4l-6.9-8.6c-0.4,0.2-0.9,0.3-1.3,0.3c-0.3,0-0.7-0.1-1-0.3 c-0.1,0.8-1.1,0.5-2,0.7c-1,0.3-1.7,1.1-2.2,0.3C75.8,57,75.7,57.2,75.6,57.3z"/><path fill="#fff" d="M87.6,50.4c0,5.8-4.7,10.5-10.5,10.5s-10.5-4.7-10.5-10.5c0-5.8,4.7-10.5,10.5-10.5S87.6,44.6,87.6,50.4z"/><path fill="#e8f0fd" d="M87.6,50.4c0,5.8-4.7,10.5-10.5,10.5c-3,0-5.7-1.3-7.6-3.3c1.4,0.7,3,1.1,4.7,1.1 c5.8,0,10.5-4.7,10.5-10.5c0-2.8-1.1-5.4-2.9-7.3C85.2,42.7,87.6,46.3,87.6,50.4z"/><path fill="#1369f0" d="M5.6,19.2l1,0.1l-0.1,1c0,0.4,0.3,0.8,0.7,0.8c0.4,0,0.8-0.3,0.8-0.7l0.1-1l1,0.1c0.4,0,0.8-0.3,0.8-0.7 c0-0.4-0.3-0.8-0.7-0.8l-1-0.1l0.1-1c0-0.4-0.3-0.8-0.7-0.8c-0.4,0-0.8,0.3-0.8,0.7l-0.1,1l-1-0.1c-0.4,0-0.8,0.3-0.8,0.7 C4.9,18.8,5.2,19.2,5.6,19.2z"/><path fill="#1369f0" d="M86.8,25.5l1.1,0l0,1.1c0,0.4,0.3,0.7,0.7,0.8c0.4,0,0.7-0.3,0.8-0.7l0-1.1l1.1,0c0.4,0,0.7-0.3,0.8-0.7 c0-0.4-0.3-0.7-0.7-0.8l-1.1,0l0-1.1c0-0.4-0.3-0.7-0.7-0.8c-0.4,0-0.7,0.3-0.8,0.7l0,1.1l-1.1,0c-0.4,0-0.7,0.3-0.8,0.7 C86.1,25.2,86.4,25.5,86.8,25.5z"/><path fill="#1369f0" d="M92.5,73.9l-6,0c0,0,0,0,0,0c-0.6,0-1,0.4-1,1c0,0.6,0.4,1,1,1l6,0c0.6,0,1-0.4,1-1 C93.5,74.4,93.1,73.9,92.5,73.9z"/><path fill="#1369f0" d="M36,68.8c0.6,0,1-0.4,1-1v-8.6c0-0.6-0.4-1-1-1h-6.5c-0.6,0-1,0.4-1,1v8.6c0,0.6,0.4,1,1,1H36z"/><path fill="#1369f0" d="M59.4,68.8c0.6,0,1-0.4,1-1V50.7c0-0.6-0.4-1-1-1h-6.5c-0.6,0-1,0.4-1,1v17.1c0,0.6,0.4,1,1,1H59.4z"/><path fill="#1369f0" d="M18.6,22.2c-2,0-3.7,1.6-3.7,3.7s1.6,3.7,3.7,3.7s3.7-1.6,3.7-3.7S20.6,22.2,18.6,22.2z M18.6,27.5 c-0.9,0-1.7-0.7-1.7-1.7s0.7-1.7,1.7-1.7s1.7,0.7,1.7,1.7S19.5,27.5,18.6,27.5z"/><path fill="#1369f0" d="M27.7,22.2c-2,0-3.7,1.6-3.7,3.7s1.6,3.7,3.7,3.7s3.7-1.6,3.7-3.7S29.7,22.2,27.7,22.2z M27.7,27.5 c-0.9,0-1.7-0.7-1.7-1.7s0.7-1.7,1.7-1.7s1.7,0.7,1.7,1.7S28.6,27.5,27.7,27.5z"/><path fill="#1369f0" d="M36.8,22.2c-2,0-3.7,1.6-3.7,3.7s1.6,3.7,3.7,3.7s3.7-1.6,3.7-3.7S38.8,22.2,36.8,22.2z M36.8,27.5 c-0.9,0-1.7-0.7-1.7-1.7s0.7-1.7,1.7-1.7s1.7,0.7,1.7,1.7S37.7,27.5,36.8,27.5z"/><path fill="#1369f0" d="M72,24.9H44.2c-0.6,0-1,0.4-1,1s0.4,1,1,1H72c0.6,0,1-0.4,1-1S72.6,24.9,72,24.9z"/><path fill="#1369f0" d="M89.2,65.5c0.4,0,0.8-0.2,1-0.5c0.2-0.3,0.2-0.8-0.1-1.1l-4.5-5.7c1.8-2,3-4.7,3-7.7c0-6-4.6-11-10.5-11.5 v-14c0-3.3-2.7-5.9-5.9-5.9H15.8c-3.3,0-5.9,2.7-5.9,5.9v48.9l-7.3,0h0c-0.6,0-1,0.4-1,1s0.4,1,1,1c0.1,0-0.2,0,19,0 c0.6,0,1-0.4,1-1s-0.4-1-1-1H21c0,0,0,0,0,0l-9.2,0V32.7h64.3v6.2c-5.9,0.5-10.6,5.5-10.6,11.5c0,3.1,1.2,5.9,3.3,8L64,66.1 c-0.2,0.3-0.2,0.8,0,1.1c0.2,0.3,0.6,0.5,1,0.4l3.3-0.6l1,2.9c0.1,0.4,0.4,0.6,0.8,0.7c0,0,0.1,0,0.1,0c0.3,0,0.7-0.2,0.8-0.5 l5-7.7v11.4H28c-0.6,0-1,0.4-1,1s0.4,1,1,1h1.4c0,0,0,0,0,0l51.7,0h0c0.6,0,1-0.4,1-1c0-0.6-0.4-1-1-1l-3.1,0V62l5.3,6.6 c0.2,0.2,0.5,0.4,0.8,0.4c0.1,0,0.2,0,0.2,0c0.4-0.1,0.7-0.4,0.7-0.8l0.7-3L89.2,65.5z M11.8,30.7v-5.8c0-2.2,1.8-3.9,3.9-3.9 h56.4c2.2,0,3.9,1.8,3.9,3.9v5.8H11.8z M70.6,67.3L70,65.5c-0.1-0.4-0.5-0.7-0.9-0.7c-0.1,0-0.1,0-0.2,0l-1.9,0.4l3.4-5.4 c1.2,0.8,2.5,1.5,3.9,1.8L70.6,67.3z M77.1,60c-5.3,0-9.5-4.3-9.5-9.5c0-5.3,4.3-9.5,9.5-9.5c5.3,0,9.5,4.3,9.5,9.5 C86.6,55.7,82.4,60,77.1,60z M85.2,63.1c-0.5,0-1,0.3-1.1,0.8l-0.4,1.8l-3.4-4.2c1.4-0.4,2.7-1.1,3.9-2l2.9,3.8L85.2,63.1z"/><g><path fill="#1369f0" d="M83.8,51c-0.3,3.7-3.6,6.4-7.3,6.1c-3.7-0.3-6.4-3.6-6.1-7.3c0.3-3.7,3.6-6.4,7.3-6.1S84.1,47.3,83.8,51z"/></g><g><polygon fill="#fff" points="79.2,51.5 79.7,54.4 77.1,53.1 74.5,54.4 75,51.5 72.9,49.5 75.8,49.1 77.1,46.4 78.4,49.1 81.3,49.5"/></g></g></svg>