<svg xmlns="http://www.w3.org/2000/svg"  viewBox="0 0 95 95" width="66px" height="66px"><path fill="#e8f0fd" d="M86.3,47.7c0,4.9-4.2,8.9-8.7,10.5c-4.5,1.6-9.5,1.5-14.3,2c-4.8,0.4-10.4,4.9-13.8,8.4 c-2.2,2.3-3.3,5.4-4.9,8.2c-1.6,2.8-3.8,5.5-6.9,6.2c-3.4,0.7-6.9-1.5-8.9-4.3c-2-2.9-2.9-6.4-3.9-9.8c-1-3.4-1.5-10.1-3.9-12.7 c-2.1-2.2-4.9-3.6-7.6-5c-2.7-1.4-5.5-2.9-7.2-5.4c-1.8-2.5-2.3-6.1-0.4-8.5c2.4-3,6.8-2.6,10.6-2.9c7.1-0.6,13.7-4.9,17.3-11 c1.3-2.3,2.2-4.8,3.7-7.1c1.5-2.2,3.6-4.2,6.3-4.5c3.7-0.4,6.8,2.6,9.4,5.3c4.9,5.2,9.6,11.8,16,15.2 C75.4,35.7,86.3,38.7,86.3,47.7z"/><path fill="#e8f0fd" d="M12.1,24.7c-0.1,0.4-0.5,0.6-0.9,0.6l-1-0.2l-0.2,1c-0.1,0.4-0.5,0.6-0.9,0.6c-0.4-0.1-0.6-0.5-0.6-0.9 l0.2-1l-1-0.2c-0.4-0.1-0.6-0.5-0.6-0.9C7.2,23.3,7.6,23,8,23.1l1,0.2l0.2-1c0.1-0.4,0.5-0.6,0.9-0.6c0.4,0.1,0.6,0.5,0.6,0.9 l-0.2,1l1,0.2C11.9,23.9,12.1,24.3,12.1,24.7z"/><path fill="#e8f0fd" d="M58.4,79.9c-0.1,0.4-0.5,0.6-0.9,0.6l-1-0.2l-0.2,1c-0.1,0.4-0.5,0.6-0.9,0.6c-0.4-0.1-0.6-0.5-0.6-0.9 l0.2-1l-1-0.2c-0.4-0.1-0.6-0.5-0.6-0.9c0.1-0.4,0.5-0.6,0.9-0.6l1,0.2l0.2-1c0.1-0.4,0.5-0.6,0.9-0.6c0.4,0.1,0.6,0.5,0.6,0.9 l-0.2,1l1,0.2C58.3,79.1,58.5,79.5,58.4,79.9z"/><path fill="#fff" d="M52.1,72.8C52.1,72.8,52.1,72.8,52.1,72.8C52.1,72.8,52.1,72.8,52.1,72.8C52.1,72.8,52.1,72.8,52.1,72.8 C52.1,72.8,52.1,72.8,52.1,72.8z"/><path fill="#fff" d="M43.7,24.2h25.3c1.3,0,2.6,0.6,3.5,1.5l10.3,11.2c0.8,0.9,0.8,2.3,0,3.2L56.5,69.6L29.7,40.1 c-0.8-0.9-0.8-2.3,0-3.2l10.6-11.2C41.2,24.7,42.4,24.2,43.7,24.2z"/><path fill="#e8f0fd" d="M82.9,40.1L56.5,69.6L54,66.8l23.9-26.8c0.8-0.9,0.8-2.3,0-3.2L67.5,25.7c-0.9-1-2.2-1.5-3.5-1.5h5 c1.3,0,2.6,0.5,3.5,1.5l10.3,11.2C83.7,37.8,83.7,39.1,82.9,40.1z"/><g><path fill="#fff" d="M58.5,63.3l19.3-8.6c2-0.9,4.4,0,5.3,2v0c0.9,2,0.1,4.3-1.8,5.3L61.1,72.2c-3.6,1.8-7.5,2.7-11.5,2.7h0 c-3.1,0-6.2-0.6-9-1.7l-12.8-4.8V51.1h1.2c3.1,0,6.2,0.8,8.9,2.4l0,0c2.7,1.6,5.8,2.4,8.9,2.4h9.5c2.3,0,4.1,1.8,4.1,4.1v0 c0,2.3-1.8,4.1-4.1,4.1h-14"/><path fill="#e8f0fd" d="M27.7,51.1v17.4l12.8,4.8c2.9,1.1,6,1.6,9,1.6c0.6,0,1.3,0,1.9-0.1c-2.4-0.2-4.8-0.7-7.1-1.6l-12.8-4.8 V51.3c-0.9-0.1-1.8-0.2-2.7-0.2H27.7z"/><path fill="#fff" d="M13.1,46.4h12.9c0.9,0,1.6,0.7,1.6,1.6v23.1c0,0.9-0.7,1.6-1.6,1.6H13.1c-0.9,0-1.6-0.7-1.6-1.6V48 C11.5,47.1,12.2,46.4,13.1,46.4z"/><path fill="#e8f0fd" d="M11.5,48v23.1c0,0.9,0.7,1.6,1.6,1.6h3.4c-0.9,0-1.6-0.7-1.6-1.6V48c0-0.9,0.7-1.6,1.6-1.6h-3.4 C12.2,46.4,11.5,47.1,11.5,48z"/><path fill="#1369f0" d="M79.7,20.4l1-0.2l0.2,1c0.1,0.4,0.5,0.6,0.9,0.5c0.4-0.1,0.6-0.5,0.6-0.9l-0.2-1l1-0.2 c0.4-0.1,0.6-0.5,0.5-0.9c-0.1-0.4-0.5-0.6-0.9-0.5l-1,0.2l-0.2-1c-0.1-0.4-0.5-0.6-0.9-0.5c-0.4,0.1-0.6,0.5-0.5,0.9l0.2,1 l-1,0.2c-0.4,0.1-0.6,0.5-0.5,0.9C78.9,20.2,79.3,20.5,79.7,20.4z"/><path fill="#1369f0" d="M89.1,61.7l-0.2-1l1-0.2c0.4-0.1,0.6-0.5,0.5-0.9c-0.1-0.4-0.5-0.6-0.9-0.5l-1,0.2l-0.2-1 c-0.1-0.4-0.5-0.6-0.9-0.5c-0.4,0.1-0.6,0.5-0.5,0.9l0.2,1l-1,0.2c-0.4,0.1-0.6,0.5-0.5,0.9c0.1,0.4,0.5,0.6,0.9,0.6l1-0.2 l0.2,1c0.1,0.4,0.5,0.6,0.9,0.5C88.9,62.5,89.1,62.1,89.1,61.7z"/><path fill="#1369f0" d="M92.5,73.9h-3c-0.6,0-1,0.4-1,1s0.4,1,1,1h3c0.6,0,1-0.4,1-1S93.1,73.9,92.5,73.9z"/><path fill="#1369f0" d="M9.6,73.9H2.5c-0.6,0-1,0.4-1,1s0.4,1,1,1h7.1c0.6,0,1-0.4,1-1S10.1,73.9,9.6,73.9z"/><path fill="#1369f0" d="M84,36.8c0,0,0-0.1-0.1-0.1c-0.3-0.4,0.7,0.6-10.7-11.6c-1.1-1.2-2.6-1.8-4.2-1.8c-11.5,0-16.5,0-25.3,0 c-0.9,0-1.7,0.2-2.5,0.6c-0.7,0.3-1.2,0.7-1.7,1.2c-1.1,1.2,3.9-4.1-10.6,11.2c-1.2,1.3-1.2,3.3,0,4.6l11.8,13 c-0.8-0.3-1.6-0.7-2.4-1.1c-2.9-1.6-6.1-2.5-9.4-2.5h-0.2V48c0-1.4-1.2-2.6-2.6-2.6H13.1c-1.4,0-2.6,1.2-2.6,2.6v23.1 c0,1.4,1.2,2.6,2.6,2.6h12.9c1.4,0,2.6-1.2,2.6-2.6v-1.3l10.7,4H16.2c-0.6,0-1,0.4-1,1s0.4,1,1,1h67c0.6,0,1-0.4,1-1 s-0.4-1-1-1H59.6c0.6-0.3,1.3-0.5,1.9-0.9l20.2-10.2c2.4-1.2,3.4-4.1,2.3-6.6c-1.1-2.5-4.1-3.6-6.6-2.5l-9.1,4.1l15.3-17.1 C84.6,39.7,84.8,38.1,84,36.8z M26.7,71.2c0,0.3-0.3,0.6-0.6,0.6H13.1c-0.3,0-0.6-0.3-0.6-0.6V48c0-0.3,0.3-0.6,0.6-0.6h12.9 c0.3,0,0.6,0.3,0.6,0.6V71.2z M56.2,54.8h-4.5l-5.7-14.6h20.6l-6.4,16.6C59.3,55.6,57.8,54.8,56.2,54.8z M30.1,38.2 c0-0.1,0-0.1,0-0.1c0-0.1,0-0.1,0.1-0.2c0.1-0.1,0.1-0.3,0.2-0.4c0.2-0.2,10.5-11.1,10.6-11.2c0.7-0.7,1.7-1.2,2.7-1.2h4.8 l-5.2,12.9c0,0.1,0,0.1,0,0.2H30.1z M45.3,38.2l5.3-13H62l5.2,13H45.3z M69.3,38.2c0-0.1,0-0.1,0-0.2l-5.1-12.9h4.9 c1,0,2,0.4,2.7,1.2c1.1,1.2,9.3,10.1,10.3,11.2c0.1,0.1,0.2,0.3,0.2,0.4c0,0,0,0.1,0,0.1c0,0.1,0,0.1,0,0.2H69.3z M31.2,40.2 h12.6l5.7,14.6h-2.8c-0.8,0-1.6-0.1-2.4-0.2L31.2,40.2z M78.3,55.6c1.5-0.7,3.3,0,3.9,1.5c0.7,1.5,0.1,3.2-1.4,4L60.7,71.3 c-6.1,3.1-13.4,3.5-19.8,1.1l-12.2-4.6V52.1h0.2c2.9,0,5.8,0.8,8.4,2.2c2.9,1.6,6.1,2.5,9.4,2.5h9.5c1.7,0,3.1,1.4,3.1,3.1 c0,1-0.5,2-1.3,2.5c0,0-0.1,0-0.1,0.1c-0.5,0.3-1.1,0.5-1.7,0.5h-14c-0.6,0-1,0.4-1,1c0,0.6,0.4,1,1,1h14c1,0,2-0.3,2.8-0.9 L78.3,55.6z M61.2,61.1c0.1-0.4,0.1-0.7,0.1-1.1c0-0.1,0-0.2,0-0.2l7.5-19.5h12.6L63.9,59.8L61.2,61.1z"/><path fill="#1369f0" d="M19.6,50.6c-1.5,0-2.8,1.3-2.8,2.8c0,1.5,1.2,2.8,2.8,2.8c1.5,0,2.8-1.2,2.8-2.8 C22.4,51.9,21.1,50.6,19.6,50.6z"/></g></svg>