<svg xmlns="http://www.w3.org/2000/svg"  viewBox="0 0 95 95" width="66px" height="66px"><path fill="#e8f0fd" d="M83.3,81.7c-3.7,2-8.3,0.1-11.5-2.6c-3.2-2.7-7.1-7.7-10.4-10.2c-5.5-4.1-13.6-4.4-19.4-0.8 c-3.5,2.1-6.1,5.4-8.9,8.4c-2.8,3-6.1,5.8-10.1,6.5c-4.8,0.9-9.9-1.5-12.6-5.6c-2.7-4-3.2-9.3-1.8-14c1.5-4.6,4.8-8.6,8.8-11.3 c3.5-2.4,8-4.6,8.6-8.7c0.5-3.6-2-6.2-3.4-9.3c-1.4-3-2.3-6.3-2.7-9.6c-0.3-2.4-0.3-4.9,0.9-6.9c2.1-3.5,7.4-4.1,11-2 s5.7,6,7,9.9c0.5,1.5,0.9,3,1.7,4.3c0.8,1.3,2,2.5,3.5,2.8c1.6,0.3,3.3-0.4,4.5-1.6c1.9-1.9,2.6-4.8,3.9-7.2 c1.5-2.6,3.2-5.2,5.4-7.3c3-2.8,6.9-4.7,11-4.6c4.1,0.1,8.2,2.6,9.6,6.4c1.4,3.8,0,8-2.2,11.4c-2.2,3.4-5.2,6.2-7.4,9.5 c-2.3,3.3-3.8,7.5-2.7,11.3c1.7,3.1,4.9,4.1,8.6,7.1c3.7,3,9.2,7.3,11.3,11.5C88.1,73.4,87.5,79.4,83.3,81.7z"/><path fill="#e8f0fd" d="M87.1,45.5c-0.1,0.4-0.6,0.6-0.9,0.4l-1-0.4l-0.4,1c-0.1,0.4-0.6,0.6-0.9,0.4c-0.4-0.1-0.6-0.6-0.4-0.9 l0.4-1l-1-0.4c-0.4-0.1-0.6-0.6-0.4-0.9c0.1-0.4,0.6-0.6,0.9-0.4l1,0.4l0.4-1c0.1-0.4,0.6-0.6,0.9-0.4c0.4,0.1,0.6,0.6,0.4,0.9 l-0.4,1l1,0.4C87.1,44.7,87.3,45.1,87.1,45.5z"/><path fill="#e8f0fd" d="M10.3,40.6c0,0.4-0.3,0.7-0.7,0.8l-1.1,0l0,1.1c0,0.4-0.3,0.7-0.7,0.7c-0.4,0-0.7-0.3-0.7-0.7l0-1.1l-1.1,0 c-0.4,0-0.7-0.3-0.7-0.7C5.3,40.4,5.6,40,6,40l1.1,0l0-1.1c0-0.4,0.3-0.7,0.7-0.7c0.4,0,0.7,0.3,0.8,0.7l0,1.1l1.1,0 C10,39.9,10.3,40.2,10.3,40.6z"/><path fill="#fff" d="M48.9,61.1H35c1.2,2.9,0.4,7.1-3.2,10h20.3C48.5,68.2,47.7,64,48.9,61.1z"/><path fill="#e8eff8" d="M52.1,71.1H34.6c5.7,0,10.3-4.4,10.7-10h3.6C47.7,64,48.5,68.2,52.1,71.1z" opacity=".5"/><path fill="#fff" d="M55.9,72L55.9,72c0-1.2-0.9-2.1-2.1-2.1H30.1C29,69.9,28,70.9,28,72v0c0,1.2,0.9,2.1,2.1,2.1h23.6 C54.9,74.1,55.9,73.2,55.9,72z"/><path fill="#fff" d="M55.9,72L55.9,72c0-1.2-0.9-2.1-2.1-2.1H30.1C29,69.9,28,70.9,28,72v0c0,1.2,0.9,2.1,2.1,2.1h23.6 C54.9,74.1,55.9,73.2,55.9,72z"/><path fill="#fff" d="M55.9,72L55.9,72c0-1.2-0.9-2.1-2.1-2.1H30.1C29,69.9,28,70.9,28,72v0c0,1.2,0.9,2.1,2.1,2.1h23.6 C54.9,74.1,55.9,73.2,55.9,72z"/><path fill="#fff" d="M55.9,72L55.9,72c0-1.2-0.9-2.1-2.1-2.1H30.1C29,69.9,28,70.9,28,72v0c0,1.2,0.9,2.1,2.1,2.1h23.6 C54.9,74.1,55.9,73.2,55.9,72z"/><path fill="#fff" d="M70.4,24v35.5c0,0.1,0,0.2,0,0.2v0c0,0,0,0.1,0,0.1c0,0.1,0,0.2,0,0.2c0,0,0,0,0,0.1c0,0.1,0,0.1-0.1,0.2 c0,0,0,0,0,0c0,0,0,0.1,0,0.1s0,0.1,0,0.1c0,0,0,0,0,0.1c0,0,0,0,0,0.1c0,0,0,0,0,0c0,0.1-0.1,0.2-0.1,0.3c0,0,0,0,0,0l0,0 c0,0.1-0.1,0.1-0.1,0.2c0,0,0,0,0,0.1l-0.2,0.1c0,0-0.1,0.1-0.1,0.1c0,0,0,0-0.1,0.1c0,0-0.1,0.1-0.1,0.1 c-0.1,0-0.1,0.1-0.1,0.1c0,0,0,0,0,0c0,0,0,0-0.1,0c0,0,0,0,0,0c0,0-0.1,0-0.2,0.1c0,0-0.1,0-0.1,0c0,0,0,0-0.1,0c0,0,0,0,0,0 c-0.1,0-0.1,0.1-0.2,0.1c0,0-0.1,0-0.2,0c0,0,0,0,0,0c0,0-0.1,0-0.1,0c0,0,0,0,0,0c-0.1,0-0.2,0-0.3,0H16.1 c-0.4,0-0.9-0.1-1.2-0.3c-0.1-0.1-0.2-0.1-0.3-0.2c0,0,0,0,0,0c-0.1-0.1-0.2-0.1-0.3-0.2l0,0c-0.1-0.1-0.1-0.1-0.2-0.2 c0,0,0,0,0,0l0,0c0-0.1-0.1-0.1-0.1-0.2c-0.2-0.3-0.3-0.6-0.4-0.9c0,0,0-0.1,0-0.1c0-0.1,0-0.1,0-0.1c0-0.1,0-0.2,0-0.3V24 c0-0.7,0.3-1.4,0.8-1.8c0.5-0.5,1.1-0.8,1.8-0.8h51.7c0.7,0,1.4,0.3,1.8,0.8c0,0.1,0.1,0.1,0.2,0.2C70.1,22.8,70.4,23.4,70.4,24 z"/><path fill="#fff" d="M70.4,55.6v3.9c0,0.1,0,0.2,0,0.2v0c0,0,0,0.1,0,0.1c0,0.1,0,0.2,0,0.2c0,0,0,0,0,0.1c0,0,0,0,0,0.1 c0,0,0,0.1,0,0.1c0,0,0,0,0,0c0,0,0,0,0,0.1c0,0,0,0,0,0.1c0,0,0,0,0,0.1c0,0,0,0,0,0.1c0,0,0,0,0,0c0,0.1-0.1,0.2-0.1,0.2 c0,0,0,0,0,0c0,0,0,0,0,0c0,0.1-0.1,0.1-0.1,0.2c0,0,0,0,0,0l-0.1,0.1c0,0-0.1,0.1-0.1,0.1c-0.1,0-0.1,0.1-0.2,0.1c0,0,0,0,0,0 c0,0-0.1,0.1-0.1,0.1c0,0,0,0,0,0c0,0,0,0,0,0c0,0-0.1,0-0.1,0.1c0,0-0.1,0-0.1,0c0,0,0,0-0.1,0c0,0,0,0,0,0c0,0,0,0,0,0 c-0.1,0-0.1,0-0.2,0.1c-0.1,0-0.1,0-0.2,0c0,0,0,0,0,0c0,0,0,0-0.1,0c0,0-0.1,0-0.1,0c-0.1,0-0.1,0-0.2,0H16.1 c-0.1,0-0.2,0-0.3,0l-0.2,0c-0.2,0-0.3-0.1-0.5-0.1c-0.1,0-0.2-0.1-0.3-0.1c-0.1,0-0.2-0.1-0.3-0.2c0,0,0,0,0,0v0c0,0,0,0,0,0 c-0.1-0.1-0.2-0.1-0.2-0.2l0,0c-0.1-0.1-0.1-0.1-0.2-0.2c0,0,0,0,0,0c0,0,0,0,0,0h0c0-0.1-0.1-0.1-0.1-0.2 c-0.2-0.2-0.3-0.5-0.3-0.8c0,0,0-0.1,0-0.1c0,0,0-0.1,0-0.1c0,0,0-0.1,0-0.1c0-0.1,0-0.2,0-0.3v-3.9H70.4z"/><path fill="#cedbf0" d="M70.4,47.1v12.5c0,0.1,0,0.2,0,0.2v0c0,0,0,0.1,0,0.1c0,0.1,0,0.2,0,0.2c0,0,0,0,0,0.1 c0,0.1,0,0.1-0.1,0.2c0,0,0,0,0,0c0,0,0,0.1,0,0.1s0,0.1,0,0.1c0,0,0,0,0,0.1c0,0,0,0,0,0.1c0,0,0,0,0,0 c0,0.1-0.1,0.2-0.1,0.3c0,0,0,0,0,0l0,0c0,0.1-0.1,0.1-0.1,0.2c0,0,0,0,0,0.1l-0.2,0.1c0,0-0.1,0.1-0.1,0.1c0,0,0,0-0.1,0.1 c0,0-0.1,0.1-0.1,0.1c-0.1,0-0.1,0.1-0.1,0.1c0,0,0,0,0,0c0,0,0,0-0.1,0c0,0,0,0,0,0c0,0-0.1,0-0.2,0.1c0,0-0.1,0-0.1,0 c0,0,0,0-0.1,0c0,0,0,0,0,0c-0.1,0-0.1,0.1-0.2,0.1c0,0-0.1,0-0.2,0c0,0,0,0,0,0c0,0-0.1,0-0.1,0c0,0,0,0,0,0 c-0.1,0-0.2,0-0.3,0H54.3c0-8.3,6.8-15,15.1-15C69.7,47,70.1,47,70.4,47.1z" opacity=".3"/><path fill="#fff" d="M55.9,72L55.9,72c0-1.2-0.9-2.1-2.1-2.1H30.1C29,69.9,28,70.9,28,72v0c0,1.2,0.9,2.1,2.1,2.1h23.6 C54.9,74.1,55.9,73.2,55.9,72z"/><path fill="#fff" d="M55.9,72L55.9,72c0-1.2-0.9-2.1-2.1-2.1H30.1C29,69.9,28,70.9,28,72v0c0,1.2,0.9,2.1,2.1,2.1h23.6 C54.9,74.1,55.9,73.2,55.9,72z"/><path fill="#e8f0fd" d="M50.6,44.3c-0.4,0-0.8-0.4-0.8-0.8v-3.5c0-4.3-3.5-7.8-7.8-7.8c-4.3,0-7.8,3.5-7.8,7.8v3.5 c0,0.4-0.4,0.8-0.8,0.8c-0.4,0-0.8-0.4-0.8-0.8v-3.5c0-5.2,4.2-9.4,9.4-9.4c5.2,0,9.4,4.2,9.4,9.4v3.5 C51.3,43.9,51,44.3,50.6,44.3z"/><path fill="#e8f0fd" d="M37.5,42.5v4.7c0,0.4-0.4,0.8-0.8,0.8H35c-0.4,0-0.8-0.4-0.8-0.8v-4.7c0-0.4,0.4-0.8,0.8-0.8h1.7 C37.2,41.7,37.5,42,37.5,42.5z"/><path fill="#1369f0" d="M43.9,51.5c-0.5,0-0.9,0-1.3-0.1c-0.5,0-0.9-0.5-0.8-1c0-0.5,0.5-0.9,1-0.8c1.1,0.1,1.9,0,2.8-0.2 c0.4-0.1,0.9-0.2,1.2-0.5c0.2-0.2,0.3-0.5,0.4-0.9c0.1-0.4,0.1-0.9,0-1.4c0-0.5,0.4-0.9,0.9-1c0.5,0,0.9,0.4,1,0.9 c0,0.5,0,1.1-0.1,1.8c-0.1,0.8-0.5,1.4-1,1.9c-0.6,0.6-1.4,0.8-2.1,0.9C45.1,51.4,44.9,51.5,43.9,51.5z"/><path fill="#e8f0fd" d="M46.4,42.5v4.7c0,0.4,0.4,0.8,0.8,0.8h1h0.7c0.4,0,0.8-0.4,0.8-0.8v-4.7c0-0.4-0.4-0.8-0.8-0.8h-1.7 C46.7,41.7,46.4,42,46.4,42.5z"/><g><path fill="#e8f0fd" d="M43.7,50.4c0,0.9-1.1,1.7-2.6,1.7c-1.4,0-2.6-0.8-2.6-1.7s1.1-1.7,2.6-1.7C42.6,48.7,43.7,49.5,43.7,50.4z"/></g><g><path fill="#fff" d="M81.5,62.1c0,6.7-5.4,12.1-12.1,12.1c-6.7,0-12.1-5.4-12.1-12.1c0-6.7,5.4-12.1,12.1-12.1 C76.1,50,81.5,55.4,81.5,62.1z"/><path fill="#e8f0fd" d="M81.5,62.1c0,6.7-5.4,12.1-12.1,12.1c-0.4,0-0.9,0-1.3-0.1c6-0.7,10.8-5.8,10.8-12c0-6.2-4.7-11.3-10.8-12 c0.4,0,0.9-0.1,1.3-0.1C76.1,50,81.5,55.4,81.5,62.1z"/></g><g><path fill="#1369f0" d="M85.9,30.5c0.4-0.1,0.6-0.5,0.6-0.9l-0.2-1l1-0.2c0.4-0.1,0.6-0.5,0.5-0.9c-0.1-0.4-0.5-0.6-0.9-0.5l-1,0.2 l-0.2-1c-0.1-0.4-0.5-0.6-0.9-0.5c-0.4,0.1-0.6,0.5-0.5,0.9l0.2,1l-1,0.2c-0.4,0.1-0.6,0.5-0.5,0.9c0.1,0.4,0.5,0.6,0.9,0.6 l1-0.2l0.2,1C85.1,30.3,85.5,30.6,85.9,30.5z"/><path fill="#1369f0" d="M49.2,77.7l-1.1,0l0-1.1c0-0.4-0.3-0.7-0.8-0.7c-0.4,0-0.7,0.3-0.7,0.7l0,1.1l-1.1,0 c-0.4,0-0.7,0.3-0.7,0.7c0,0.4,0.3,0.7,0.7,0.7l1.1,0l0,1.1c0,0.4,0.3,0.7,0.7,0.7c0.4,0,0.7-0.3,0.7-0.7l0-1.1l1.1,0 c0.4,0,0.7-0.3,0.7-0.8C50,78,49.6,77.7,49.2,77.7z"/><path fill="#1369f0" d="M5.6,73.1l-3.1,0h0c-0.6,0-1,0.4-1,1c0,0.6,0.4,1,1,1l3.1,0c0,0,0,0,0,0c0.6,0,1-0.4,1-1 C6.6,73.5,6.2,73.1,5.6,73.1z"/><path fill="#1369f0" d="M92.5,73.2c-0.1,0-6.4,0-6.3,0c-0.6,0-1,0.4-1,1s0.4,1,1,1l6.3,0c0,0,0,0,0,0c0.6,0,1-0.4,1-1 S93.1,73.2,92.5,73.2z"/><path fill="#1369f0" d="M42,57.3c-0.9,0-1.5,0.7-1.5,1.5s0.7,1.5,1.5,1.5c0.9,0,1.5-0.7,1.5-1.5S42.8,57.3,42,57.3z"/><path fill="#1369f0" d="M32.5,43.5v2.6c0,0.4,0.4,0.8,0.8,0.8h0.8v-4.2h-0.8C32.9,42.7,32.5,43.1,32.5,43.5z"/><path fill="#1369f0" d="M50.6,42.7h-0.8v4.2h0.8c0.4,0,0.8-0.4,0.8-0.8v-2.6C51.4,43.1,51,42.7,50.6,42.7z"/><path fill="#1369f0" d="M50.1,33.7c-1.9-2.6-4.9-4-8.2-4c0,0,0,0,0,0c-3.3,0-6.3,1.5-8.2,4c-0.6,0.7-0.4,1.8,0.3,2.3 c0.7,0.6,1.8,0.4,2.3-0.3c1.3-1.7,3.3-2.7,5.5-2.7h0c2.2,0,4.2,1,5.5,2.7c0.6,0.7,1.6,0.9,2.3,0.3 C50.6,35.5,50.7,34.5,50.1,33.7z"/><path fill="#1369f0" d="M82.5,62.1c0-6.5-4.8-12-11.1-12.9V24c0-0.8-0.3-1.6-0.8-2.3c0,0-0.1-0.1-0.1-0.1l-0.1-0.1 c-0.7-0.7-1.6-1.1-2.5-1.1H16.1c-1,0-1.9,0.4-2.5,1.1c-0.7,0.7-1,1.6-1,2.5c0,13.8,0,29.4,0,35.5c0,1.3,0.7,2.4,1.7,3 c0.5,0.3,1.2,0.5,1.9,0.5h18.3c0.2,1.8-0.3,4-1.9,5.9h-2.4c-1.7,0-3.1,1.4-3.1,3.1c0,0.4,0.1,0.7,0.2,1.1l-15.2,0h0 c-0.6,0-1,0.4-1,1c0,0.6,0.4,1,1,1c13.9,0,47.2,0,68.6,0.1c0.6,0,1-0.4,1-1c0-0.6-0.4-1-1-1l-4.3,0C80,70.8,82.5,66.7,82.5,62.1 z M15,22.9c0.2-0.2,0.6-0.5,1.1-0.5h51.7c0.5,0,0.9,0.3,1.2,0.5L69,23c0.2,0.3,0.4,0.6,0.4,1l0,25c-1,0-2.1,0.1-3,0.4V26.2 c0-0.6-0.4-1-1-1H18.5c-0.6,0-1,0.4-1,1v28.3h-3V24C14.5,23.6,14.7,23.2,15,22.9z M56.4,61.1H16.1c-0.1,0-0.1,0-0.1,0 c-0.1-0.1-1.4-0.2-1.4-1.6v-2.9h43C56.9,58,56.5,59.5,56.4,61.1z M58.7,54.6H19.5V27.2h44.8V50C62.1,51,60.1,52.6,58.7,54.6z M36.4,63.1h11c-0.1,1.8,0.3,3.9,1.5,5.9H35C36.2,67,36.6,64.9,36.4,63.1z M29,72c0-0.6,0.5-1.1,1.1-1.1h23.6 c0.6,0,1.1,0.5,1.1,1.1c0,0.6-0.4,1-1,1.1l-23.9,0C29.4,73,29,72.6,29,72z M56.7,73.1c0.1-0.3,0.2-0.7,0.2-1.1 c0-1.7-1.4-3.1-3.1-3.1h-2.4c-1.6-1.9-2.1-4-1.9-5.9h6.9c0.3,4.2,2.7,7.9,6.1,10L56.7,73.1z M69.8,73.1l-0.8,0 c-5.9-0.2-10.7-5.1-10.7-11c0-6.1,5-11.1,11.1-11.1c6.1,0,11.1,5,11.1,11.1C80.5,68.1,75.7,72.9,69.8,73.1z"/><path fill="#1369f0" d="M72.7,58.3c-0.1,0.1-0.2,0.2-0.2,0.3L70,65.8c0,0.1,0,0.2,0,0.2c0,0.2,0.1,0.3,0.2,0.4 c0.1,0.1,0.3,0.2,0.5,0.2c0.2,0,0.3,0,0.4-0.1c0.1-0.1,0.2-0.2,0.2-0.3l2.5-7.2c0-0.1,0-0.2,0-0.2c0-0.2-0.1-0.3-0.2-0.4 C73.4,58.1,73,58.1,72.7,58.3z"/><path fill="#1369f0" d="M63.2,61.4c0.4-0.3,0.8-0.5,1.1-0.7c0.3-0.2,0.5-0.5,0.7-0.8c0.2-0.3,0.3-0.7,0.3-1.1c0-0.4-0.1-0.7-0.3-1 c-0.4-0.6-1.1-0.9-1.9-0.9c-0.7,0-1.4,0.2-2,0.5c-0.2,0.1-0.3,0.3-0.3,0.5c0,0.2,0.1,0.3,0.2,0.4c0.2,0.2,0.5,0.2,0.7,0.1 c0.4-0.2,0.9-0.3,1.3-0.3c0.4,0,0.7,0.1,0.8,0.2c0.2,0.1,0.2,0.3,0.2,0.6c0,0.1,0,0.3-0.1,0.4c-0.1,0.2-0.3,0.3-0.4,0.4 c-0.2,0.1-0.5,0.3-0.8,0.5c-0.4,0.3-0.7,0.5-1,0.7c-0.3,0.2-0.5,0.4-0.7,0.7c-0.2,0.3-0.3,0.6-0.3,0.9c0,0.2,0.1,0.4,0.2,0.5 c0.1,0.1,0.3,0.2,0.5,0.2h3.2c0.2,0,0.3-0.1,0.4-0.2c0.1-0.1,0.2-0.3,0.2-0.4c0-0.2-0.1-0.3-0.2-0.4l0,0 c-0.1-0.1-0.3-0.2-0.4-0.2h-2.3c0,0,0,0,0,0C62.6,61.9,62.9,61.7,63.2,61.4z"/><path fill="#1369f0" d="M70.8,61.7c0.1-0.1,0.2-0.3,0.2-0.4c0-0.2-0.1-0.3-0.2-0.4c-0.1-0.1-0.3-0.2-0.4-0.2H70v-3 c0-0.2-0.1-0.4-0.2-0.5c-0.1-0.1-0.3-0.2-0.5-0.2h-0.2c-0.1,0-0.2,0-0.4,0.1c-0.1,0.1-0.2,0.1-0.3,0.2l-2.6,3.3 c-0.1,0.1-0.2,0.3-0.2,0.5v0.1c0,0.2,0.1,0.4,0.2,0.5c0.1,0.1,0.3,0.2,0.5,0.2h2.3v0.9c0,0.2,0.1,0.3,0.2,0.5 c0.1,0.1,0.3,0.2,0.5,0.2c0.2,0,0.3-0.1,0.5-0.2c0.1-0.1,0.2-0.3,0.2-0.5v-0.9h0.4C70.5,61.8,70.7,61.8,70.8,61.7z M68.7,60.6 h-1.4l1.4-1.8V60.6z"/><path fill="#1369f0" d="M78.4,61.5c-0.1-0.1-0.3-0.2-0.5-0.2h-3.4c-0.2,0-0.3,0.1-0.4,0.2c-0.1,0.1-0.2,0.3-0.2,0.4 c0,0.2,0.1,0.3,0.2,0.4c0.1,0.1,0.3,0.2,0.4,0.2h2.6L75,66.8c-0.1,0.1-0.1,0.2-0.1,0.3c0,0.2,0.1,0.3,0.2,0.5 c0.2,0.2,0.5,0.2,0.8,0.1c0.1-0.1,0.2-0.1,0.3-0.3l2.4-4.8l0,0c0.1-0.2,0.1-0.3,0.1-0.5C78.6,61.8,78.5,61.7,78.4,61.5z"/></g></svg>