<svg xmlns="http://www.w3.org/2000/svg"  viewBox="0 0 95 95" width="66px" height="66px"><path fill="#e8f0fd" d="M88.8,47.7c0,4.9-4.2,8.9-8.7,10.5c-4.5,1.6-9.5,1.5-14.3,2C61,60.6,55.4,65.1,52,68.6 c-2.2,2.3-3.3,5.4-4.9,8.2c-1.6,2.8-3.8,5.5-6.9,6.2c-3.4,0.7-6.9-1.5-8.9-4.3c-2-2.9-2.9-6.4-3.9-9.8c-1-3.4-1.5-10.1-3.9-12.7 c-2.1-2.2-4.9-3.6-7.6-5c-2.7-1.4-5.5-2.9-7.2-5.4c-1.8-2.5-2.3-6.1-0.4-8.5c2.4-3,6.8-2.6,10.6-2.9c7.1-0.6,13.7-4.9,17.3-11 c1.3-2.3,2.2-4.8,3.7-7.1c1.5-2.2,3.6-4.2,6.3-4.5c3.7-0.4,6.8,2.6,9.4,5.3c4.9,5.2,9.6,11.8,16,15.2 C77.8,35.7,88.8,38.7,88.8,47.7z"/><path fill="#e8f0fd" d="M10.7,66.5c0.2,0.4,0,0.8-0.4,1l-1,0.4l0.4,1c0.2,0.4,0,0.8-0.4,0.9c-0.4,0.1-0.8,0-0.9-0.4l-0.4-1l-1,0.4 c-0.4,0.2-0.8,0-0.9-0.4c-0.1-0.4,0-0.8,0.4-0.9l1-0.4l-0.4-1c-0.1-0.4,0-0.8,0.4-0.9c0.4-0.2,0.8,0,1,0.4l0.4,1l1-0.4 C10.1,66,10.5,66.2,10.7,66.5z"/><path fill="#fff" d="M47.9,60.8H32.7c1.3,3.2,0.4,7.7-3.5,10.8h22.1C47.4,68.5,46.6,64,47.9,60.8z"/><path fill="#e8eff8" d="M51.3,71.6h-19c6.2,0,11.2-4.8,11.6-10.8h3.9C46.6,64,47.4,68.5,51.3,71.6z" opacity=".5"/><path fill="#fff" d="M55.4,72.7L55.4,72.7c0-1.3-1-2.3-2.3-2.3H27.4c-1.3,0-2.3,1-2.3,2.3v0c0,1.3,1,2.3,2.3,2.3h25.7 C54.4,75,55.4,73.9,55.4,72.7z"/><path fill="#fff" d="M55.4,72.7L55.4,72.7c0-1.3-1-2.3-2.3-2.3H27.4c-1.3,0-2.3,1-2.3,2.3v0c0,1.3,1,2.3,2.3,2.3h25.7 C54.4,75,55.4,73.9,55.4,72.7z"/><path fill="#fff" d="M55.4,72.7L55.4,72.7c0-1.3-1-2.3-2.3-2.3H27.4c-1.3,0-2.3,1-2.3,2.3v0c0,1.3,1,2.3,2.3,2.3h25.7 C54.4,75,55.4,73.9,55.4,72.7z"/><path fill="#fff" d="M55.4,72.7L55.4,72.7c0-1.3-1-2.3-2.3-2.3H27.4c-1.3,0-2.3,1-2.3,2.3v0c0,1.3,1,2.3,2.3,2.3h25.7 C54.4,75,55.4,73.9,55.4,72.7z"/><path fill="#fff" d="M71.2,20.5V59c0,0,0,0.1,0,0.1c0,0,0,0.1,0,0.1v0c0,0,0,0.1,0,0.1c0,0,0,0,0,0c0,0.1,0,0.2,0,0.2 c0,0,0,0,0,0.1c0,0,0,0.1,0,0.1c0,0,0,0,0,0c0,0,0,0,0,0s0,0,0,0c0,0,0,0,0,0s0,0,0,0c0,0,0,0,0,0c0,0,0,0,0,0c0,0,0,0,0,0.1 c0,0,0,0,0,0.1c0,0,0,0,0,0c0,0,0,0.1-0.1,0.1c0,0,0,0.1-0.1,0.1c0,0,0,0,0,0c0,0,0,0,0,0c0,0,0,0,0,0c0,0.1-0.1,0.1-0.1,0.2 c0,0,0,0,0,0c0,0,0,0,0,0.1l-0.2,0.2c0,0-0.1,0.1-0.1,0.1c0,0,0,0-0.1,0.1c0,0-0.1,0.1-0.1,0.1c0,0,0,0,0,0 c-0.1,0-0.1,0.1-0.1,0.1c0,0,0,0,0,0h0c0,0,0,0,0,0c0,0,0,0,0,0c0,0-0.1,0-0.1,0c0,0,0,0,0,0c0,0,0,0-0.1,0c0,0,0,0-0.1,0 c0,0,0,0,0,0c0,0,0,0-0.1,0c0,0,0,0,0,0c-0.1,0-0.1,0.1-0.2,0.1c0,0-0.1,0-0.2,0c0,0,0,0,0,0h0c0,0,0,0,0,0h0c0,0,0,0-0.1,0 c-0.1,0-0.2,0-0.3,0H12.2c-0.5,0-0.9-0.1-1.3-0.3c-0.1-0.1-0.2-0.1-0.3-0.2h0c0,0,0,0,0,0h0c-0.1,0-0.1-0.1-0.1-0.1 c0,0-0.1-0.1-0.1-0.1h0v0c0,0-0.1-0.1-0.1-0.1c0,0-0.1-0.1-0.1-0.1c0,0,0,0,0,0l0,0c0,0,0-0.1-0.1-0.1c0,0,0-0.1-0.1-0.1 c-0.2-0.3-0.3-0.5-0.4-0.8c0,0,0,0,0,0c0,0,0-0.1,0-0.1c0,0,0-0.1,0-0.1c0-0.1,0-0.1,0-0.2c0,0,0-0.1,0-0.1c0,0,0,0,0-0.1 c0,0,0-0.1,0-0.1V20.5c0-0.8,0.3-1.5,0.8-2c0.5-0.5,1.2-0.8,2-0.8h56.2c0.8,0,1.5,0.3,2,0.8c0.1,0.1,0.1,0.1,0.2,0.2 C70.9,19.2,71.2,19.8,71.2,20.5z"/><path fill="#e8f0fd" d="M71.2,20.5V59c0,0.1,0,0.2,0,0.3v0c0,0,0,0.1,0,0.1c0,0.1,0,0.2,0,0.2c0,0,0,0.1,0,0.1 c0,0.1-0.1,0.1-0.1,0.2c0,0,0,0,0,0.1c0,0,0,0.1,0,0.1c0,0,0,0.1,0,0.1c0,0,0,0,0,0.1c0,0,0,0.1-0.1,0.1c0,0,0,0,0,0 c-0.1,0.1-0.1,0.2-0.2,0.3c0,0,0,0,0,0l0,0c-0.1,0.1-0.1,0.1-0.1,0.2c0,0,0,0-0.1,0.1l-0.2,0.2c0,0.1-0.1,0.1-0.1,0.1 c0,0-0.1,0-0.1,0.1c-0.1,0.1-0.1,0.1-0.1,0.1c-0.1,0-0.1,0.1-0.2,0.1c0,0,0,0,0,0c0,0,0,0-0.1,0c0,0,0,0,0,0 c-0.1,0-0.1,0.1-0.2,0.1c0,0-0.1,0-0.1,0.1c0,0-0.1,0-0.1,0c0,0,0,0,0,0c-0.1,0-0.2,0.1-0.2,0.1c-0.1,0-0.1,0-0.2,0.1 c0,0,0,0-0.1,0c0,0-0.1,0-0.1,0c0,0,0,0-0.1,0c-0.1,0-0.2,0-0.3,0h-3.2c0.1,0,0.2,0,0.3,0c0,0,0,0,0.1,0c0,0,0.1,0,0.1,0 c0,0,0,0,0.1,0c0.1,0,0.1,0,0.2-0.1c0.1,0,0.2,0,0.2-0.1c0,0,0,0,0,0c0,0,0.1,0,0.1,0c0,0,0.1,0,0.1-0.1c0.1,0,0.1,0,0.2-0.1 c0,0,0,0,0,0c0,0,0,0,0.1,0c0,0,0,0,0,0c0-0.1,0.1-0.1,0.2-0.1c0.1,0,0.1-0.1,0.1-0.1c0,0,0.1,0,0.1-0.1c0,0,0.1-0.1,0.1-0.1 l0.2-0.2c0,0,0,0,0.1-0.1c0.1-0.1,0.1-0.1,0.1-0.2l0,0c0,0,0,0,0,0c0.1-0.1,0.1-0.2,0.2-0.3c0,0,0,0,0,0c0,0,0-0.1,0.1-0.1 c0,0,0,0,0-0.1c0,0,0-0.1,0-0.1c0,0,0,0,0-0.1c0,0,0,0,0-0.1c0-0.1,0-0.1,0.1-0.2c0,0,0-0.1,0-0.1c0-0.1,0-0.2,0-0.2 c0-0.1,0-0.1,0-0.1v0c0-0.1,0-0.2,0-0.3V20.5c0-0.7-0.2-1.3-0.6-1.8c-0.1-0.1-0.1-0.1-0.2-0.2c-0.5-0.5-1.2-0.8-2-0.8h3.2 c0.8,0,1.5,0.3,2,0.8c0.1,0.1,0.1,0.1,0.2,0.2C70.9,19.2,71.2,19.8,71.2,20.5z"/><path fill="#fff" d="M71.2,54.8v4.4c0,0,0,0.1,0,0.1v0c0,0,0,0.1,0,0.1c0,0,0,0,0,0c0,0.1,0,0.2-0.1,0.2c0,0,0,0,0,0.1 c0,0,0,0.1,0,0.1c0,0,0,0,0,0.1c0,0,0,0,0,0c0,0,0,0,0,0s0,0,0,0c0,0,0,0,0,0.1c0,0,0,0,0,0c0,0,0,0,0,0c0,0,0,0.1,0,0.1 c0,0,0,0.1,0,0.1c0,0,0,0,0,0c0,0,0,0.1-0.1,0.1c0,0-0.1,0.1-0.1,0.1c0,0,0,0,0,0c0,0,0,0,0,0c0,0,0,0,0,0c0,0-0.1,0.1-0.1,0.2 c0,0,0,0,0,0c0,0,0,0,0,0.1l-0.2,0.2c0,0-0.1,0.1-0.1,0.1c-0.1,0-0.1,0.1-0.2,0.1c0,0,0,0,0,0c0,0,0,0,0,0c0,0-0.1,0.1-0.1,0.1 h0c0,0,0,0,0,0c0,0,0,0,0,0c0,0-0.1,0-0.1,0c0,0,0,0,0,0c0,0,0,0-0.1,0c0,0,0,0-0.1,0c0,0,0,0,0,0c0,0,0,0,0,0c0,0,0,0,0,0 c0,0,0,0,0,0c-0.1,0-0.1,0.1-0.2,0.1c-0.1,0-0.2,0-0.2,0.1c0,0,0,0,0,0c0,0,0,0,0,0c0,0,0,0-0.1,0c0,0-0.1,0-0.1,0 c-0.1,0-0.2,0-0.2,0H12.2c-0.1,0-0.2,0-0.3,0l-0.2,0c-0.2,0-0.3-0.1-0.5-0.2c-0.1,0-0.2-0.1-0.3-0.1c-0.1-0.1-0.2-0.1-0.3-0.2h0 c0,0,0,0,0,0v0c0,0,0,0,0,0c0,0-0.1-0.1-0.1-0.1c0,0-0.1-0.1-0.1-0.1l0,0c0,0-0.1-0.1-0.1-0.1c0,0-0.1-0.1-0.1-0.1c0,0,0,0,0,0 c0,0,0,0,0,0h0c0,0,0-0.1-0.1-0.1c0,0,0-0.1-0.1-0.1c-0.2-0.3-0.3-0.5-0.4-0.8c0,0,0,0,0,0c0,0,0-0.1,0-0.1c0,0,0-0.1,0-0.1 c0-0.1,0-0.1,0-0.2c0,0,0-0.1,0-0.1c0,0,0,0,0-0.1v-4.4H71.2z"/><path fill="#e8f0fd" d="M71.2,54.8V59c0,0.1,0,0.2,0,0.3v0c0,0,0,0.1,0,0.1c0,0.1,0,0.2-0.1,0.2c0,0,0,0.1,0,0.1c0,0,0,0.1,0,0.1 c0,0,0,0.1,0,0.1c0,0,0,0,0,0.1c0,0,0,0.1,0,0.1c0,0,0,0,0,0.1c0,0,0,0,0,0.1c0,0,0,0.1,0,0.1c0,0,0,0,0,0 c-0.1,0.1-0.1,0.2-0.2,0.3c0,0,0,0,0,0c0,0,0,0,0,0c-0.1,0.1-0.1,0.1-0.2,0.2c0,0,0,0,0,0.1l-0.2,0.2c0,0.1-0.1,0.1-0.1,0.1 c-0.1,0-0.1,0.1-0.2,0.1c0,0,0,0,0,0c-0.1,0-0.1,0.1-0.2,0.1c0,0,0,0-0.1,0c0,0,0,0,0,0c-0.1,0-0.1,0.1-0.2,0.1 c0,0-0.1,0-0.1,0.1c0,0,0,0-0.1,0c0,0,0,0,0,0c0,0,0,0,0,0c-0.1,0-0.2,0.1-0.2,0.1c-0.1,0-0.2,0-0.3,0.1c0,0,0,0-0.1,0 c0,0,0,0-0.1,0c0,0-0.1,0-0.1,0c-0.1,0-0.2,0-0.2,0h-3.6c0.1,0,0.2,0,0.2,0c0,0,0.1,0,0.1,0c0,0,0,0,0.1,0c0,0,0,0,0.1,0 c0.1,0,0.2,0,0.3-0.1c0.1,0,0.2,0,0.2-0.1c0,0,0,0,0,0c0,0,0,0,0,0c0,0,0.1,0,0.1,0c0,0,0.1,0,0.1-0.1c0.1,0,0.1,0,0.2-0.1 c0,0,0,0,0,0c0,0,0,0,0.1,0c0.1,0,0.1-0.1,0.2-0.1c0,0,0,0,0,0c0.1,0,0.1-0.1,0.2-0.1c0,0,0.1-0.1,0.1-0.1l0.2-0.2 c0,0,0,0,0-0.1c0.1-0.1,0.1-0.1,0.2-0.2c0,0,0,0,0,0c0,0,0,0,0,0c0.1-0.1,0.1-0.2,0.2-0.3c0,0,0,0,0,0c0,0,0-0.1,0-0.1 c0,0,0,0,0-0.1c0,0,0-0.1,0-0.1c0,0,0-0.1,0-0.1c0,0,0,0,0-0.1s0-0.1,0-0.1c0,0,0-0.1,0-0.1c0,0,0,0,0-0.1c0-0.1,0-0.2,0.1-0.2 c0,0,0-0.1,0-0.1v0c0-0.1,0-0.2,0-0.3v-4.3H71.2z"/><path fill="#cedbf0" d="M71.2,45.7V59c0,0,0,0.1,0,0.1c0,0,0,0.1,0,0.1v0c0,0,0,0.1,0,0.1c0,0,0,0,0,0c0,0.1,0,0.2,0,0.2 c0,0,0,0,0,0.1c0,0,0,0.1,0,0.1c0,0,0,0,0,0c0,0,0,0,0,0s0,0,0,0c0,0,0,0,0,0.1c0,0,0,0,0,0c0,0,0,0,0,0c0,0,0,0,0,0.1 c0,0,0,0,0,0.1c0,0,0,0,0,0c0,0,0,0.1-0.1,0.1c0,0,0,0.1-0.1,0.1c0,0,0,0,0,0c0,0,0,0,0,0c0,0,0,0,0,0c0,0.1-0.1,0.1-0.1,0.2 c0,0,0,0,0,0c0,0,0,0,0,0.1l-0.2,0.2c0,0-0.1,0.1-0.1,0.1c0,0,0,0-0.1,0.1c0,0-0.1,0.1-0.1,0.1c0,0,0,0,0,0 c-0.1,0-0.1,0.1-0.1,0.1c0,0,0,0,0,0h0c0,0,0,0,0,0c0,0,0,0,0,0c0,0-0.1,0-0.1,0c0,0,0,0,0,0c0,0,0,0-0.1,0c0,0,0,0-0.1,0 c0,0,0,0,0,0c0,0,0,0,0,0c0,0,0,0,0,0c0,0,0,0,0,0c-0.1,0-0.1,0.1-0.2,0.1c0,0-0.1,0-0.2,0c0,0,0,0,0,0h0c0,0,0,0,0,0 c0,0,0,0,0,0c0,0,0,0-0.1,0c0,0-0.1,0-0.1,0c-0.1,0-0.2,0-0.2,0H57.6l0,0c-0.3-0.9-0.4-1.8-0.2-2.8c0.3-1.2,1-2.2,2-2.9 l-0.9-1.4L56,50.6c-0.7-1.1-0.9-2.4-0.6-3.7c0.3-1.2,1.1-2.3,2.1-2.9c0.8-0.4,1.6-0.7,2.4-0.7c0.4,0,0.7,0,1.1,0.1 c1.2,0.3,2.3,1,2.9,2.1l1.1,1.8c0.4-0.1,0.8-0.2,1.3-0.2c0.2,0,0.4,0,0.6,0c0.1-0.1,0.3-0.2,0.4-0.3c0.8-0.5,1.6-0.7,2.5-0.7 c0.2,0,0.4,0,0.6,0c0.1-0.1,0.2-0.2,0.4-0.3C70.9,45.8,71,45.8,71.2,45.7z" opacity=".3"/><path fill="#fff" d="M55.4,72.7L55.4,72.7c0-1.3-1-2.3-2.3-2.3H27.4c-1.3,0-2.3,1-2.3,2.3v0c0,1.3,1,2.3,2.3,2.3h25.7 C54.4,75,55.4,73.9,55.4,72.7z"/><path fill="#e8f0fd" d="M55.4,72.7c0,1.3-1,2.3-2.3,2.3h-3.6c1.3,0,2.3-1,2.3-2.3c0-1.3-1-2.3-2.3-2.3h3.6 C54.4,70.4,55.4,71.4,55.4,72.7z"/><path fill="#fff" d="M29.2,39.9c0,2.2-1.8,4-4.1,4c-2.2,0-4-1.8-4-4s1.8-4.1,4-4.1C27.4,35.9,29.2,37.7,29.2,39.9z"/><path fill="#e8f0fd" d="M29.2,39.9c0,2.2-1.8,4.1-4,4.1c-0.4,0-0.9-0.1-1.3-0.2c1.6-0.5,2.8-2,2.8-3.9c0-1.8-1.2-3.3-2.8-3.8 c0.4-0.1,0.8-0.2,1.3-0.2C27.4,35.9,29.2,37.7,29.2,39.9z"/><path fill="#fff" d="M32.7,54.8c-0.1-4.1-3.4-7.4-7.6-7.4c-4.1,0-7.5,3.3-7.6,7.4H32.7z"/><path fill="#e8f0fd" d="M32.7,54.8h-3.3c-0.1-3.5-2.6-6.5-5.9-7.2c0.5-0.1,1.1-0.2,1.6-0.2C29.3,47.3,32.7,50.7,32.7,54.8z"/><path fill="#fff" d="M59.4,39.9c0,2.2-1.8,4-4.1,4c-2.2,0-4-1.8-4-4s1.8-4.1,4-4.1C57.6,35.9,59.4,37.7,59.4,39.9z"/><path fill="#e8f0fd" d="M59.4,39.9c0,2.2-1.8,4.1-4.1,4.1c-0.4,0-0.8-0.1-1.2-0.2c1.7-0.5,2.9-2.1,2.9-3.9c0-1.8-1.2-3.4-2.9-3.9 c0.4-0.1,0.8-0.2,1.2-0.2C57.6,35.9,59.4,37.7,59.4,39.9z"/><path fill="#fff" d="M63,54.8c-0.1-4.1-3.4-7.4-7.6-7.4c-4.1,0-7.5,3.3-7.6,7.4H63z"/><path fill="#e8f0fd" d="M63,54.8h-3.2c-0.1-3.6-2.6-6.5-5.9-7.2c0.5-0.1,1.1-0.2,1.6-0.2C59.5,47.3,62.9,50.7,63,54.8z"/><g><path fill="#fff" d="M45.7,36.4c0,3-2.4,5.4-5.4,5.4c-3,0-5.4-2.4-5.4-5.4c0-3,2.4-5.4,5.4-5.4C43.3,31,45.7,33.4,45.7,36.4z"/></g><g><path fill="#e8f0fd" d="M45.7,36.4c0,3-2.4,5.4-5.4,5.4c-0.5,0-1.1-0.1-1.6-0.2c2.2-0.7,3.9-2.7,3.9-5.2c0-2.4-1.6-4.5-3.9-5.2 c0.5-0.2,1-0.2,1.6-0.2C43.3,31,45.7,33.4,45.7,36.4z"/></g><g><path fill="#fff" d="M50.4,54.8c-0.1-5.5-4.6-9.9-10.1-9.9c-5.5,0-10,4.4-10.1,9.9H50.4z"/></g><g><path fill="#e8f0fd" d="M50.4,54.8h-3.7c-0.1-4.9-3.6-8.9-8.3-9.8c0.6-0.1,1.2-0.2,1.8-0.2C45.8,44.8,50.3,49.3,50.4,54.8z"/></g><g><path fill="#fff" d="M74.7,49l3.6,5.7c0.4,0.6,0.5,1.3,0.3,1.9c-0.2,0.6-0.1,1.3,0.3,1.9l1.1,1.8L71,66l-1.2-1.8 c-0.3-0.5-0.9-0.9-1.5-1l-6.7-1.4c-0.9-0.2-1.5-1.1-1.3-2c0.1-0.5,0.4-0.8,0.7-1.1c0.4-0.2,0.8-0.3,1.3-0.2l2.3,0.5l-6.1-9.9 c-0.5-0.8-0.3-2,0.5-2.5c0.4-0.2,0.8-0.3,1.3-0.2c0.4,0.1,0.8,0.4,1.1,0.8l3.4,5.6c-0.5-0.8-0.3-1.9,0.5-2.4 c0.4-0.3,0.9-0.3,1.3-0.2c0.4,0.1,0.8,0.4,1.1,0.8l0.6,0.9c-0.5-0.8-0.3-1.9,0.5-2.4c0.4-0.3,0.9-0.3,1.3-0.2 c0.4,0.1,0.8,0.4,1.1,0.8l0.6,0.9c-0.5-0.8-0.3-1.9,0.5-2.4c0.4-0.3,0.9-0.3,1.3-0.2C74.1,48.3,74.5,48.6,74.7,49z"/><path fill="#e8f0fd" d="M80,60.4L71,66l-0.3-0.5l7.4-4.7L77,59.1c-0.4-0.6-0.5-1.3-0.3-1.9c0.2-0.6,0.1-1.3-0.3-1.9l-3.6-5.7 c-0.2-0.4-0.6-0.6-0.9-0.7c0.1-0.2,0.3-0.3,0.4-0.4c0.4-0.3,0.9-0.3,1.3-0.2c0.4,0.1,0.8,0.4,1.1,0.8l3.6,5.7 c0.4,0.6,0.5,1.3,0.3,1.9c-0.2,0.6-0.1,1.3,0.3,1.9L80,60.4z"/><path fill="#fff" d="M75.3,75l9.5-6.4c0.8-0.5,1-1.7,0.5-2.5l-3.7-5.6c-0.3-0.5-0.9-0.6-1.4-0.3l-9.6,6 c-0.5,0.3-0.6,0.9-0.3,1.4L75.3,75z"/><path fill="#e8f0fd" d="M84.8,68.5l-9.5,6.4l-0.1-0.1l7.5-5c0.8-0.6,1-1.7,0.5-2.5l-3.7-5.6c-0.2-0.4-0.7-0.5-1.1-0.4l1.8-1.2 c0.5-0.3,1.1-0.2,1.4,0.3l3.7,5.6C85.9,66.9,85.6,68,84.8,68.5z"/></g><g><path fill="#1369f0" d="M83.7,17.3l1.1,0l0,1.1c0,0.4,0.3,0.7,0.7,0.8c0.4,0,0.7-0.3,0.8-0.7l0-1.1l1.1,0c0.4,0,0.7-0.3,0.8-0.7 c0-0.4-0.3-0.7-0.7-0.8l-1.1,0l0-1.1c0-0.4-0.3-0.7-0.7-0.8c-0.4,0-0.7,0.3-0.8,0.7l0,1.1l-1.1,0c-0.4,0-0.7,0.3-0.8,0.7 C83,16.9,83.3,17.2,83.7,17.3z"/><path fill="#1369f0" d="M80.3,47.7l1-0.4l0.4,1c0.2,0.4,0.6,0.6,0.9,0.4c0.4-0.2,0.6-0.6,0.4-0.9l-0.4-1l1-0.4 c0.4-0.1,0.6-0.6,0.4-1c-0.1-0.4-0.6-0.6-0.9-0.4l-1,0.4l-0.4-1c-0.1-0.4-0.6-0.6-1-0.4c-0.4,0.1-0.6,0.6-0.4,0.9l0.4,1l-1,0.4 c-0.4,0.2-0.6,0.6-0.4,0.9C79.5,47.6,80,47.8,80.3,47.7z"/><path fill="#1369f0" d="M59.9,78.6l-1,0.2l-0.2-1c-0.1-0.4-0.4-0.7-0.8-0.6c-0.4,0.1-0.7,0.4-0.6,0.8l0.2,1l-1,0.2 c-0.4,0.1-0.7,0.4-0.6,0.8c0.1,0.4,0.4,0.7,0.8,0.6l1-0.2l0.2,1c0.1,0.4,0.4,0.7,0.8,0.6c0.4-0.1,0.7-0.4,0.6-0.8l-0.2-1l1-0.2 c0.4-0.1,0.7-0.4,0.6-0.8C60.7,78.8,60.3,78.5,59.9,78.6z"/><path fill="#1369f0" d="M15.3,73.9l-12.8,0h0c-0.6,0-1,0.4-1,1c0,0.6,0.4,1,1,1l12.8,0h0c0.6,0,1-0.4,1-1 C16.3,74.4,15.9,73.9,15.3,73.9z"/><path fill="#1369f0" d="M92.5,74l-14,0l6.9-4.7c1.3-0.9,1.6-2.6,0.8-3.9L82.5,60c-0.5-0.7-1.3-1-2.1-0.9L79.7,58 c-0.2-0.3-0.3-0.7-0.2-1.1c0.3-0.9,0.1-1.9-0.4-2.7l-3.6-5.7c0,0,0,0,0,0c-0.7-1.1-2.2-1.6-3.4-1v-27c0-0.9-0.3-1.7-0.9-2.4 c0,0-0.1-0.1-0.1-0.1l-0.1-0.1c-0.7-0.7-1.7-1.1-2.7-1.1H12.2c-1,0-2,0.4-2.7,1.1c-0.7,0.7-1.1,1.7-1.1,2.7c0,4.6,0,24.4,0,38.6 c0,2.4,2.3,3.8,3.8,3.8h20c0.2,2-0.3,4.4-2.1,6.5h-2.7c-1.8,0-3.3,1.5-3.3,3.3c0,0.5,0.1,0.9,0.3,1.3l-2.9,0c0,0,0,0,0,0 c-0.6,0-1,0.4-1,1c0,0.6,0.4,1,1,1c24.1,0,14.8,0,38.9,0c0.6,0,1-0.4,1-1c0-0.6-0.4-1-1-1l-4.3,0c0.2-0.4,0.3-0.8,0.3-1.3 c0-1.8-1.5-3.3-3.3-3.3h-2.7c-1.8-2.1-2.3-4.5-2.1-6.5H62l6.1,1.3c0.4,0.1,0.7,0.3,0.9,0.6l0.7,1.1c-0.5,0.7-0.6,1.6-0.1,2.3 l3.9,5.9L67,74h0c-0.6,0-1,0.4-1,1c0,0.6,0.4,1,1,1l25.5,0h0c0.6,0,1-0.4,1-1C93.5,74.5,93.1,74,92.5,74z M10.4,20.5 c0-0.5,0.2-0.9,0.5-1.3c0.3-0.3,0.8-0.5,1.3-0.5h56.2c0.5,0,0.9,0.2,1.3,0.5c0,0,0.1,0.1,0.1,0.1l0.1,0.1 c0.3,0.3,0.4,0.7,0.4,1.1l0,27.7c-1.1-0.2-2.1,0.4-2.7,1.2c-0.2-0.1-0.4-0.2-0.6-0.2c-0.1,0-0.1,0-0.2,0V22.9c0-0.6-0.4-1-1-1 H14.8c-0.6,0-1,0.4-1,1v30.9c-1.9,0-3.7,0-3.4,0V20.5z M49.3,53.8H31.2c0.6-4.5,4.5-7.9,9-7.9C44.9,45.8,48.7,49.3,49.3,53.8z M29.2,53.8H18.7c0.5-3.1,3.3-5.4,6.5-5.4c1.9,0,3.7,0.9,4.9,2.2C29.6,51.6,29.3,52.6,29.2,53.8z M51.3,53.8 c-0.1-1.1-0.4-2.2-0.8-3.2c1.7-1.9,4.3-2.8,6.9-1.9c0.1,0.3,0.2,0.6,0.4,0.9l2.6,4.2H51.3z M58.6,45.7c-0.4,0.2-0.7,0.6-0.9,1 c-0.7-0.2-1.5-0.3-2.3-0.3c-2.3,0-4.4,0.9-5.9,2.4c-2-3-5.4-4.9-9.2-4.9c-3.8,0-7.2,2-9.2,4.9c-1.5-1.5-3.6-2.4-5.9-2.4 c-4.3,0-7.9,3.3-8.5,7.4c-0.3,0-0.6,0-0.9,0V23.9h48.9v25.8c-0.1,0.1-0.3,0.2-0.4,0.3l-2-3.4c-0.4-0.6-1-1-1.7-1.2 C59.9,45.2,59.2,45.3,58.6,45.7z M10.4,59v-3.3h4.4h3.2h43.4l1,1.7c-0.7-0.1-1.4,0-2,0.4c-0.6,0.4-1,1-1.2,1.7 c-0.1,0.5-0.1,0.9,0.1,1.4H12.2C11.3,60.8,10.4,60.1,10.4,59z M54.4,72.7c0,0.7-0.6,1.3-1.3,1.3H27.4c-0.7,0-1.3-0.6-1.3-1.3 c0-0.7,0.6-1.3,1.3-1.3h25.7C53.8,71.4,54.4,72,54.4,72.7z M48,69.4H32.6c1.4-2.2,1.8-4.5,1.6-6.5h12.1 C46.2,64.9,46.6,67.2,48,69.4z M68.5,62.1l-6.7-1.4c-0.4-0.1-0.6-0.5-0.5-0.8c0.1-0.4,0.4-0.6,0.8-0.5l2.3,0.5 c0.4,0.1,0.8-0.1,1-0.4c0.2-0.3,0.3-0.8,0-1.1l-6.1-9.9c-0.2-0.4-0.1-0.9,0.2-1.1c0.2-0.1,0.3-0.1,0.5-0.1c0.2,0,0.3,0.2,0.4,0.3 c0.5,0.9-1.9-3.2,5.3,8.6c0.3,0.5,0.9,0.6,1.4,0.3c0.5-0.3,0.6-0.9,0.3-1.4c-0.1-0.1-1.9-3.1-1.9-3c-0.2-0.3-0.1-0.8,0.2-1 c0.3-0.2,0.8-0.1,1,0.2c0.3,0.5,1.8,2.8,1.7,2.7c0.3,0.5,0.9,0.6,1.4,0.3c0.5-0.3,0.6-0.9,0.3-1.4l-1.2-1.8v0 c-0.2-0.3-0.1-0.8,0.2-1c0.3-0.2,0.8-0.1,1,0.2c0.2,0.2,1.6,2.5,1.5,2.4c0.3,0.5,0.9,0.6,1.4,0.3c0.5-0.3,0.6-0.9,0.3-1.4 l-0.9-1.5v0c-0.2-0.3-0.1-0.8,0.2-1c0.3-0.2,0.8-0.1,1,0.2l3.6,5.7c0.2,0.3,0.3,0.7,0.2,1.1c-0.3,0.9-0.1,1.9,0.4,2.7l0.6,0.9 l-7.3,4.6l-0.6-1C70.2,62.9,69.4,62.3,68.5,62.1z M80.8,61l3.7,5.6c0.2,0.4,0.1,0.8-0.2,1.1l-8.7,5.9L71.2,67L80.8,61z"/><path fill="#1369f0" d="M40.3,56.6c-0.9,0-1.7,0.8-1.7,1.7c0,0.9,0.8,1.7,1.7,1.7c0.9,0,1.7-0.8,1.7-1.7 C42,57.4,41.2,56.6,40.3,56.6z"/><path fill="#1369f0" d="M25.2,34.9c-2.8,0-5,2.3-5,5.1c0,2.8,2.3,5,5,5c2.8,0,5.1-2.3,5.1-5C30.2,37.1,28,34.9,25.2,34.9z M25.2,43 c-1.7,0-3-1.4-3-3c0-1.7,1.4-3.1,3-3.1c1.7,0,3.1,1.4,3.1,3.1C28.2,41.6,26.9,43,25.2,43z"/><path fill="#1369f0" d="M55.4,34.9c-2.8,0-5,2.3-5,5.1c0,2.8,2.3,5,5,5c2.8,0,5.1-2.3,5.1-5C60.4,37.1,58.2,34.9,55.4,34.9z M55.4,43c-1.7,0-3-1.4-3-3c0-1.7,1.4-3.1,3-3.1c1.7,0,3.1,1.4,3.1,3.1C58.4,41.6,57.1,43,55.4,43z"/><path fill="#1369f0" d="M40.3,30c-3.5,0-6.4,2.9-6.4,6.4c0,3.5,2.9,6.4,6.4,6.4c3.5,0,6.4-2.9,6.4-6.4C46.7,32.8,43.8,30,40.3,30z M40.3,40.8c-2.4,0-4.4-2-4.4-4.4c0-2.4,2-4.4,4.4-4.4c2.4,0,4.4,2,4.4,4.4C44.7,38.8,42.7,40.8,40.3,40.8z"/><circle cx="80.2" cy="65.1" r="1.5" fill="#1369f0"/></g></svg>