<?xml version="1.0" encoding="UTF-8"?>
<!DOCTYPE svg PUBLIC "-//W3C//DTD SVG 1.1//EN" "http://www.w3.org/Graphics/SVG/1.1/DTD/svg11.dtd">
<!-- Creator: CorelDRAW -->
<svg xmlns="http://www.w3.org/2000/svg" xml:space="preserve" width="16.911mm" height="12.2237mm" version="1.1" shape-rendering="geometricPrecision" text-rendering="geometricPrecision" image-rendering="optimizeQuality" fill-rule="evenodd" clip-rule="evenodd"
viewBox="0 0 1691.1 1222.37"
 xmlns:xlink="http://www.w3.org/1999/xlink"
 xmlns:xodm="http://www.corel.com/coreldraw/odm/2003">
 <g id="Camada_x0020_1">
  <metadata id="CorelCorpID_0Corel-Layer"/>
  <path fill="#1369F0" fill-rule="nonzero" d="M672.76 1183.77c0,-5.51 5.51,-11.03 11.03,-11.03l16.54 0 0 -16.54c0,-5.51 5.51,-11.03 11.03,-11.03 5.51,0 11.03,5.51 11.03,11.03l0 16.54 16.54 0c5.51,0 11.03,5.51 11.03,11.03 0,5.51 -5.51,11.03 -11.03,11.03l-16.54 0 0 16.54c0,5.51 -5.51,11.03 -11.03,11.03 -5.51,0 -11.03,-5.51 -11.03,-11.03l0 -16.54 -16.54 0c-5.51,0 -11.03,-3.67 -11.03,-11.03z"/>
  <path fill="#1369F0" fill-rule="nonzero" d="M1343.69 656.22c0,7.35 -7.35,12.87 -14.71,12.87l-20.22 0 0 20.22c0,7.35 -7.35,12.87 -14.71,12.87 -7.35,0 -12.87,-5.51 -12.87,-14.71l0 -20.22 -20.22 0c-7.35,0 -12.87,-7.35 -12.87,-14.71 0,-7.35 5.51,-12.87 14.71,-12.87l20.22 0 0 -20.22c0,-7.35 7.35,-12.87 14.71,-12.87 7.35,0 12.87,7.35 12.87,14.71l0 20.22 20.22 0c7.36,1.84 12.87,7.36 12.87,14.71z"/>
  <path fill="#1369F0" fill-rule="nonzero" d="M672.76 1183.77c0,-5.51 5.51,-11.03 11.03,-11.03l16.54 0 0 -16.54c0,-5.51 5.51,-11.03 11.03,-11.03 5.51,0 11.03,5.51 11.03,11.03l0 16.54 16.54 0c5.51,0 11.03,5.51 11.03,11.03 0,5.51 -5.51,11.03 -11.03,11.03l-16.54 0 0 16.54c0,5.51 -5.51,11.03 -11.03,11.03 -5.51,0 -11.03,-5.51 -11.03,-11.03l0 -16.54 -16.54 0c-5.51,0 -11.03,-3.67 -11.03,-11.03z"/>
  <path fill="#1369F0" fill-rule="nonzero" d="M1077.16 979.74c0,9.19 -7.35,18.38 -18.38,18.38l-580.86 0c-11.03,0 -18.38,-7.35 -18.38,-18.38 0,-11.03 7.35,-18.38 18.38,-18.38l582.69 0c9.2,0 16.55,9.19 16.55,18.38z"/>
  <path fill="#1369F0" fill-rule="nonzero" d="M459.54 126.83c0,-9.19 7.35,-18.38 18.38,-18.38l582.69 0c9.19,0 18.38,7.35 18.38,18.38 0,11.03 -7.35,18.38 -18.38,18.38l-582.69 0c-11.03,0 -18.38,-7.35 -18.38,-18.38z"/>
  <path fill="#1369F0" fill-rule="nonzero" d="M1001.79 580.86l0 226.09c0,9.19 -7.35,18.38 -18.38,18.38 -11.03,0 -18.38,-7.35 -18.38,-18.38l0 -226.09c0,-23.9 -20.22,-44.12 -44.12,-44.12l-20.22 0 0 3.67c0,3.68 -1.84,5.51 -5.51,7.35l-23.9 7.35c-1.84,0 -3.68,1.84 -5.51,5.51 -1.84,7.35 -5.51,16.54 -11.03,23.9 -1.84,1.84 -1.84,3.68 0,7.35l12.87 25.73 -22.06 22.06 -25.73 -14.71c-1.84,-1.84 -3.68,-1.84 -7.35,0 -7.35,3.68 -16.54,7.35 -23.9,9.19 -0.61,0 -1.23,0.2 -1.84,0.55l0 118.95c0,9.19 -7.35,18.38 -18.38,18.38 -9.19,0 -18.38,-7.35 -18.38,-18.38l0 -86.41 -3.67 0c-3.68,0 -5.51,-1.84 -7.35,-5.51l-1.85 -27.56c0,-1.84 -1.84,-3.68 -5.51,-5.51 -7.35,-1.84 -16.54,-5.51 -23.9,-11.03 -1.84,-1.84 -3.68,-1.84 -7.35,0l-22.06 11.03c-1.84,1.84 -5.51,0 -7.35,-1.84l-14.71 -14.71c-1.84,-1.84 -1.84,-5.51 -1.84,-7.35l12.87 -22.06c1.84,-1.84 1.84,-3.68 0,-7.35 -3.68,-7.35 -7.35,-16.54 -9.19,-23.9 0,-1.84 -1.84,-3.68 -3.68,-5.51l-22.06 -3.67c-4.51,-1.51 -6.55,-3.01 -7.15,-5.52l-9.39 0c-23.9,0 -44.12,20.22 -44.12,44.12l0 226.09c0,9.19 -7.35,18.38 -18.38,18.38 -11.03,0 -18.38,-7.35 -18.38,-18.38l0 -226.09c0,-44.12 36.76,-80.88 80.88,-80.88l32.65 0 5.95 -1.83c1.84,0 3.68,-1.84 5.51,-5.51 1.84,-7.35 5.51,-16.54 11.03,-23.9 1.84,-1.84 1.84,-3.68 0,-7.35l-11.03 -20.22c-1.84,-3.68 -1.84,-7.35 0,-9.19l14.71 -14.71c1.84,-1.84 5.51,-1.84 7.35,-1.84l20.22 11.03c5.52,5.51 7.36,5.51 9.19,3.67 7.35,-3.68 16.54,-7.35 23.9,-9.19 1.84,0 3.68,-1.84 5.51,-3.68l7.35 -22.06c0.6,-1.78 1.19,-3.18 1.85,-4.26l0 -98.67 -22.06 23.9c-7.35,7.35 -18.38,7.35 -25.73,0 -7.35,-7.35 -7.35,-18.38 0,-25.73l53.31 -55.14c0,0 0,0 0,0 0,0 1.84,-1.84 1.84,-1.84 3.68,-1.84 7.35,-3.68 11.03,-3.68 1.84,0 1.84,0 3.68,0 1.84,0 1.84,0 3.68,1.84 1.84,0 1.84,1.84 3.68,1.84 0,0 1.84,1.84 1.84,1.84 0,0 0,0 0,0 0,0 0,0 0,0l49.63 56.98c7.35,7.35 5.51,18.38 -1.84,25.73 -3.68,3.68 -7.35,3.68 -12.87,3.68 -5.51,0 -11.03,-1.84 -14.71,-5.51l-16.54 -20.22 0 97.5 7.32 23.8c0,1.84 1.84,3.68 5.51,5.51 7.35,1.84 16.54,5.51 23.9,11.03 1.84,1.84 3.68,1.84 7.35,0l22.06 -11.03c1.84,-1.84 5.51,0 7.35,1.84l14.71 14.71c1.84,1.84 1.84,5.51 1.84,7.35l-16.53 22.06c-1.84,1.84 -1.84,5.51 0,7.35 3.68,7.35 7.35,14.71 9.19,22.06 0,0.98 0.53,2.49 1.58,3.68l49.89 0c45.95,-1.84 82.71,34.92 82.71,79.04zm-191.59 -100.56c-25.32,-26.35 -67.21,-27.18 -93.56,-1.87 -26.35,25.32 -27.19,67.21 -1.87,93.56 25.32,26.35 67.21,27.19 93.56,1.87 26.35,-25.31 27.19,-67.21 1.87,-93.56z"/>
  <path fill="#1369F0" fill-rule="nonzero" d="M20.22 575.34l18.38 -7.35 7.35 18.38c3.68,7.35 11.03,9.19 18.38,7.35 7.35,-3.68 11.03,-11.03 7.35,-18.38l-7.35 -18.38 18.38 -7.35c7.35,-3.68 9.19,-11.03 7.35,-18.38 -3.68,-7.35 -11.03,-9.19 -18.38,-7.35l-18.38 7.35 -7.35 -18.38c-3.68,-7.35 -11.03,-9.19 -18.38,-7.35 -7.35,3.68 -9.19,11.03 -7.35,18.38l7.35 18.38 -18.38 7.35c-7.35,3.68 -9.19,11.03 -7.35,18.38 3.67,5.51 11.02,9.19 18.38,7.35z"/>
  <path fill="#1369F0" fill-rule="nonzero" d="M1560.59 126.83c0,-7.35 -5.51,-12.87 -12.87,-14.71l-20.22 0 0 -20.22c0,-7.35 -5.51,-12.87 -12.87,-14.71 -7.35,0 -12.87,5.51 -14.71,12.87l0 20.22 -20.22 0c-7.35,0 -12.87,5.51 -14.71,12.87 0,7.35 5.51,12.87 12.87,14.71l20.22 0 0 20.22c0,7.35 5.51,12.87 12.87,14.71 7.35,0 12.87,-5.51 14.71,-12.87l0 -20.22 20.22 0c9.2,1.84 14.71,-3.68 14.71,-12.87z"/>
  <path fill="#1369F0" fill-rule="nonzero" d="M1672.72 1071.65l-112.13 0c-11.03,0 -18.38,7.35 -18.38,18.38 0,11.03 7.35,18.38 18.38,18.38l112.13 0c11.03,0 18.38,-7.35 18.38,-18.38 0,-11.03 -7.35,-18.38 -18.38,-18.38z"/>
  <path fill="#1369F0" fill-rule="nonzero" d="M1422.73 1071.65l-82.72 0c16.54,-18.38 27.57,-44.12 27.57,-71.69l0.01 -222.42c0,-11.03 -7.35,-18.38 -18.38,-18.38l-163.6 0 0 -650.71c0,-60.66 -49.63,-108.45 -108.45,-108.45l-799.6 0c-1.84,0 -5.51,0 -7.35,1.84 -56.98,3.68 -101.1,51.47 -101.1,108.45l0 128.67c0,11.03 7.35,18.38 18.38,18.38l163.6 0 0 740.78c0,27.57 11.03,53.31 27.57,71.69l-152.57 0c-11.03,0 -18.38,7.35 -18.38,18.38 0,11.03 7.35,18.38 18.38,18.38l1196.64 0c11.03,0 18.38,-7.35 18.38,-18.38 0,-11.03 -9.19,-16.54 -18.38,-16.54zm-91.91 -275.73l0 204.04c0,40.44 -33.09,71.69 -71.69,71.69 -38.6,0 -71.69,-33.09 -71.69,-71.69l0.01 -204.04 143.37 0zm-251.82 -759.16c40.44,0 71.69,33.09 71.69,71.69 0,283.08 0,601.08 0,889.67 0,25.73 9.19,51.47 25.73,71.69 0,0 0,0 0,1.84l-716.88 0c-40.44,0 -71.69,-33.09 -71.69,-71.69 0,-42.28 0,-931.95 0,-889.67 0,0 0,-1.84 0,-1.84 0,-23.9 -9.19,-51.47 -27.57,-69.85l718.72 0 0 -1.84zm-873.13 183.82l0 -110.29c0,-40.44 33.09,-71.69 71.69,-71.69 38.6,0 71.69,33.09 71.69,71.69l0 110.29 -143.38 0z"/>
  <path fill="#1369F0" fill-rule="nonzero" d="M88.23 1071.65l-69.85 0c-11.03,0 -18.38,7.35 -18.38,18.38 0,11.03 7.35,18.38 18.38,18.38l69.85 0c11.03,0 18.38,-7.35 18.38,-18.38 0,-11.03 -7.35,-18.38 -18.38,-18.38z"/>
  <path fill="#1369F0" fill-rule="nonzero" d="M768.35 880.48c40.44,0 73.53,-33.09 73.53,-73.53 0,-40.44 -33.09,-73.53 -73.53,-73.53 -40.44,0 -73.53,33.09 -73.53,73.53 0,40.44 33.09,73.53 73.53,73.53z"/>
  <path fill="#1369F0" fill-rule="nonzero" d="M560.64 880.48c40.44,0 73.53,-33.09 73.53,-73.53 0,-40.44 -33.09,-73.53 -73.53,-73.53 -40.44,0 -73.53,33.09 -73.53,73.53 0,40.44 33.09,73.53 73.53,73.53z"/>
  <path fill="#1369F0" fill-rule="nonzero" d="M977.9 880.48c40.44,0 73.53,-33.09 73.53,-73.53 0,-40.44 -33.09,-73.53 -73.53,-73.53 -40.44,0 -73.53,33.09 -73.53,73.53 0,40.44 33.09,73.53 73.53,73.53z"/>
 </g>
</svg>
