<svg xmlns="http://www.w3.org/2000/svg"  viewBox="0 0 95 95" width="66px" height="66px"><path fill="#e8f0fd" d="M83.8,36.2c-4.3,2.9-9.3,4.6-13.5,7.6c-4.2,3.1-7.5,8.3-5.9,13.3c1,3.4,4,5.7,5.5,8.9 c1.9,4.2,0.8,9.5-2.4,12.9c-3.2,3.3-8.2,4.7-12.7,3.9c-4.6-0.8-8.6-3.7-11.3-7.4c-1.8-2.5-3-5.4-4.8-7.9 c-1.7-2.5-4.2-4.8-7.3-5.3c-5.9-0.8-11,5.5-17,5.1C10.6,67,7.4,63.7,6.6,60c-0.8-3.7,0.5-7.7,3-10.6c2.5-2.9,6-4.8,9.7-5.8 c2.5-0.7,5.1-1.1,7.6-2c2.5-0.9,4.8-2.4,6.1-4.7c3-5.8-2.3-13.1,0-19.1c1.3-3.5,5.2-5.7,8.9-5.6c3.7,0.1,7.3,2.1,9.6,5 c1.4,1.7,3.2,8.7,4.9,9.3c2,0.6,8.5-5.9,10.3-7.1c4.1-2.6,8.8-4.6,13.6-4.3c4.8,0.4,9.6,3.7,10.5,8.4 C91.8,28.4,88.1,33.3,83.8,36.2z"/><path fill="#e8f0fd" d="M38.1,79.9c0-0.3,0.3-0.6,0.6-0.6l0.9,0l0-0.9c0-0.3,0.3-0.6,0.6-0.6c0.3,0,0.6,0.3,0.6,0.6l0,0.9l0.9,0 c0.3,0,0.6,0.3,0.6,0.6c0,0.3-0.3,0.6-0.6,0.6l-0.9,0l0,0.9c0,0.3-0.3,0.6-0.6,0.6c-0.3,0-0.6-0.3-0.6-0.6l0-0.9l-0.9,0 C38.4,80.5,38.1,80.3,38.1,79.9z"/><path fill="#cedbf0" d="M74.6,51.2c0,0.4-0.4,0.7-0.8,0.7l-1.1,0l0,1.1c0,0.4-0.4,0.7-0.8,0.7c-0.4,0-0.7-0.3-0.7-0.8l0-1.1l-1.1,0 c-0.4,0-0.7-0.4-0.7-0.8c0-0.4,0.3-0.7,0.8-0.7l1.1,0l0-1.1c0-0.4,0.4-0.7,0.8-0.7c0.4,0,0.7,0.4,0.7,0.8l0,1.1l1.1,0 C74.3,50.5,74.6,50.8,74.6,51.2z"/><path fill="#e8f0fd" d="M38.1,79.9c0-0.3,0.3-0.6,0.6-0.6l0.9,0l0-0.9c0-0.3,0.3-0.6,0.6-0.6c0.3,0,0.6,0.3,0.6,0.6l0,0.9l0.9,0 c0.3,0,0.6,0.3,0.6,0.6c0,0.3-0.3,0.6-0.6,0.6l-0.9,0l0,0.9c0,0.3-0.3,0.6-0.6,0.6c-0.3,0-0.6-0.3-0.6-0.6l0-0.9l-0.9,0 C38.4,80.5,38.1,80.3,38.1,79.9z"/><path fill="#fff" d="M21.5,28.5v-7c0-2.7-2.2-4.9-4.9-4.9c-2.7,0-4.9,2.2-4.9,4.9v7H21.5"/><path fill="#e8f0fd" d="M21.5,21.5v7h-3.2v-7c0-2.1-1.4-4-3.3-4.6c0.5-0.2,1-0.3,1.6-0.3C19.3,16.6,21.5,18.8,21.5,21.5z"/><path fill="#fff" d="M65.1,57.8v12.1c0,2.7,2.2,4.9,4.9,4.9c2.7,0,4.9-2.2,4.9-4.9V57.8H65.1z"/><path fill="#e8f0fd" d="M75.2,57v12.6c0,2.8-2.3,5.1-5.2,5.1c-0.7,0-1.3-0.1-1.9-0.4c1.9-0.8,3.2-2.6,3.2-4.8V57H75.2z"/><path fill="#fff" d="M70,74.8H26.5c-2.7,0-4.9-2.2-4.9-4.9V21.4c0-2.7-2.2-4.9-4.9-4.9h43.5c2.3,0,4.3,1.6,4.8,3.8 c0.1,0.4,0.1,0.8,0.1,1.2v48.4C65.1,72.6,67.3,74.8,70,74.8z"/><path fill="#e8f0fd" d="M70,74.8h-4.5c-2.7,0-4.9-2.2-4.9-4.9V21.4c0-0.4,0-0.8-0.1-1.2c-0.5-2.2-2.5-3.8-4.8-3.8h4.5 c2.3,0,4.3,1.6,4.8,3.8c0.1,0.4,0.1,0.8,0.1,1.2v48.4C65.1,72.6,67.3,74.8,70,74.8z"/><path fill="#e8f0fd" d="M60.1,68.8c0,0.5-0.4,1-1,1H27.5c-0.6,0-1-0.4-1-1c0-0.6,0.4-1,1-1h31.7C59.7,67.8,60.1,68.3,60.1,68.8z"/><path fill="#e8f0fd" d="M26.5,22.4c0-0.5,0.4-1,1-1h31.7c0.5,0,1,0.4,1,1c0,0.6-0.4,1-1,1H27.5C26.9,23.4,26.5,23,26.5,22.4z"/><g><path fill="#e8f0fd" d="M56,47.1v12.3c0,0.5-0.4,1-1,1s-1-0.4-1-1V47.1c0-1.3-1.1-2.4-2.4-2.4h-7.3v11.8c0,0.5-0.4,1-1,1 c-0.5,0-1-0.4-1-1V44.7H35c-1.3,0-2.4,1.1-2.4,2.4v12.3c0,0.5-0.4,1-1,1s-1-0.4-1-1V47.1c0-2.4,2-4.4,4.4-4.4h7.3V31.4 l-1.2,1.3c-0.4,0.4-1,0.4-1.4,0c-0.4-0.4-0.4-1,0-1.4l2.9-3c0,0,0,0,0,0c0,0,0.1-0.1,0.1-0.1c0.2-0.1,0.4-0.2,0.6-0.2 c0.1,0,0.1,0,0.2,0c0.1,0,0.1,0,0.2,0.1c0.1,0,0.1,0.1,0.2,0.1c0,0,0.1,0.1,0.1,0.1c0,0,0,0,0,0c0,0,0,0,0,0l2.7,3.1 c0.4,0.4,0.3,1-0.1,1.4c-0.2,0.2-0.4,0.2-0.7,0.2c-0.3,0-0.6-0.1-0.8-0.3l-0.9-1.1v11.2h7.3C54,42.7,56,44.7,56,47.1z"/><path fill="#1369f0" d="M2.6,46.8l1-0.4l0.4,1c0.2,0.4,0.6,0.5,1,0.4c0.4-0.2,0.6-0.6,0.4-1l-0.4-1l1-0.4c0.4-0.2,0.5-0.6,0.4-1 c-0.2-0.4-0.6-0.5-1-0.4l-1,0.4l-0.4-1c-0.2-0.4-0.6-0.5-1-0.4c-0.4,0.2-0.5,0.6-0.4,1L3,45l-1,0.4c-0.4,0.2-0.5,0.6-0.4,1 C1.8,46.7,2.2,46.9,2.6,46.8z"/><path fill="#1369f0" d="M86.4,22.4c0-0.4-0.3-0.7-0.7-0.8l-1.1,0l0-1.1c0-0.4-0.3-0.7-0.7-0.8c-0.4,0-0.7,0.3-0.8,0.7l0,1.1 l-1.1,0c-0.4,0-0.7,0.3-0.8,0.7c0,0.4,0.3,0.7,0.7,0.8l1.1,0l0,1.1c0,0.4,0.3,0.7,0.7,0.8c0.4,0,0.7-0.3,0.8-0.7l0-1.1l1.1,0 C86.1,23.2,86.4,22.9,86.4,22.4z"/><path fill="#1369f0" d="M92.5,73.8h-6.1c-0.6,0-1,0.4-1,1s0.4,1,1,1h6.1c0.6,0,1-0.4,1-1S93.1,73.8,92.5,73.8z"/><path fill="#1369f0" d="M78.9,73.8h-4.5c0.9-1,1.5-2.4,1.5-3.9V57.8c0-0.6-0.4-1-1-1h-8.9V21.4c0-3.3-2.7-5.9-5.9-5.9H16.6 c-0.1,0-0.3,0-0.4,0.1c-3.1,0.2-5.5,2.8-5.5,5.9v7c0,0.6,0.4,1,1,1h8.9v40.3c0,1.5,0.6,2.9,1.5,3.9h-8.3c-0.6,0-1,0.4-1,1 s0.4,1,1,1h65.1c0.6,0,1-0.4,1-1S79.4,73.8,78.9,73.8z M73.9,58.8v11.1c0,2.2-1.8,3.9-3.9,3.9s-3.9-1.8-3.9-3.9V58.8H73.9z M60.2,17.5c2.2,0,3.9,1.8,3.9,3.9c0,15.4,0,32.7,0,48.4c0,1.4,0.5,2.8,1.4,3.9c0,0,0,0,0,0.1H26.5c-2.2,0-3.9-1.8-3.9-3.9 c0-2.3,0-50.7,0-48.4c0,0,0-0.1,0-0.1c0-1.3-0.5-2.8-1.5-3.8H60.2z M12.7,27.5v-6c0-2.2,1.8-3.9,3.9-3.9s3.9,1.8,3.9,3.9v6 H12.7z"/><path fill="#1369f0" d="M6.3,73.8H2.5c-0.6,0-1,0.4-1,1s0.4,1,1,1h3.8c0.6,0,1-0.4,1-1S6.9,73.8,6.3,73.8z"/><path fill="#1369f0" d="M43.3,63.4c2.2,0,4-1.8,4-4s-1.8-4-4-4c-2.2,0-4,1.8-4,4S41.1,63.4,43.3,63.4z"/><path fill="#1369f0" d="M32,63.4c2.2,0,4-1.8,4-4s-1.8-4-4-4s-4,1.8-4,4S29.8,63.4,32,63.4z"/><path fill="#1369f0" d="M54.7,63.4c2.2,0,4-1.8,4-4s-1.8-4-4-4s-4,1.8-4,4S52.5,63.4,54.7,63.4z"/><g><path fill="#1369f0" d="M40.2,38.9c0.4-0.2,0.9-0.4,1.3-0.5c0.1,0,0.2-0.1,0.3-0.2l0.4-1.2c0.1-0.3,0.2-0.4,0.4-0.4l1.2,0 c0.2,0,0.3,0.1,0.4,0.3l0.4,1.3c0,0.1,0.1,0.2,0.3,0.3c0.4,0.1,0.9,0.3,1.3,0.6c0.1,0.1,0.2,0.1,0.4,0l1.2-0.6 c0.1-0.1,0.3,0,0.4,0.1l0.8,0.8c0.1,0.1,0.1,0.3,0.1,0.4L48.2,41c-0.1,0.1-0.1,0.3,0,0.4c0.2,0.4,0.4,0.8,0.5,1.2 c0,0.1,0.1,0.3,0.3,0.3l1.1,0.4c0.3,0.1,0.4,0.2,0.4,0.4l0,1.2c0,0.2-0.1,0.3-0.3,0.4l-1.3,0.4c-0.1,0-0.2,0.1-0.3,0.3 c-0.1,0.4-0.3,0.9-0.6,1.3c-0.1,0.1-0.1,0.2,0,0.4l0.7,1.4l-1.2,1.2l-1.4-0.8c-0.1-0.1-0.2-0.1-0.4,0 c-0.4,0.2-0.9,0.4-1.3,0.5c-0.1,0-0.2,0.1-0.3,0.2l-0.4,1.2c-0.1,0.3-0.2,0.4-0.4,0.4l-1.2,0c-0.2,0-0.3-0.1-0.4-0.3L41.6,50 c0-0.1-0.1-0.2-0.3-0.3c-0.4-0.1-0.9-0.3-1.3-0.6c-0.1-0.1-0.2-0.1-0.4,0l-1.2,0.6c-0.1,0.1-0.3,0-0.4-0.1l-0.8-0.8 c-0.1-0.1-0.1-0.3-0.1-0.4l0.7-1.2c0.1-0.1,0.1-0.2,0-0.4c-0.2-0.4-0.4-0.9-0.5-1.3c0-0.1-0.1-0.2-0.2-0.3L35.9,45 c-0.3-0.1-0.4-0.2-0.4-0.4l0-1.2c0-0.2,0.1-0.3,0.3-0.4l1.3-0.4c0.1,0,0.2-0.1,0.3-0.3c0.1-0.4,0.3-0.9,0.6-1.3 c0.1-0.1,0.1-0.2,0-0.4l-0.6-1.1c-0.1-0.2-0.1-0.4,0-0.5l0.8-0.8c0.1-0.1,0.3-0.1,0.4-0.1l1.1,0.6C40,39,40.1,39,40.2,38.9z"/><circle cx="43" cy="44.1" r="3.6" fill="#fff" transform="rotate(-43.855 43.02 44.135)"/></g></g></svg>