<?xml version="1.0" encoding="UTF-8"?>
<!DOCTYPE svg PUBLIC "-//W3C//DTD SVG 1.1//EN" "http://www.w3.org/Graphics/SVG/1.1/DTD/svg11.dtd">
<!-- Creator: CorelDRAW -->
<svg xmlns="http://www.w3.org/2000/svg" xml:space="preserve" width="16.911mm" height="12.0583mm" version="1.1" shape-rendering="geometricPrecision" text-rendering="geometricPrecision" image-rendering="optimizeQuality" fill-rule="evenodd" clip-rule="evenodd"
viewBox="0 0 1691.1 1205.83"
 xmlns:xlink="http://www.w3.org/1999/xlink"
 xmlns:xodm="http://www.corel.com/coreldraw/odm/2003">
 <g id="Camada_x0020_1">
  <metadata id="CorelCorpID_0Corel-Layer"/>
  <path fill="#1369F0" fill-rule="nonzero" d="M106.61 95.59c-1.84,7.35 -9.19,11.03 -16.54,11.03l-18.38 -3.68 -3.68 18.38c-1.84,7.35 -9.19,11.03 -16.54,11.03 -7.35,-1.84 -11.03,-9.19 -11.03,-16.54l3.68 -18.38 -18.38 -3.68c-7.35,-1.84 -11.03,-9.19 -11.03,-16.54 1.84,-7.35 9.19,-11.03 16.54,-11.03l18.38 3.68 3.68 -18.38c1.84,-7.35 9.19,-11.03 16.54,-11.03 7.35,1.83 12.86,9.18 11.03,16.54l-3.68 18.38 18.38 3.68c7.35,3.67 11.03,9.19 11.03,16.54z"/>
  <path fill="#1369F0" fill-rule="nonzero" d="M1084.51 1169.07c-1.84,7.35 -9.19,11.03 -16.54,11.03l-18.38 -3.68 -3.68 18.38c-1.84,7.35 -9.19,11.03 -16.54,11.03 -7.35,-1.84 -11.03,-9.19 -11.03,-16.54l3.68 -18.38 -18.38 -3.68c-7.35,-1.84 -11.03,-9.19 -11.03,-16.54 1.84,-7.35 9.19,-11.03 16.54,-11.03l18.38 3.68 3.68 -18.38c1.84,-7.35 9.19,-11.03 16.54,-11.03 7.35,1.84 11.03,9.19 11.03,16.54l-3.68 18.38 18.38 3.68c7.35,1.84 11.03,9.19 11.03,16.54z"/>
  <path fill="#1369F0" fill-rule="nonzero" d="M356.6 566.16c0,-11.03 9.19,-20.22 20.22,-20.22l95.58 0c11.03,0 20.22,9.19 20.22,20.22 0,11.03 -9.19,20.22 -20.22,20.22l-95.58 0c-12.87,0 -20.22,-9.19 -20.22,-20.22z"/>
  <path fill="#1369F0" fill-rule="nonzero" d="M356.6 305.14c0,-11.03 9.19,-20.22 20.22,-20.22l95.58 0c11.03,0 20.22,9.19 20.22,20.22 0,11.03 -9.19,20.22 -20.22,20.22l-95.58 0c-12.87,-1.84 -20.22,-9.19 -20.22,-20.22z"/>
  <path fill="#1369F0" fill-rule="nonzero" d="M1135.98 630.49c0,11.03 -9.19,20.22 -20.22,20.22l-55.15 0c-11.03,0 -20.22,-9.19 -20.22,-20.22 0,-11.03 9.19,-20.22 20.22,-20.22l55.15 0c11.03,0 20.22,9.19 20.22,20.22z"/>
  <path fill="#1369F0" fill-rule="nonzero" d="M356.6 479.76c0,-11.03 9.19,-20.22 20.22,-20.22l95.58 0c11.03,0 20.22,9.19 20.22,20.22 0,11.03 -9.19,20.22 -20.22,20.22l-95.58 0c-12.87,-1.83 -20.22,-9.19 -20.22,-20.22z"/>
  <path fill="#1369F0" fill-rule="nonzero" d="M1135.98 566.16c0,11.03 -9.19,20.22 -20.22,20.22l-95.58 0c-11.03,0 -20.22,-9.19 -20.22,-20.22 0,-11.03 9.19,-20.22 20.22,-20.22l95.58 0c11.03,1.84 20.22,9.19 20.22,20.22z"/>
  <path fill="#1369F0" fill-rule="nonzero" d="M1135.98 479.76c0,11.03 -9.19,20.22 -20.22,20.22l-95.58 0c-11.03,0 -20.22,-9.19 -20.22,-20.22 0,-11.03 9.19,-20.22 20.22,-20.22l95.58 0c11.03,0 20.22,9.19 20.22,20.22z"/>
  <path fill="#1369F0" fill-rule="nonzero" d="M1135.98 305.14c0,11.03 -9.19,20.22 -20.22,20.22l-95.58 0c-11.03,0 -20.22,-9.19 -20.22,-20.22 0,-11.03 9.19,-20.22 20.22,-20.22l95.58 0c11.03,0 20.22,9.19 20.22,20.22z"/>
  <path fill="#1369F0" fill-rule="nonzero" d="M988.93 630.49c0,11.03 -9.19,20.22 -20.22,20.22l-593.73 0c-11.03,0 -20.22,-9.19 -20.22,-20.22 0,-11.03 9.19,-20.22 20.22,-20.22l593.73 0c11.03,0 20.22,9.19 20.22,20.22z"/>
  <path fill="#1369F0" fill-rule="nonzero" d="M356.6 216.91c0,-11.03 9.19,-20.22 20.22,-20.22l95.58 0c11.03,0 20.22,9.19 20.22,20.22 0,11.03 -9.19,20.22 -20.22,20.22l-95.58 0c-12.87,0 -20.22,-9.19 -20.22,-20.22z"/>
  <path fill="#1369F0" fill-rule="nonzero" d="M556.96 216.91c0,-11.03 9.19,-20.22 20.22,-20.22l538.58 0c11.03,0 20.22,9.19 20.22,20.22 0,11.03 -9.19,20.22 -20.22,20.22l-538.58 0c-11.03,0 -20.22,-9.19 -20.22,-20.22z"/>
  <path fill="#1369F0" fill-rule="nonzero" d="M1393.32 136.03l18.38 -3.68 3.68 18.38c1.84,7.35 9.19,11.03 16.54,9.19 7.35,-1.84 11.03,-9.19 11.03,-16.54l-3.68 -18.38 18.38 -3.68c7.35,-1.84 11.03,-9.19 9.19,-16.54 -1.84,-7.35 -9.19,-11.03 -16.54,-9.19l-18.38 3.68 -3.68 -18.38c-1.84,-7.35 -9.19,-11.03 -16.54,-9.19 -7.35,1.84 -11.03,9.19 -9.19,16.54l3.68 18.38 -18.38 3.68c-7.35,1.84 -11.03,9.19 -9.19,16.54 0,5.51 7.35,9.19 14.7,9.19z"/>
  <path fill="#1369F0" fill-rule="nonzero" d="M1621.25 954.01c1.84,7.35 9.19,11.03 16.54,9.19 7.35,-1.84 11.03,-9.19 11.03,-16.54l-3.68 -18.38 18.38 -3.68c7.35,-1.84 11.03,-9.19 9.19,-16.54 -1.84,-7.35 -9.19,-11.03 -16.54,-9.19l-18.38 3.68 -3.68 -18.38c-1.84,-7.35 -9.19,-11.03 -16.54,-9.19 -7.35,1.84 -11.03,9.19 -9.19,16.54l3.68 18.38 -18.38 3.68c-7.35,1.84 -11.03,9.19 -9.19,16.54 1.84,7.35 9.19,11.03 16.54,11.03l18.38 -3.68 1.84 16.54z"/>
  <path fill="#1369F0" fill-rule="nonzero" d="M88.23 1058.78l-69.85 0 0 0c-11.03,0 -18.38,7.35 -18.38,18.38 0,11.03 7.35,18.38 18.38,18.38l69.85 0 0 0.01c11.03,0 18.38,-7.35 18.38,-18.38 0,-9.2 -9.19,-18.39 -18.38,-18.39z"/>
  <path fill="#1369F0" fill-rule="nonzero" d="M1533.02 1060.62l-130.51 0c16.54,-11.03 33.09,-22.06 47.79,-36.76 49.63,-47.79 79.04,-113.97 80.88,-183.82 1.84,-69.85 -25.73,-136.02 -73.53,-187.49 -34.93,-36.76 -79.04,-60.66 -126.83,-71.69l0 -494.46c0,-47.79 -38.6,-86.39 -86.39,-86.39l-996.28 -0.01c-47.79,0 -86.39,38.6 -86.39,86.39l0 720.56c0,38.6 31.25,71.69 71.69,71.69l382.33 0 -20.22 104.78 -14.7 0c-47.79,0 -86.39,33.09 -95.58,79.04l-277.56 0 -0.01 0c-11.03,0 -18.38,7.35 -18.38,18.38 0,11.03 7.35,18.38 18.38,18.38 237.12,-1.83 1316.12,-1.83 1325.31,-1.83l0 0c11.03,0 18.38,-7.35 18.38,-18.38 0,-11.04 -9.19,-18.39 -18.38,-18.39zm-40.44 -222.42c-1.84,60.66 -25.73,115.8 -68.01,158.08 -40.44,40.44 -93.75,62.5 -150.73,62.5l-9.19 0c-58.82,-1.84 -113.97,-23.9 -158.08,-68.01 -42.28,-44.12 -64.34,-101.1 -62.5,-159.92 1.84,-60.66 25.73,-115.8 68.01,-158.08 42.28,-40.44 97.42,-62.5 156.24,-62.5 126.84,0 226.1,102.94 224.26,227.93zm-454.02 -132.34l-742.62 0 0 -573.51 900.7 0 0 450.35c-68.01,18.38 -123.16,64.34 -158.08,123.16zm-840.04 -619.46c0,-27.57 22.06,-49.63 49.63,-49.63l996.28 0c27.57,0 49.63,22.06 49.63,49.63l0 488.95c-7.35,0 -14.71,-1.84 -22.06,-1.84 -12.87,0 -25.73,0 -38.6,1.84l0 -461.38c0,-11.03 -7.35,-18.38 -18.38,-18.38l-937.46 0c-11.03,0 -18.38,7.35 -18.38,18.38l0 591.89 -60.66 0 0 -619.46zm34.92 753.64c-20.22,0 -34.93,-14.71 -34.93,-34.93l0 -62.5c430.13,0 680.12,0 823.49,0 -11.03,27.57 -16.54,56.98 -16.54,86.39 0,3.68 0,7.35 0,9.19 -194.84,1.85 -319.83,1.85 -772.02,1.85zm617.62 136.03l-216.9 0 18.38 -99.26 180.14 0 18.38 99.26zm-270.2 42.27l329.03 0c27.57,0 49.63,18.38 58.82,42.28l-444.83 0c7.34,-25.73 31.24,-42.28 56.98,-42.28zm426.45 42.28c-9.19,-44.12 -47.79,-79.04 -95.58,-79.04l-20.23 0 -22.05 -104.77 139.7 0c9.19,53.31 33.09,101.1 69.85,139.7 16.54,16.54 34.93,31.25 55.14,42.28l-126.83 1.83z"/>
  <path fill="#1369F0" fill-rule="nonzero" d="M1672.72 1060.62l-45.95 0 0 0c-11.03,0 -18.38,7.35 -18.38,18.38 0,11.03 7.35,18.38 18.38,18.38l45.95 0 0 0.01c11.03,0 18.38,-7.35 18.38,-18.38 0,-11.04 -7.35,-18.39 -18.38,-18.39z"/>
  <path fill="#1369F0" fill-rule="nonzero" d="M742.61 766.52c-14.71,0 -27.57,12.87 -27.57,27.57 0,14.7 12.87,27.57 27.57,27.57 14.71,0 27.57,-12.87 27.57,-27.57 0,-14.7 -11.02,-27.57 -27.57,-27.57z"/>
  <path fill="#1369F0" fill-rule="nonzero" d="M562.47 420.94l77.2 -36.76c12.87,-5.51 16.54,-22.06 7.35,-33.09 -5.51,-9.19 -18.38,-11.03 -27.57,-5.51l-124.99 60.66c-9.19,3.68 -14.71,14.71 -11.03,25.73 1.84,7.35 7.35,11.03 12.87,14.71l124.99 60.66c12.87,5.51 25.73,0 31.25,-12.87 3.68,-11.03 -1.84,-22.06 -12.87,-27.57l-75.36 -36.76c-3.67,-3.68 -3.67,-7.36 -1.84,-9.2z"/>
  <path fill="#1369F0" fill-rule="nonzero" d="M996.28 402.56l-125 -58.82c-11.03,-5.51 -25.73,0 -29.41,11.03 -5.51,11.03 1.84,23.9 12.87,29.41l75.36 36.76c3.68,1.84 3.68,5.51 0,7.35l-75.36 36.76c-11.03,5.51 -16.54,16.54 -12.87,27.57 3.68,12.87 18.38,18.38 31.25,12.87l124.99 -60.66c9.19,-3.68 14.71,-14.71 11.03,-25.73 -1.83,-7.35 -7.35,-12.86 -12.86,-16.54z"/>
  <path fill="#1369F0" fill-rule="nonzero" d="M816.14 275.73c-11.03,-5.51 -23.9,0 -29.41,11.03l-119.48 257.34c-5.51,11.03 0,23.9 11.03,29.41 11.03,5.51 23.9,0 29.41,-11.03l119.48 -257.34c3.67,-11.03 0,-23.9 -11.03,-29.41z"/>
  <path fill="#1369F0" fill-rule="nonzero" d="M1430.08 797.77l-133.99 148.28 58.48 -148.71 75.51 0.43zm-191.7 146.23l-131.82 -148.07 76.46 0.43 55.36 147.64zm-26.33 -147.47l112.03 0.64 -57.59 143.97 -54.44 -144.61zm-109.16 -28.17l66.17 -68.01c5.51,-5.51 12.87,-9.19 22.06,-9.19l158.08 1.84c7.35,0 16.54,3.68 22.06,9.19l60.66 68.01 -77.9 -0.44 -25.03 -76.77 -27.57 0 23.45 76.61 -112.6 -0.63 24.81 -75.98 -27.57 0 -24.72 75.83 -81.9 -0.46z"/>
 </g>
</svg>
