<svg xmlns="http://www.w3.org/2000/svg"  viewBox="0 0 95 95" width="66px" height="66px"><path fill="#e8f0fd" d="M82.6,81.7c-3.7,2-8.3,0.1-11.5-2.6c-3.2-2.7-7.1-7.7-10.4-10.2c-5.5-4.1-13.6-4.4-19.4-0.8 c-3.5,2.1-6.1,5.4-8.9,8.4c-2.8,3-6.1,5.8-10.1,6.5c-4.8,0.9-9.9-1.5-12.6-5.6c-2.7-4-3.2-9.3-1.8-14c1.5-4.6,4.8-8.6,8.8-11.3 c3.5-2.4,8-4.6,8.6-8.7c0.5-3.6-2-6.2-3.4-9.3c-1.4-3-2.3-6.3-2.7-9.6c-0.3-2.4-0.3-4.9,0.9-6.9c2.1-3.5,7.4-4.1,11-2 s5.7,6,7,9.9c0.5,1.5,0.9,3,1.7,4.3c0.8,1.3,2,2.5,3.5,2.8c1.6,0.3,3.3-0.4,4.5-1.6c1.9-1.9,2.6-4.8,3.9-7.2 c1.5-2.6,3.2-5.2,5.4-7.3c3-2.8,6.9-4.7,11-4.6c4.1,0.1,8.2,2.6,9.6,6.4c1.4,3.8,0,8-2.2,11.4c-2.2,3.4-5.2,6.2-7.4,9.5 c-2.3,3.3-3.8,7.5-2.7,11.3c1.7,3.1,4.9,4.1,8.6,7.1c3.7,3,9.2,7.3,11.3,11.5C87.5,73.4,86.8,79.4,82.6,81.7z"/><path fill="#e8f0fd" d="M87.2,46.2c0,0.4-0.4,0.7-0.8,0.7l-1.1,0l0,1.1c0,0.4-0.4,0.7-0.8,0.7c-0.4,0-0.7-0.3-0.7-0.8l0-1.1l-1.1,0 c-0.4,0-0.7-0.4-0.7-0.8c0-0.4,0.3-0.7,0.8-0.7l1.1,0l0-1.1c0-0.4,0.4-0.7,0.8-0.7c0.4,0,0.7,0.4,0.7,0.8l0,1.1l1.1,0 C86.9,45.4,87.2,45.8,87.2,46.2z"/><path fill="#e8f0fd" d="M43.1,80.7c0,0.4-0.4,0.7-0.8,0.7l-1.1,0l0,1.1c0,0.4-0.4,0.7-0.8,0.7c-0.4,0-0.7-0.3-0.7-0.8l0-1.1l-1.1,0 c-0.4,0-0.7-0.4-0.7-0.8c0-0.4,0.3-0.7,0.8-0.7l1.1,0l0-1.1c0-0.4,0.4-0.7,0.8-0.7c0.4,0,0.7,0.4,0.7,0.8l0,1.1l1.1,0 C42.8,79.9,43.1,80.3,43.1,80.7z"/><path fill="#fff" d="M50.6,60.8H35.5c1.3,3.2,0.4,7.7-3.5,10.8h22C50.2,68.5,49.3,64,50.6,60.8z"/><path fill="#e8eff8" d="M54,71.6H35.1c6.1,0,11.2-4.8,11.6-10.8h3.9C49.3,64,50.2,68.5,54,71.6z" opacity=".5"/><path fill="#fff" d="M58.1,72.7L58.1,72.7c0-1.3-1-2.3-2.3-2.3H30.3c-1.3,0-2.3,1-2.3,2.3v0c0,1.3,1,2.3,2.3,2.3h25.6 C57.1,74.9,58.1,73.9,58.1,72.7z"/><path fill="#fff" d="M58.1,72.7L58.1,72.7c0-1.3-1-2.3-2.3-2.3H30.3c-1.3,0-2.3,1-2.3,2.3v0c0,1.3,1,2.3,2.3,2.3h25.6 C57.1,74.9,58.1,73.9,58.1,72.7z"/><path fill="#fff" d="M58.1,72.7L58.1,72.7c0-1.3-1-2.3-2.3-2.3H30.3c-1.3,0-2.3,1-2.3,2.3v0c0,1.3,1,2.3,2.3,2.3h25.6 C57.1,74.9,58.1,73.9,58.1,72.7z"/><path fill="#fff" d="M58.1,72.7L58.1,72.7c0-1.3-1-2.3-2.3-2.3H30.3c-1.3,0-2.3,1-2.3,2.3v0c0,1.3,1,2.3,2.3,2.3h25.6 C57.1,74.9,58.1,73.9,58.1,72.7z"/><path fill="#fff" d="M73.8,20.7v38.4c0,0.1,0,0.1,0,0.2c0,0,0,0.1,0,0.1v0c0,0,0,0.1,0,0.1c0,0,0,0.1,0,0.1c0,0,0,0.1,0,0.1 c0,0,0,0,0,0c0,0,0,0.1,0,0.1c0,0,0,0,0,0.1c0,0,0,0,0,0c0,0,0,0,0,0.1c0,0,0,0.1,0,0.1c0,0,0,0,0,0v0c0,0,0,0.1,0,0.1 c0,0,0,0,0,0c0,0,0,0,0,0c0,0,0,0,0,0c0,0.1,0,0.1-0.1,0.1c0,0,0,0.1,0,0.1c0,0,0,0,0,0c0,0,0,0,0,0s0,0,0,0c0,0,0,0,0,0 c0,0,0,0,0,0c0,0-0.1,0.1-0.1,0.2l0,0c0,0,0,0,0,0c0,0,0,0,0,0l-0.2,0.2c0,0-0.1,0.1-0.1,0.1c0,0,0,0,0,0c0,0,0,0,0,0 c0,0,0,0,0,0c0,0-0.1,0.1-0.1,0.1c0,0,0,0,0,0c0,0,0,0,0,0c0,0,0,0-0.1,0c0,0-0.1,0.1-0.1,0.1h0c0,0,0,0-0.1,0c0,0,0,0,0,0 c0,0,0,0-0.1,0c0,0,0,0,0,0c0,0,0,0,0,0c0,0,0,0,0,0c0,0,0,0-0.1,0c0,0,0,0-0.1,0c0,0,0,0,0,0c0,0,0,0,0,0 c-0.1,0-0.2,0.1-0.2,0.1h0c0,0-0.1,0-0.1,0c0,0,0,0,0,0c0,0,0,0,0,0h-0.1c0,0,0,0,0,0c0,0,0,0,0,0c0,0,0,0,0,0 c-0.1,0-0.2,0-0.3,0H15.1c-0.2,0-0.3,0-0.5-0.1c-0.1,0-0.1,0-0.2,0c-0.1,0-0.2-0.1-0.3-0.1c0,0,0,0,0,0c0,0-0.1,0-0.1-0.1 c-0.1,0-0.1-0.1-0.2-0.1c0,0-0.1-0.1-0.2-0.1c0,0-0.1,0-0.1-0.1c0,0,0,0,0,0v0c-0.1,0-0.1-0.1-0.1-0.1c-0.1,0-0.1-0.1-0.1-0.1 v0h0v0c0,0,0,0,0,0c0,0-0.1,0-0.1-0.1c0,0-0.1-0.1-0.1-0.1v0c0,0,0,0,0,0l0,0c0,0,0,0,0-0.1c0,0,0,0,0,0c0,0,0-0.1-0.1-0.1 c-0.1-0.1-0.2-0.3-0.2-0.4c-0.1-0.1-0.1-0.3-0.2-0.5c0,0,0,0,0-0.1c0,0,0,0,0-0.1c0,0,0-0.1,0-0.1c0,0,0-0.1,0-0.2 c0-0.1,0-0.2,0-0.3V20.7c0-0.8,0.3-1.5,0.8-2c0.5-0.5,1.2-0.8,2-0.8H71c0.8,0,1.5,0.3,2,0.8c0.1,0.1,0.1,0.1,0.2,0.2 C73.6,19.4,73.8,20,73.8,20.7z"/><path fill="#fff" d="M73.8,54.8v4.4c0,0,0,0.1,0,0.1v0c0,0,0,0.1,0,0.1c0,0,0,0.1,0,0.1c0,0,0,0.1,0,0.1v0c0,0,0,0.1,0,0.1 l0,0c0,0,0,0,0,0.1c0,0,0,0,0,0c0,0,0,0,0,0.1c0,0,0,0.1,0,0.1c0,0,0,0,0,0c0,0,0,0,0,0c0,0,0,0.1,0,0.1c0,0,0,0,0,0 c0,0,0,0,0,0c0,0,0,0,0,0c0,0.1,0,0.1-0.1,0.1c0,0,0,0.1,0,0.1c0,0,0,0,0,0c0,0,0,0,0,0v0c0,0,0,0,0,0c0,0,0,0,0,0 c0,0-0.1,0.1-0.1,0.2l0,0c0,0,0,0,0,0c0,0,0,0,0,0l-0.2,0.2c0,0-0.1,0.1-0.1,0.1c0,0,0,0,0,0c0,0,0,0,0,0c0,0-0.1,0.1-0.1,0.1 c0,0,0,0,0,0c0,0,0,0,0,0c0,0,0,0-0.1,0c0,0-0.1,0.1-0.1,0.1h0c0,0,0,0-0.1,0c0,0,0,0,0,0c0,0,0,0-0.1,0c0,0,0,0,0,0 c0,0,0,0,0,0c0,0,0,0,0,0c0,0,0,0-0.1,0c0,0,0,0-0.1,0c0,0,0,0,0,0c0,0,0,0,0,0c-0.1,0-0.2,0.1-0.2,0.1h0c0,0-0.1,0-0.1,0 c0,0,0,0,0,0c0,0-0.1,0-0.1,0c0,0,0,0,0,0c0,0,0,0,0,0c0,0,0,0-0.1,0c0,0-0.1,0-0.1,0c-0.1,0-0.2,0-0.3,0H15.1 c-0.1,0-0.2,0-0.3,0l-0.2-0.1c-0.1,0-0.1,0-0.2,0c-0.1,0-0.2-0.1-0.3-0.1c0,0,0,0,0,0c0,0-0.1,0-0.1-0.1c-0.1,0-0.1,0-0.2-0.1 c0,0-0.1,0-0.2-0.1c0,0-0.1,0-0.1-0.1c0,0,0,0,0,0v0c0,0,0,0,0,0c0,0-0.1-0.1-0.1-0.1c-0.1,0-0.1-0.1-0.1-0.1l0,0c0,0,0,0,0,0 c0,0-0.1,0-0.1-0.1c0,0-0.1-0.1-0.1-0.1c0,0,0,0,0,0c0,0,0,0,0,0h0c0,0,0,0,0-0.1c0,0,0,0,0,0c0,0,0-0.1-0.1-0.1 c-0.1-0.1-0.2-0.3-0.2-0.4c-0.1-0.1-0.1-0.3-0.2-0.5c0,0,0,0,0-0.1c0,0,0,0,0-0.1c0,0,0-0.1,0-0.1c0,0,0-0.1,0-0.2 c0-0.1,0-0.2,0-0.3v-4.3H73.8z"/><path fill="#e8f0fd" d="M73.8,54.8v4.4c0,0,0,0.1,0,0.1v0c0,0,0,0.1,0,0.1c0,0,0,0.1,0,0.1c0,0,0,0.1,0,0.1v0.1c0,0,0,0.1,0,0.1 c0,0,0,0,0,0.1c0,0,0,0,0,0c0,0,0,0,0,0.1c0,0,0,0.1,0,0.1c0,0,0,0,0,0.1c0,0,0,0.1,0,0.1c0,0,0,0,0,0.1c0,0,0,0,0,0 c0,0.1-0.1,0.1-0.1,0.1c0,0,0,0.1,0,0.1c0,0,0,0,0,0.1v0c0,0,0,0,0,0c0,0,0,0,0,0c0,0.1-0.1,0.1-0.1,0.2l0,0c0,0,0,0,0,0 c0,0,0,0,0,0l-0.2,0.2c0,0-0.1,0.1-0.1,0.1c0,0,0,0,0,0c0,0,0,0,0,0c0,0-0.1,0.1-0.1,0.1c0,0,0,0,0,0c0,0,0,0,0,0 c0,0,0,0-0.1,0c0,0-0.1,0-0.1,0.1h0c0,0,0,0-0.1,0c0,0,0,0,0,0c0,0-0.1,0-0.1,0c0,0,0,0,0,0c0,0,0,0,0,0c0,0,0,0-0.1,0 c0,0,0,0-0.1,0c0,0,0,0-0.1,0c0,0,0,0,0,0c0,0,0,0,0,0c-0.1,0-0.1,0.1-0.2,0.1h0c-0.1,0-0.2,0-0.3,0c0,0,0,0,0,0c0,0,0,0,0,0 c0,0,0,0-0.1,0c0,0-0.1,0-0.1,0c-0.1,0-0.2,0-0.2,0h-5.4c0.1,0,0.1,0,0.2,0c0,0,0.1,0,0.1,0c0,0,0,0,0.1,0c0,0,0,0,0,0 c0,0,0,0,0,0c0.1,0,0.2,0,0.3,0h0c0.1,0,0.1,0,0.2-0.1c0,0,0,0,0,0c0,0,0,0,0,0c0,0,0,0,0.1,0c0,0,0,0,0.1,0c0,0,0,0,0,0 c0,0,0,0,0,0c0,0,0,0,0,0c0,0,0.1,0,0.1,0c0,0,0,0,0,0c0,0,0,0,0.1,0h0c0,0,0.1-0.1,0.1-0.1c0,0,0,0,0.1,0c0,0,0,0,0,0 c0,0,0,0,0,0c0,0,0.1-0.1,0.1-0.1c0,0,0,0,0,0c0,0,0,0,0,0c0,0,0.1-0.1,0.1-0.1l0.1-0.2c0,0,0,0,0,0c0,0,0,0,0,0l0,0 c0.1-0.1,0.1-0.1,0.1-0.2c0,0,0,0,0,0c0,0,0,0,0,0v0c0,0,0,0,0-0.1c0,0,0,0,0-0.1c0,0,0.1-0.1,0.1-0.1c0,0,0,0,0,0 c0,0,0,0,0-0.1c0,0,0-0.1,0-0.1c0,0,0,0,0-0.1c0,0,0-0.1,0-0.1c0,0,0,0,0-0.1c0,0,0,0,0,0c0,0,0,0,0-0.1c0,0,0-0.1,0-0.1v-0.1 c0,0,0-0.1,0-0.1c0-0.1,0-0.1,0-0.1c0-0.1,0-0.1,0-0.1v0c0,0,0-0.1,0-0.1v-4.4H73.8z"/><path fill="#cedbf0" d="M73.8,48.7v10.4c0,0.1,0,0.1,0,0.2c0,0,0,0.1,0,0.1v0c0,0,0,0.1,0,0.1c0,0,0,0.1,0,0.1c0,0,0,0.1,0,0.1 c0,0,0,0,0,0c0,0,0,0.1,0,0.1c0,0,0,0,0,0.1c0,0,0,0,0,0c0,0,0,0,0,0.1c0,0,0,0.1,0,0.1c0,0,0,0,0,0v0c0,0,0,0.1,0,0.1 c0,0,0,0,0,0c0,0,0,0,0,0c0,0,0,0,0,0c0,0.1,0,0.1-0.1,0.1c0,0,0,0.1,0,0.1c0,0,0,0,0,0c0,0,0,0,0,0s0,0,0,0c0,0,0,0,0,0 c0,0,0,0,0,0c0,0-0.1,0.1-0.1,0.2l0,0c0,0,0,0,0,0c0,0,0,0,0,0l-0.2,0.2c0,0-0.1,0.1-0.1,0.1c0,0,0,0,0,0c0,0,0,0,0,0 c0,0,0,0,0,0c0,0-0.1,0.1-0.1,0.1c0,0,0,0,0,0c0,0,0,0,0,0c0,0,0,0-0.1,0c0,0-0.1,0.1-0.1,0.1h0c0,0,0,0-0.1,0c0,0,0,0,0,0 c0,0,0,0-0.1,0c0,0,0,0,0,0c0,0,0,0,0,0c0,0,0,0,0,0c0,0,0,0-0.1,0c0,0,0,0-0.1,0c0,0,0,0,0,0c0,0,0,0,0,0 c-0.1,0-0.2,0.1-0.2,0.1h0c0,0-0.1,0-0.1,0c0,0,0,0,0,0c0,0,0,0,0,0h-0.1c0,0,0,0,0,0c0,0,0,0,0,0c0,0,0,0-0.1,0 c0,0-0.1,0-0.1,0c-0.1,0-0.2,0-0.3,0H57.6c0,0,0,0,0,0c0.3-2.6,1.2-5,2.6-7c2.7-3.8,7-6.2,12-6.2 C72.7,48.6,73.3,48.6,73.8,48.7z" opacity=".3"/><path fill="#fff" d="M58.1,72.7L58.1,72.7c0-1.3-1-2.3-2.3-2.3H30.3c-1.3,0-2.3,1-2.3,2.3v0c0,1.3,1,2.3,2.3,2.3h25.6 C57.1,74.9,58.1,73.9,58.1,72.7z"/><path fill="#fff" d="M58.1,72.7L58.1,72.7c0-1.3-1-2.3-2.3-2.3H30.3c-1.3,0-2.3,1-2.3,2.3v0c0,1.3,1,2.3,2.3,2.3h25.6 C57.1,74.9,58.1,73.9,58.1,72.7z"/><path fill="#e8f0fd" d="M58.1,72.6c0,1.3-1,2.3-2.3,2.3h-3.7c1.3,0,2.3-1,2.3-2.3c0-1.2-1-2.3-2.3-2.3h3.7 C57.1,70.4,58.1,71.4,58.1,72.6z"/><path fill="#e8f0fd" d="M62.8,31.5H43.6c-0.6,0-1.1-0.5-1.1-1.1c0-0.6,0.5-1.1,1.1-1.1h19.2c0.6,0,1.1,0.5,1.1,1.1 C63.9,31,63.4,31.5,62.8,31.5z"/><path fill="#e8f0fd" d="M43.1,38.9c0,0,0,0.1,0,0.1c0,3-1.3,5.7-3.4,7.6c-1.3,1.2-3,2.1-4.8,2.5c-0.7,0.2-1.5,0.2-2.3,0.2 c-5.8,0-10.4-4.7-10.4-10.4c0-5.6,4.4-10.1,9.8-10.4c0.2,0,0.4,0,0.6,0C38.4,28.5,43.1,33.2,43.1,38.9z"/><path fill="#cedbf0" d="M43.1,39.1c0,3-1.3,5.7-3.4,7.6L32,38.9L43.1,39.1z"/><g><path fill="#e8f0fd" d="M53.6,42.4v6.5c0,0.2-0.1,0.3-0.3,0.3h-2.7c-0.2,0-0.3-0.1-0.3-0.3v-6.5c0-0.2,0.1-0.3,0.3-0.3h2.7 C53.5,42.1,53.6,42.2,53.6,42.4z"/><path fill="#e8f0fd" d="M63.7,38.1v10.9c0,0.2-0.1,0.3-0.3,0.3h-2.7c-0.2,0-0.3-0.1-0.3-0.3V38.1c0-0.2,0.1-0.3,0.3-0.3h2.7 C63.6,37.8,63.7,37.9,63.7,38.1z"/></g><g><path fill="#fff" d="M83.9,63.3c0,6.4-5.2,11.7-11.7,11.7c-6.4,0-11.7-5.2-11.7-11.7c0-6.5,5.2-11.7,11.7-11.7 C78.6,51.6,83.9,56.8,83.9,63.3z"/><path fill="#e8f0fd" d="M83.9,63.3c0,6.4-5.2,11.7-11.7,11.7c-0.4,0-0.8,0-1.2-0.1c5.9-0.6,10.4-5.6,10.4-11.6 c0-6-4.6-11-10.4-11.6c0.4-0.1,0.8-0.1,1.2-0.1C78.6,51.6,83.9,56.8,83.9,63.3z"/><g><path fill="#e8f0fd" d="M81.2,62.8c0.3,0.2,0.3,0.7,0,0.9c-1.3,1.1-4.8,3.6-9,3.6c-4.2,0-7.7-2.5-9-3.6c-0.3-0.2-0.3-0.7,0-0.9 c1.3-1.1,4.8-3.6,9-3.6C76.4,59.2,79.9,61.7,81.2,62.8z"/><path fill="#fff" d="M74.2,63.3c0,1.1-0.9,2-2,2c-1.1,0-2-0.9-2-2c0-1.1,0.9-2,2-2C73.3,61.2,74.2,62.1,74.2,63.3z"/></g></g><g><path fill="#e8f0fd" d="M81.2,62.8c0.3,0.2,0.3,0.7,0,0.9c-1.3,1.1-4.8,3.6-9,3.6c-4.2,0-7.7-2.5-9-3.6c-0.3-0.2-0.3-0.7,0-0.9 c1.3-1.1,4.8-3.6,9-3.6C76.4,59.2,79.9,61.7,81.2,62.8z"/><path fill="#1369f0" d="M76.3,63.3c0,2.2-1.8,4.1-4.1,4.1c-2.2,0-4.1-1.8-4.1-4.1s1.8-4.1,4.1-4.1C74.4,59.2,76.3,61,76.3,63.3 z"/><path fill="#fff" d="M74.2,63.3c0,1.1-0.9,2-2,2c-1.1,0-2-0.9-2-2c0-1.1,0.9-2,2-2C73.3,61.2,74.2,62.1,74.2,63.3z"/><g><path fill="#1369f0" d="M9,20.2l-1-0.1l0.1-1c0-0.4-0.3-0.8-0.7-0.8c-0.4,0-0.8,0.3-0.8,0.7l-0.1,1l-1-0.1 c-0.4,0-0.8,0.3-0.8,0.7c0,0.4,0.3,0.8,0.7,0.8l1,0.1l-0.1,1c0,0.4,0.3,0.8,0.7,0.8c0.4,0,0.8-0.3,0.8-0.7l0.1-1l1,0.1 c0.4,0,0.8-0.3,0.8-0.7C9.7,20.6,9.4,20.3,9,20.2z"/><path fill="#1369f0" d="M87.2,24l0-1.1l1.1,0c0.4,0,0.7-0.3,0.8-0.7c0-0.4-0.3-0.7-0.7-0.8l-1.1,0l0-1.1c0-0.4-0.3-0.7-0.7-0.8 c-0.4,0-0.7,0.3-0.8,0.7l0,1.1l-1.1,0c-0.4,0-0.7,0.3-0.8,0.7c0,0.4,0.3,0.7,0.7,0.8l1.1,0l0,1.1c0,0.4,0.3,0.7,0.7,0.8 C86.8,24.7,87.2,24.4,87.2,24z"/><path fill="#1369f0" d="M8.6,74.1C8.6,74.1,8.6,74.1,8.6,74.1l-4.9,0c-0.6,0-1,0.4-1,1c0,0.6,0.4,1,1,1c0,0,0,0,0,0l4.9,0 c0.6,0,1-0.4,1-1C9.6,74.6,9.1,74.1,8.6,74.1z"/><path fill="#1369f0" d="M91.3,73.9C91.3,73.9,91.3,73.9,91.3,73.9l-4.1,0c-0.6,0-1,0.5-1,1s0.4,1,1,1c0,0,0,0,0,0l4.1,0 c0.6,0,1-0.5,1-1S91.9,73.9,91.3,73.9z"/><path fill="#1369f0" d="M43.1,56.7c-0.9,0-1.7,0.7-1.7,1.7c0,0.9,0.7,1.7,1.7,1.7c0.9,0,1.7-0.7,1.7-1.7 C44.7,57.4,44,56.7,43.1,56.7z"/><path fill="#1369f0" d="M32,28.5c-5.5,0.3-9.8,4.8-9.8,10.4c0,5.7,4.7,10.4,10.4,10.4c2.7,0,5.2-1,7-2.7L32,38.9V28.5z"/><path fill="#1369f0" d="M48.2,40.4h-2.7c-0.2,0-0.3,0.1-0.3,0.3v8.2c0,0.2,0.1,0.3,0.3,0.3h2.7c0.2,0,0.3-0.1,0.3-0.3v-8.2 C48.4,40.5,48.3,40.4,48.2,40.4z"/><path fill="#1369f0" d="M58.5,33.2h-2.7c-0.2,0-0.3,0.1-0.3,0.3v15.5c0,0.2,0.1,0.3,0.3,0.3h2.7c0.2,0,0.3-0.1,0.3-0.3V33.4 C58.8,33.3,58.6,33.2,58.5,33.2z"/><path fill="#1369f0" d="M84.9,63.3c0-6.1-4.3-11.2-10-12.4V20.7c0-0.9-0.3-1.7-0.9-2.4c0,0-0.1-0.1-0.1-0.1L73.7,18 C73,17.3,72,16.9,71,16.9H15.1c-1,0-2,0.4-2.7,1.1c-0.7,0.7-1.1,1.7-1.1,2.7c0,16.4,0,21.9,0,38.4c0,2.2,1.8,3.8,3.8,3.8 c27.3,0,17.9,0,19.9,0c0.2,2-0.3,4.4-2.1,6.5h-2.7c-1.8,0-3.3,1.5-3.3,3.3c0,0.5,0.1,1,0.3,1.4l-12.7,0c-0.6,0-1,0.5-1,1 s0.4,1,1,1c0,0,0,0,0,0l67.2-0.1c0.6,0,1-0.5,1-1s-0.4-1-1-1c0,0,0,0,0,0L79,74C82.5,71.7,84.9,67.8,84.9,63.3z M13.8,19.4 c0.3-0.3,0.8-0.5,1.3-0.5H71c0.5,0,0.9,0.2,1.3,0.6l0.1,0.1c0.3,0.3,0.4,0.7,0.4,1.1l0,30c-0.2,0-0.4,0-0.6,0 c-1,0-1.9,0.1-2.8,0.3V23c0-0.6-0.4-1-1-1H17.7c-0.6,0-1,0.4-1,1v30.8h-3.4V20.7C13.3,20.2,13.5,19.8,13.8,19.4z M63.8,53.8 H18.7V24h48.7v27.5C66.1,52.1,64.8,52.9,63.8,53.8z M13.3,59.1c0-0.2,0-3.4,0-3.2c3,0-14,0,48.7,0c-1.1,1.5-1.8,3.2-2.2,5 l-44.7,0C14.1,60.9,13.3,60,13.3,59.1z M37,62.9h12.1c-0.2,2,0.3,4.4,1.6,6.5H35.4C36.7,67.2,37.2,64.9,37,62.9z M30.3,71.4 h25.6c0.7,0,1.3,0.6,1.3,1.3s-0.6,1.3-1.3,1.3H30.3c-0.7,0-1.3-0.6-1.3-1.3S29.6,71.4,30.3,71.4z M58.8,74 c0.2-0.4,0.3-0.9,0.3-1.3c0-1.8-1.5-3.3-3.3-3.3h-2.7c-1.8-2.1-2.3-4.5-2.1-6.5h8.4c0,0.1,0,0.3,0,0.4c0,4.5,2.4,8.5,6,10.7 L58.8,74z M72.2,73.9c-5.9,0-10.7-4.8-10.7-10.7c0-5.9,4.8-10.7,10.7-10.7c5.9,0,10.7,4.8,10.7,10.7 C82.9,69.1,78.1,73.9,72.2,73.9z"/><path fill="#1369f0" d="M73,62c-0.2,0-0.4,0.2-0.4,0.4c0,0.2,0.2,0.4,0.4,0.4c0.2,0,0.4-0.2,0.4-0.4C73.4,62.2,73.3,62,73,62z"/><path fill="#1369f0" d="M72.5,62.9c-0.2,0-0.3,0.1-0.3,0.3c0,0.2,0.1,0.3,0.3,0.3c0.2,0,0.3-0.1,0.3-0.3 C72.8,63,72.6,62.9,72.5,62.9z"/></g></g></svg>