<svg xmlns="http://www.w3.org/2000/svg"  viewBox="0 0 95 95" width="66px" height="66px"><path fill="#e8f0fd" d="M82.7,35.7c-4.3,2.9-9.3,4.6-13.5,7.6c-4.2,3.1-7.5,8.3-5.9,13.3c1,3.4,4,5.7,5.5,8.9 c1.9,4.2,0.8,9.5-2.4,12.9c-3.2,3.3-8.2,4.7-12.7,3.9c-4.6-0.8-8.6-3.7-11.3-7.4c-1.8-2.5-3-5.4-4.8-7.9 c-1.7-2.5-4.2-4.8-7.3-5.3c-5.9-0.8-11,5.5-17,5.1c-3.8-0.3-7.1-3.5-7.9-7.2c-0.8-3.7,0.5-7.7,3-10.6c2.5-2.9,6-4.8,9.7-5.8 c2.5-0.7,5.1-1.1,7.6-2c2.5-0.9,4.8-2.4,6.1-4.7c3-5.8-2.3-13.1,0-19.1c1.3-3.5,5.2-5.7,8.9-5.6c3.7,0.1,7.3,2.1,9.6,5 c1.4,1.7,3.2,8.7,4.9,9.3c2,0.6,8.5-5.9,10.3-7.1c4.1-2.6,8.8-4.6,13.6-4.3c4.8,0.4,9.6,3.7,10.5,8.4 C90.6,27.9,87,32.8,82.7,35.7z"/><path fill="#e8f0fd" d="M37,79.4c0-0.3,0.3-0.6,0.6-0.6l0.9,0l0-0.9c0-0.3,0.3-0.6,0.6-0.6c0.3,0,0.6,0.3,0.6,0.6l0,0.9l0.9,0 c0.3,0,0.6,0.3,0.6,0.6c0,0.3-0.3,0.6-0.6,0.6l-0.9,0l0,0.9c0,0.3-0.3,0.6-0.6,0.6c-0.3,0-0.6-0.3-0.6-0.6l0-0.9l-0.9,0 C37.3,80,37,79.8,37,79.4z"/><path fill="#cedbf0" d="M17.6,26c0,0.4-0.4,0.7-0.8,0.7l-1.1,0l0,1.1c0,0.4-0.4,0.7-0.8,0.7c-0.4,0-0.7-0.3-0.7-0.8l0-1.1l-1.1,0 c-0.4,0-0.7-0.4-0.7-0.8c0-0.4,0.3-0.7,0.8-0.7l1.1,0l0-1.1c0-0.4,0.4-0.7,0.8-0.7c0.4,0,0.7,0.4,0.7,0.8l0,1.1l1.1,0 C17.3,25.2,17.7,25.6,17.6,26z"/><path fill="#fff" d="M77.6,76.8c0,3.1-2.5,5.6-5.6,5.6H23c-3.1,0-5.6-2.5-5.6-5.6H77.6z"/><path fill="#fff" d="M77.6,45.8v31H28.8v-31c0-0.7,0.2-1.3,0.5-1.8c0,0,0,0,0,0c0.1-0.2,0.2-0.3,0.4-0.5 c0.6-0.6,1.4-0.9,2.2-0.9h42.4c0.3,0,0.6,0,0.9,0.1c0.2,0.1,0.4,0.1,0.6,0.2c0.2,0.1,0.3,0.2,0.5,0.3c0,0,0.1,0.1,0.1,0.1 c0,0,0.1,0.1,0.1,0.1c0.1,0.1,0.1,0.2,0.2,0.2c0.1,0.1,0.1,0.2,0.2,0.2c0.1,0.1,0.1,0.1,0.1,0.2c0.1,0.1,0.1,0.1,0.1,0.2 c0.1,0.1,0.1,0.3,0.2,0.4C77.6,45.2,77.6,45.5,77.6,45.8z"/><path fill="#e8f0fd" d="M77.6,45.8v31h-2.6v-31c0-0.6-0.2-1.3-0.5-1.8c-0.1-0.2-0.2-0.3-0.4-0.5c-0.6-0.6-1.4-0.9-2.3-0.9h2.6 c0.3,0,0.6,0,0.9,0.1c0.2,0.1,0.4,0.1,0.6,0.2c0.2,0.1,0.3,0.2,0.5,0.3c0,0,0.1,0.1,0.1,0.1c0,0,0.1,0.1,0.1,0.1v0 c0.1,0.1,0.1,0.2,0.2,0.2c0.1,0.1,0.1,0.2,0.2,0.2c0.1,0.1,0.1,0.1,0.1,0.2c0.1,0.1,0.1,0.1,0.1,0.2c0.1,0.1,0.1,0.3,0.2,0.4 C77.6,45.2,77.6,45.5,77.6,45.8z"/><path fill="#cedbf0" d="M77.6,76.8c0,3.1-2.5,5.6-5.6,5.6H60.3c-0.3-0.7-0.5-1.4-0.5-2.2v-3.4H77.6z"/><path fill="#e8f0fd" d="M77.6,76.8c0,3.1-2.5,5.6-5.6,5.6H60.1c-3.1,0-5.6-2.5-5.6-5.6H77.6z"/><path fill="#fff" d="M72.5,27.8L72.5,27.8l-0.3,0.6L69.7,34l-0.1,0.3v8.4l0,4.7v16.9l0,12.5H37.1V31.1c0-1.8,1.5-3.3,3.3-3.3 H72.5z"/><path fill="#fff" d="M72.5,27.8L72.5,27.8l-0.3,0.6L69.7,34l-0.1,0.3v8.4l0,4.7v16.9l0,12.5H37.1V31.1c0-1.8,1.5-3.3,3.3-3.3 H72.5z"/><rect width="3.1" height="49.1" x="66.2" y="27.8" fill="#e8f0fd"/><path fill="#e8f0fd" d="M69.6,31.2v5.5h6.8v-5.5c0-1.9-1.5-3.4-3.4-3.4h0C71.1,27.8,69.6,29.3,69.6,31.2z"/><path fill="#fff" d="M76.4,31.2v5.5h-2.7v-5.5c0-1.4-0.8-2.6-2.1-3.1c0.4-0.2,0.9-0.3,1.4-0.3C74.9,27.8,76.4,29.3,76.4,31.2z"/><g><path fill="#e8f0fd" d="M46.6,53.4c-0.6,0-1-0.4-1-1v-3l-1.4-1c-0.5-0.4-0.9-1-0.9-1.7v-2.2c0-0.6,0.4-1,1-1s1,0.4,1,1v2.2l1.4,1 c0.5,0.4,0.9,1,0.9,1.7v3C47.6,52.9,47.2,53.4,46.6,53.4z"/><path fill="#1369f0" d="M47.1,40.1v4c0,0.4-0.3,0.7-0.7,0.7h-4.5c-0.4,0-0.7-0.3-0.7-0.7v-4c0-0.4,0.3-0.7,0.7-0.7h4.5 C46.8,39.5,47.1,39.8,47.1,40.1z"/><path fill="#fff" d="M45.3,42.1c0,0.6-0.5,1.1-1.1,1.1s-1.1-0.5-1.1-1.1s0.5-1.1,1.1-1.1S45.3,41.5,45.3,42.1z"/><path fill="#e8f0fd" d="M60,53.4c-0.6,0-1-0.4-1-1v-3c0-0.7,0.3-1.3,0.9-1.7l1.3-1l0-2.3c0-0.6,0.4-1,1-1s1,0.4,1,1v2.2 c0,0.7-0.3,1.3-0.9,1.7l-1.3,1l0,3C61,52.9,60.6,53.4,60,53.4z"/><path fill="#e8f0fd" d="M53.3,53.4c-0.6,0-1-0.4-1-1v-10c0-0.6,0.4-1,1-1s1,0.4,1,1v10C54.3,52.9,53.9,53.4,53.3,53.4z"/><path fill="#1369f0" d="M56.3,40.1v4c0,0.4-0.3,0.7-0.7,0.7h-4.5c-0.4,0-0.7-0.3-0.7-0.7v-4c0-0.4,0.3-0.7,0.7-0.7h4.5 C56,39.5,56.3,39.8,56.3,40.1z"/><path fill="#fff" d="M54.4,42.1c0,0.6-0.5,1.1-1.1,1.1s-1.1-0.5-1.1-1.1s0.5-1.1,1.1-1.1S54.4,41.5,54.4,42.1z"/><path fill="#1369f0" d="M65.2,40.1v4c0,0.4-0.3,0.7-0.7,0.7H60c-0.4,0-0.7-0.3-0.7-0.7v-4c0-0.4,0.3-0.7,0.7-0.7h4.5 C64.9,39.5,65.2,39.8,65.2,40.1z"/><path fill="#fff" d="M63.4,42.1c0,0.6-0.5,1.1-1.1,1.1c-0.6,0-1.1-0.5-1.1-1.1s0.5-1.1,1.1-1.1C62.9,41,63.4,41.5,63.4,42.1z"/><path fill="#fff" d="M63.5,54v3.9c0,0.9-0.7,1.6-1.6,1.6H44.8c-0.9,0-1.6-0.7-1.6-1.6V54c0-0.9,0.7-1.6,1.6-1.6h17.1 C62.8,52.4,63.5,53.1,63.5,54z"/><path fill="#e8f0fd" d="M63.5,54v4c0,0.9-0.7,1.6-1.6,1.6h-1.7c0.9,0,1.6-0.7,1.6-1.6v-4c0-0.9-0.7-1.6-1.6-1.6h1.7 C62.8,52.4,63.5,53.1,63.5,54z"/><path fill="#1369f0" d="M63.5,54v3.9c0,0.9-0.7,1.6-1.6,1.6H44.8c-0.9,0-1.6-0.7-1.6-1.6V54c0-0.9,0.7-1.6,1.6-1.6h17.1 C62.8,52.4,63.5,53.1,63.5,54z"/><path fill="#fff" d="M63.5,61.1v3.9c0,0.9-0.7,1.6-1.6,1.6H44.8c-0.9,0-1.6-0.7-1.6-1.6v-3.9c0-0.9,0.7-1.6,1.6-1.6h17.1 C62.8,59.5,63.5,60.2,63.5,61.1z"/><path fill="#e8f0fd" d="M63.5,61.2v4c0,0.9-0.7,1.6-1.6,1.6h-1.7c0.9,0,1.6-0.7,1.6-1.6v-4c0-0.9-0.7-1.6-1.6-1.6h1.7 C62.8,59.6,63.5,60.3,63.5,61.2z"/><path fill="#e8f0fd" d="M63.5,61.1v3.9c0,0.9-0.7,1.6-1.6,1.6H44.8c-0.9,0-1.6-0.7-1.6-1.6v-3.9c0-0.9,0.7-1.6,1.6-1.6h17.1 C62.8,59.5,63.5,60.2,63.5,61.1z"/><path fill="#e8f0fd" d="M56.3,58c-0.3,0-0.5-0.2-0.5-0.5v-3c0-0.3,0.2-0.5,0.5-0.5c0.3,0,0.5,0.2,0.5,0.5v3 C56.8,57.7,56.6,58,56.3,58z"/><path fill="#e8f0fd" d="M58.6,58c-0.3,0-0.5-0.2-0.5-0.5v-3c0-0.3,0.2-0.5,0.5-0.5s0.5,0.2,0.5,0.5v3C59.1,57.7,58.9,58,58.6,58z"/><path fill="#e8f0fd" d="M60.9,58c-0.3,0-0.5-0.2-0.5-0.5v-3c0-0.3,0.2-0.5,0.5-0.5c0.3,0,0.5,0.2,0.5,0.5v3 C61.4,57.7,61.2,58,60.9,58z"/><path fill="#e8f0fd" d="M47.9,55.9c0,0.7-0.6,1.3-1.3,1.3c-0.7,0-1.3-0.6-1.3-1.3c0-0.7,0.6-1.3,1.3-1.3 C47.3,54.6,47.9,55.2,47.9,55.9z"/><path fill="#e8f0fd" d="M51.5,55.9c0,0.7-0.6,1.3-1.3,1.3c-0.7,0-1.3-0.6-1.3-1.3c0-0.7,0.6-1.3,1.3-1.3 C51,54.6,51.5,55.2,51.5,55.9z"/><path fill="#1369f0" d="M83.1,21.4l-1.1,0l0-1.1c0-0.4-0.3-0.7-0.7-0.8c-0.4,0-0.7,0.3-0.8,0.7l0,1.1l-1.1,0 c-0.4,0-0.7,0.3-0.8,0.7c0,0.4,0.3,0.7,0.7,0.8l1.1,0l0,1.1c0,0.4,0.3,0.7,0.7,0.8c0.4,0,0.7-0.3,0.8-0.7l0-1.1l1.1,0 c0.4,0,0.7-0.3,0.8-0.7C83.8,21.8,83.5,21.5,83.1,21.4z"/><path fill="#1369f0" d="M14.3,54.8l-0.4-1l1-0.4c0.4-0.2,0.5-0.6,0.4-1c-0.2-0.4-0.6-0.5-1-0.4l-1,0.4l-0.4-1 c-0.2-0.4-0.6-0.5-1-0.4c-0.4,0.2-0.5,0.6-0.4,1l0.4,1l-1,0.4c-0.4,0.2-0.5,0.6-0.4,1c0.2,0.4,0.6,0.6,1,0.4l1-0.4l0.4,1 c0.2,0.4,0.6,0.5,1,0.4C14.2,55.6,14.4,55.2,14.3,54.8z"/><path fill="#1369f0" d="M81.4,81.5l-4.7,0c1.2-1.2,1.9-2.8,1.9-4.7v0c0,0,0,0,0,0v-31c0-2.2-1.8-4.1-4.2-4.1h-3.9v-4h5.8 c0.6,0,1-0.5,1-1v-5.5c0-2.4-2-4.4-4.4-4.4c-0.1,0-0.3,0-0.4,0c0,0-0.1,0-0.1,0H40.4c-2.4,0-4.3,1.9-4.3,4.3v10.6H32 c-2.3,0-4.2,1.9-4.2,4.1v30H17.4c-0.6,0-1,0.4-1,1c0,1.8,0.7,3.4,1.9,4.6l-3.2,0c0,0,0,0,0,0c-0.6,0-1,0.4-1,1c0,0.6,0.4,1,1,1 l66.4,0.1c0,0,0,0,0,0c0.6,0,1-0.4,1-1C82.4,82,82,81.5,81.4,81.5z M70.6,48.4h1.3v27.4h-1.3v0L70.6,48.4z M36.1,75.8h-1.5 V48.4h1.5V75.8z M76.5,77.8c-0.5,2.1-2.3,3.6-4.5,3.6H60.1c-2.2,0-4-1.5-4.5-3.6H76.5z M76.6,45.8v30h-2.7V47.4 c0-0.6-0.4-1-1-1h-2.3v0l0-2.7h3.9C75.7,43.7,76.6,44.7,76.6,45.8z M73,28.8h0.1v0c1.3,0.1,2.3,1.1,2.3,2.4v4.5 c-0.3,0-5.1,0-4.8,0v-4.5C70.6,29.9,71.6,28.8,73,28.8z M38.1,31.1c0-1.3,1-2.3,2.3-2.3h28.9c-0.5,0.7-0.7,1.5-0.7,2.4 c0,59.9,0,40.8,0,44.6H38.1V31.1z M29.8,45.8c0-1.2,0.9-2.1,2.2-2.1h4.1v2.7h-2.5c-0.6,0-1,0.4-1,1v28.4h-2.7V45.8z M30.7,77.8 l0.4,0.9c0.1,0.4,0.5,0.6,0.9,0.6h9.3c0.4,0,0.8-0.2,0.9-0.6l0.4-0.9h11.1c0.2,1.4,0.9,2.6,1.8,3.6c0,0,0,0,0,0H23 c-2.2,0-4.1-1.6-4.5-3.6H30.7z"/><path fill="#1369f0" d="M7.5,81.5l-5,0c0,0,0,0,0,0c-0.6,0-1,0.4-1,1c0,0.6,0.4,1,1,1l5,0c0,0,0,0,0,0c0.6,0,1-0.4,1-1 C8.5,81.9,8,81.5,7.5,81.5z"/><path fill="#1369f0" d="M92.5,81.5l-5.9,0c0,0,0,0,0,0c-0.6,0-1,0.4-1,1c0,0.6,0.4,1,1,1l5.9,0c0,0,0,0,0,0c0.6,0,1-0.4,1-1 C93.5,82,93.1,81.5,92.5,81.5z"/><path fill="#1369f0" d="M46.6,61.8c-0.7,0-1.3,0.6-1.3,1.3c0,0.7,0.6,1.3,1.3,1.3c0.7,0,1.3-0.6,1.3-1.3 C47.9,62.4,47.3,61.8,46.6,61.8z"/><path fill="#1369f0" d="M50.2,61.8c-0.7,0-1.3,0.6-1.3,1.3c0,0.7,0.6,1.3,1.3,1.3c0.7,0,1.3-0.6,1.3-1.3 C51.5,62.4,51,61.8,50.2,61.8z"/><path fill="#1369f0" d="M56.3,61.1c-0.3,0-0.5,0.2-0.5,0.5v3c0,0.3,0.2,0.5,0.5,0.5s0.5-0.2,0.5-0.5v-3 C56.8,61.3,56.6,61.1,56.3,61.1z"/><path fill="#1369f0" d="M58.6,61.1c-0.3,0-0.5,0.2-0.5,0.5v3c0,0.3,0.2,0.5,0.5,0.5c0.3,0,0.5-0.2,0.5-0.5v-3 C59.1,61.3,58.9,61.1,58.6,61.1z"/><path fill="#1369f0" d="M60.9,61.1c-0.3,0-0.5,0.2-0.5,0.5v3c0,0.3,0.2,0.5,0.5,0.5s0.5-0.2,0.5-0.5v-3 C61.4,61.3,61.2,61.1,60.9,61.1z"/><g><path fill="#e8f0fd" d="M64.2,35.7h-22c-0.6,0-1-0.4-1-1s0.4-1,1-1h22c0.6,0,1,0.4,1,1S64.8,35.7,64.2,35.7z"/><path fill="#e8f0fd" d="M64.2,72.5h-22c-0.6,0-1-0.4-1-1s0.4-1,1-1h22c0.6,0,1,0.4,1,1S64.8,72.5,64.2,72.5z"/></g></g></svg>