<svg xmlns="http://www.w3.org/2000/svg"  viewBox="0 0 95 95" width="66px" height="66px"><path fill="#e8f0fd" d="M86.3,47.7c0,4.9-4.2,8.9-8.7,10.5c-4.5,1.6-9.5,1.5-14.3,2s-10.4,4.9-13.8,8.4c-2.2,2.3-3.3,5.4-4.9,8.2 c-1.6,2.8-3.8,5.5-6.9,6.2c-3.4,0.7-6.9-1.5-8.9-4.3c-2-2.9-2.9-6.4-3.9-9.8c-1-3.4-1.5-10.1-3.9-12.7c-2.1-2.2-4.9-3.6-7.6-5 c-2.7-1.4-5.5-2.9-7.2-5.4c-1.8-2.5-2.3-6.1-0.4-8.5c2.4-3,6.8-2.6,10.6-2.9c7.1-0.6,13.7-4.9,17.3-11c1.3-2.3,2.2-4.8,3.7-7.1 c1.5-2.2,3.6-4.2,6.3-4.5c3.7-0.4,6.8,2.6,9.4,5.3c4.9,5.2,9.6,11.8,16,15.2C75.4,35.7,86.3,38.7,86.3,47.7z"/><path fill="#e8f0fd" d="M12.1,24.7c-0.1,0.4-0.5,0.6-0.9,0.6l-1-0.2l-0.2,1c-0.1,0.4-0.5,0.6-0.9,0.6c-0.4-0.1-0.6-0.5-0.6-0.9 l0.2-1l-1-0.2c-0.4-0.1-0.6-0.5-0.6-0.9C7.2,23.3,7.6,23,8,23.1l1,0.2l0.2-1c0.1-0.4,0.5-0.6,0.9-0.6c0.4,0.1,0.6,0.5,0.6,0.9 l-0.2,1l1,0.2C11.9,23.9,12.1,24.3,12.1,24.7z"/><path fill="#e8f0fd" d="M58.4,79.9c-0.1,0.4-0.5,0.6-0.9,0.6l-1-0.2l-0.2,1c-0.1,0.4-0.5,0.6-0.9,0.6c-0.4-0.1-0.6-0.5-0.6-0.9 l0.2-1l-1-0.2c-0.4-0.1-0.6-0.5-0.6-0.9c0.1-0.4,0.5-0.6,0.9-0.6l1,0.2l0.2-1c0.1-0.4,0.5-0.6,0.9-0.6c0.4,0.1,0.6,0.5,0.6,0.9 l-0.2,1l1,0.2C58.3,79.1,58.5,79.5,58.4,79.9z"/><path fill="#fff" d="M50.1,44.8c-0.1-2-0.1-4.1,0.1-6.1c0-0.3,0.1-0.6,0.1-0.9c0-0.9-0.7-1.6-1.6-1.6l0,0 c-0.7,0-1.3,0.4-1.7,1l-2.3,4.3c-0.4,0.6-0.9,1.2-1.6,1.4c0,0,0,0,0,0c-3.3,0.9-5.6,2.8-6.9,4.2l0.1,13.3 c4.8,2.4,12.8,1.5,12.8,1.5"/><path fill="#fff" d="M75.6,34.7v33.2H21.7V34.7c0-1.9,1.6-3.5,3.5-3.5h46.9C74.1,31.2,75.6,32.8,75.6,34.7z"/><path fill="#fff" d="M75.6,67.9L75.6,67.9c0,3.4-2.8,6.2-6.2,6.2H15.3c-3.4,0-6.2-2.8-6.2-6.2v0H75.6z"/><path fill="#e8f0fd" d="M75.6,67.9H50.1c0,3.4,2.8,6.2,6.2,6.2h13.1C72.9,74.2,75.6,71.4,75.6,67.9L75.6,67.9z"/><path fill="#fff" d="M36.2,47.2c0-1-0.8-1.8-1.8-1.8l-7.5,0v16.4l7.7,0c1,0,1.8-0.8,1.8-1.8L36.2,47.2z"/><path fill="#fff" d="M36.2,47.2c0-1-0.8-1.8-1.8-1.8l-7.5,0v16.4l7.7,0c1,0,1.8-0.8,1.8-1.8L36.2,47.2z"/><path fill="#fff" d="M36.2,47.2c0-1-0.8-1.8-1.8-1.8l-7.5,0v16.4l7.7,0c1,0,1.8-0.8,1.8-1.8L36.2,47.2z"/><path fill="#e8f0fd" d="M30.6,61.8c-1,0-1.8-0.8-1.8-1.8l-0.2-12.8c0-0.9,0.7-1.7,1.5-1.8l-3.1,0v16.4l7.7,0c0.1,0,0.2,0,0.2,0 L30.6,61.8z"/><path fill="#fff" d="M50.1,44.8c-0.1-2-0.1-4.1,0.1-6.1c0-0.3,0.1-0.6,0.1-0.9c0-0.9-0.7-1.6-1.6-1.6l0,0 c-0.7,0-1.3,0.4-1.7,1l-2.3,4.3c-0.4,0.6-0.9,1.2-1.6,1.4c0,0,0,0,0,0c-3.3,0.9-5.6,2.8-6.9,4.2l0.1,13.3 c4.8,2.4,12.8,1.5,12.8,1.5"/><path fill="#fff" d="M55.7,40.7l0.1,10.8c0,1.6-1.3,2.9-2.9,2.9h0c-1.6,0-2.9-1.3-2.9-2.9l-0.1-10.9L55.7,40.7z"/><path fill="#fff" d="M47.6,60l0,0.1c0,1.1,0.9,2.1,2,2.1l5.5,0.2c1.1,0,2-1,2-2.1l0-0.1c0-1.1-0.9-2.1-2-2.1l-5.5-0.2 C48.5,57.9,47.6,58.9,47.6,60z"/><path fill="#fff" d="M47.6,60l0,0.1c0,1.1,0.9,2.1,2,2.1l5.5,0.2c1.1,0,2-1,2-2.1l0-0.1c0-1.1-0.9-2.1-2-2.1l-5.5-0.2 C48.5,57.9,47.6,58.9,47.6,60z"/><path fill="#fff" d="M47.4,47.1l0,0.1c0,1.1,0.9,2.1,2,2.1l7,0.2c1.1,0,2-1,2-2.1l0-0.1c0-1.1-0.9-2.1-2-2.1l-7-0.2 C48.3,45,47.4,46,47.4,47.1z"/><path fill="#fff" d="M47.4,47.1l0,0.1c0,1.1,0.9,2.1,2,2.1l7,0.2c1.1,0,2-1,2-2.1l0-0.1c0-1.1-0.9-2.1-2-2.1l-7-0.2 C48.3,45,47.4,46,47.4,47.1z"/><path fill="#fff" d="M47.5,55.7l0,0.1c0,1.1,0.9,2.1,2,2.1l7,0.2c1.1,0,2-1,2-2.1l0-0.1c0-1.1-0.9-2.1-2-2.1l-7-0.2 C48.4,53.7,47.5,54.6,47.5,55.7z"/><path fill="#fff" d="M47.5,55.7l0,0.1c0,1.1,0.9,2.1,2,2.1l7,0.2c1.1,0,2-1,2-2.1l0-0.1c0-1.1-0.9-2.1-2-2.1l-7-0.2 C48.4,53.7,47.5,54.6,47.5,55.7z"/><path fill="#fff" d="M47.5,51.4l0,0.1c0,1.1,0.9,2.1,2,2.1l8.8,0.1c1.1,0,2-1,2-2.1l0-0.1c0-1.1-0.9-2.1-2-2.1l-8.8-0.1 C48.3,49.3,47.5,50.3,47.5,51.4z"/><path fill="#fff" d="M47.5,51.4l0,0.1c0,1.1,0.9,2.1,2,2.1l8.8,0.1c1.1,0,2-1,2-2.1l0-0.1c0-1.1-0.9-2.1-2-2.1l-8.8-0.1 C48.3,49.3,47.5,50.3,47.5,51.4z"/><path fill="#fff" d="M47.6,60l0,0.1c0,1.1,0.9,2.1,2,2.1l5.5,0.2c1.1,0,2-1,2-2.1l0-0.1c0-1.1-0.9-2.1-2-2.1l-5.5-0.2 C48.5,57.9,47.6,58.9,47.6,60z"/><path fill="#fff" d="M47.6,60l0,0.1c0,1.1,0.9,2.1,2,2.1l5.5,0.2c1.1,0,2-1,2-2.1l0-0.1c0-1.1-0.9-2.1-2-2.1l-5.5-0.2 C48.5,57.9,47.6,58.9,47.6,60z"/><path fill="#fff" d="M47.4,47.1l0,0.1c0,1.1,0.9,2.1,2,2.1l7,0.2c1.1,0,2-1,2-2.1l0-0.1c0-1.1-0.9-2.1-2-2.1l-7-0.2 C48.3,45,47.4,46,47.4,47.1z"/><path fill="#fff" d="M47.5,55.7l0,0.1c0,1.1,0.9,2.1,2,2.1l7,0.2c1.1,0,2-1,2-2.1l0-0.1c0-1.1-0.9-2.1-2-2.1l-7-0.2 C48.4,53.7,47.5,54.6,47.5,55.7z"/><path fill="#fff" d="M47.5,55.7l0,0.1c0,1.1,0.9,2.1,2,2.1l7,0.2c1.1,0,2-1,2-2.1l0-0.1c0-1.1-0.9-2.1-2-2.1l-7-0.2 C48.4,53.7,47.5,54.6,47.5,55.7z"/><path fill="#fff" d="M47.5,51.4l0,0.1c0,1.1,0.9,2.1,2,2.1l8.8,0.1c1.1,0,2-1,2-2.1l0-0.1c0-1.1-0.9-2.1-2-2.1l-8.8-0.1 C48.3,49.3,47.5,50.3,47.5,51.4z"/><path fill="#fff" d="M47.5,51.4l0,0.1c0,1.1,0.9,2.1,2,2.1l8.8,0.1c1.1,0,2-1,2-2.1l0-0.1c0-1.1-0.9-2.1-2-2.1l-8.8-0.1 C48.3,49.3,47.5,50.3,47.5,51.4z"/><path fill="#fff" d="M36.2,47.2c0-1-0.8-1.8-1.8-1.8l-7.5,0v16.4l7.7,0c1,0,1.8-0.8,1.8-1.8L36.2,47.2z"/><path fill="#fff" d="M36.2,47.2c0-1-0.8-1.8-1.8-1.8l-7.5,0v16.4l7.7,0c1,0,1.8-0.8,1.8-1.8L36.2,47.2z"/><path fill="#fff" d="M36.2,47.2c0-1-0.8-1.8-1.8-1.8l-7.5,0v16.4l7.7,0c1,0,1.8-0.8,1.8-1.8L36.2,47.2z"/><path fill="#e8f0fd" d="M36.4,60c0,1-0.8,1.8-1.8,1.8H32c1,0,1.8-0.8,1.8-1.8l-0.2-12.8c0-1-0.8-1.8-1.8-1.8h2.7 c1,0,1.8,0.8,1.8,1.8L36.4,60z"/><g><path fill="#fff" d="M48.1,29.5l0,9.3l-3.1,0c-1,0-1.9-0.8-1.9-1.9l0-5.5c0-1,0.8-1.9,1.9-1.9L48.1,29.5z"/></g><g><path fill="#fff" d="M48.1,29l0,10.3c0,0.8,0.6,1.4,1.4,1.4l8.1,0l0-13.1l-8.1,0C48.7,27.6,48.1,28.2,48.1,29z"/></g><g><path fill="#fff" d="M75.6,18.9l0.1,30.4c-4.7-5.1-10.9-7.2-18.1-8.6l0-13.1C64.4,26.1,70.1,23.3,75.6,18.9z"/></g><g><path fill="#fff" d="M80.9,28.2l0,11.8c3.2,0,5.9-2.7,5.8-5.9S84.1,28.2,80.9,28.2z"/></g><g><path fill="#fff" d="M48.1,29.5l0,9.3l-3.1,0c-1,0-1.9-0.8-1.9-1.9l0-5.5c0-1,0.8-1.9,1.9-1.9L48.1,29.5z"/></g><g><path fill="#fff" d="M48.1,29l0,10.3c0,0.8,0.6,1.4,1.4,1.4l8.1,0l0-13.1l-8.1,0C48.7,27.6,48.1,28.2,48.1,29z"/></g><g><path fill="#fff" d="M75.6,18.9l0.1,30.4c-4.7-5.1-10.9-7.2-18.1-8.6l0-13.1C64.4,26.1,70.1,23.3,75.6,18.9z"/></g><g><path fill="#e8f0fd" d="M75.7,49.3c-4.7-5.1-10.9-7.2-18.1-8.6v0c0.3,0,0.7,0,1,0c8,0,14.4-7.6,14.4-17c0-1-0.1-1.9-0.2-2.8 c0.9-0.6,1.8-1.3,2.8-2.1L75.7,49.3z"/></g><g><path fill="#fff" d="M80.9,28.2l0,11.8c3.2,0,5.9-2.7,5.8-5.9S84.1,28.2,80.9,28.2z"/></g><g><path fill="#fff" d="M80.9,19.4v29.4c0,1.4-1.2,2.6-2.6,2.6h0c-1.4,0-2.6-1.2-2.6-2.6V19.4c0-1.4,1.2-2.6,2.6-2.6h0 C79.7,16.8,80.9,18,80.9,19.4z"/></g><g><path fill="#e8f0fd" d="M80.9,19.4v29.4c0,1.4-1.2,2.6-2.6,2.6c-0.4,0-0.8-0.1-1.1-0.2c0.9-0.4,1.5-1.3,1.5-2.4V19.4 c0-0.7-0.3-1.4-0.8-1.8c-0.2-0.2-0.5-0.4-0.7-0.5c0.3-0.1,0.7-0.2,1.1-0.2c0.7,0,1.4,0.3,1.8,0.8C80.6,18,80.9,18.7,80.9,19.4z"/></g><g><path fill="#fff" d="M55.7,40.7l0.1,10.8c0,1.6-1.3,2.9-2.9,2.9h0c-1.6,0-2.9-1.3-2.9-2.9l-0.1-10.9L55.7,40.7z"/></g><g><path fill="#fff" d="M47.6,60l0,0.1c0,1.1,0.9,2.1,2,2.1l5.5,0.2c1.1,0,2-1,2-2.1l0-0.1c0-1.1-0.9-2.1-2-2.1l-5.5-0.2 C48.5,57.9,47.6,58.9,47.6,60z"/><path fill="#fff" d="M47.6,60l0,0.1c0,1.1,0.9,2.1,2,2.1l5.5,0.2c1.1,0,2-1,2-2.1l0-0.1c0-1.1-0.9-2.1-2-2.1l-5.5-0.2 C48.5,57.9,47.6,58.9,47.6,60z"/><path fill="#fff" d="M47.4,47.1l0,0.1c0,1.1,0.9,2.1,2,2.1l7,0.2c1.1,0,2-1,2-2.1l0-0.1c0-1.1-0.9-2.1-2-2.1l-7-0.2 C48.3,45,47.4,46,47.4,47.1z"/><path fill="#fff" d="M47.4,47.1l0,0.1c0,1.1,0.9,2.1,2,2.1l7,0.2c1.1,0,2-1,2-2.1l0-0.1c0-1.1-0.9-2.1-2-2.1l-7-0.2 C48.3,45,47.4,46,47.4,47.1z"/><path fill="#fff" d="M47.5,55.7l0,0.1c0,1.1,0.9,2.1,2,2.1l7,0.2c1.1,0,2-1,2-2.1l0-0.1c0-1.1-0.9-2.1-2-2.1l-7-0.2 C48.4,53.7,47.5,54.6,47.5,55.7z"/><path fill="#fff" d="M47.5,55.7l0,0.1c0,1.1,0.9,2.1,2,2.1l7,0.2c1.1,0,2-1,2-2.1l0-0.1c0-1.1-0.9-2.1-2-2.1l-7-0.2 C48.4,53.7,47.5,54.6,47.5,55.7z"/><path fill="#fff" d="M47.5,51.4l0,0.1c0,1.1,0.9,2.1,2,2.1l8.8,0.1c1.1,0,2-1,2-2.1l0-0.1c0-1.1-0.9-2.1-2-2.1l-8.8-0.1 C48.3,49.3,47.5,50.3,47.5,51.4z"/><path fill="#fff" d="M47.5,51.4l0,0.1c0,1.1,0.9,2.1,2,2.1l8.8,0.1c1.1,0,2-1,2-2.1l0-0.1c0-1.1-0.9-2.1-2-2.1l-8.8-0.1 C48.3,49.3,47.5,50.3,47.5,51.4z"/><path fill="#fff" d="M47.6,60l0,0.1c0,1.1,0.9,2.1,2,2.1l5.5,0.2c1.1,0,2-1,2-2.1l0-0.1c0-1.1-0.9-2.1-2-2.1l-5.5-0.2 C48.5,57.9,47.6,58.9,47.6,60z"/><path fill="#fff" d="M47.6,60l0,0.1c0,1.1,0.9,2.1,2,2.1l5.5,0.2c1.1,0,2-1,2-2.1l0-0.1c0-1.1-0.9-2.1-2-2.1l-5.5-0.2 C48.5,57.9,47.6,58.9,47.6,60z"/><path fill="#e8f0fd" d="M57.3,60.2v0.1c0,1.2-0.9,2.1-2,2.1l-2.6-0.1c0.9-0.2,1.5-1.1,1.5-2.1v-0.1c0-1.1-0.9-2.1-2-2l-4.4-0.1 c0.1,0,0.3-0.1,0.4-0.1l7,0.2C56.3,58.2,57.2,59.1,57.3,60.2z"/><path fill="#fff" d="M47.4,47.1l0,0.1c0,1.1,0.9,2.1,2,2.1l7,0.2c1.1,0,2-1,2-2.1l0-0.1c0-1.1-0.9-2.1-2-2.1l-7-0.2 C48.3,45,47.4,46,47.4,47.1z"/><path fill="#e8f0fd" d="M58.4,47.2v0.1c0,1.2-0.9,2.1-2,2.1l-2.6-0.1c0.9-0.2,1.5-1.1,1.5-2.1v-0.1c0-1.1-0.9-2.1-2-2l-4.4-0.1 c0.1,0,0.3-0.1,0.4-0.1l7,0.2C57.4,45.2,58.4,46.1,58.4,47.2z"/><path fill="#fff" d="M47.5,55.7l0,0.1c0,1.1,0.9,2.1,2,2.1l7,0.2c1.1,0,2-1,2-2.1l0-0.1c0-1.1-0.9-2.1-2-2.1l-7-0.2 C48.4,53.7,47.5,54.6,47.5,55.7z"/><path fill="#fff" d="M47.5,55.7l0,0.1c0,1.1,0.9,2.1,2,2.1l7,0.2c1.1,0,2-1,2-2.1l0-0.1c0-1.1-0.9-2.1-2-2.1l-7-0.2 C48.4,53.7,47.5,54.6,47.5,55.7z"/><path fill="#e8f0fd" d="M58.6,55.8V56c0,1.2-0.9,2.1-2,2.1L54.1,58c0.9-0.2,1.5-1.1,1.5-2.1v-0.1c0-1.1-0.9-2.1-2-2l-4.4-0.1 c0.1,0,0.3-0.1,0.4-0.1l7,0.2C57.7,53.8,58.6,54.7,58.6,55.8z"/><path fill="#fff" d="M47.5,51.4l0,0.1c0,1.1,0.9,2.1,2,2.1l8.8,0.1c1.1,0,2-1,2-2.1l0-0.1c0-1.1-0.9-2.1-2-2.1l-8.8-0.1 C48.3,49.3,47.5,50.3,47.5,51.4z"/><path fill="#fff" d="M47.5,51.4l0,0.1c0,1.1,0.9,2.1,2,2.1l8.8,0.1c1.1,0,2-1,2-2.1l0-0.1c0-1.1-0.9-2.1-2-2.1l-8.8-0.1 C48.3,49.3,47.5,50.3,47.5,51.4z"/><path fill="#e8f0fd" d="M60.3,51.5v0.1c0,1.2-0.9,2.1-2,2.1l-2.6-0.1c0.9-0.2,1.5-1.1,1.5-2.1v-0.1c0-1.1-0.9-2.1-2-2l-4.4-0.1 c0.1,0,0.3-0.1,0.4-0.1l7,0.2C59.3,49.5,60.2,50.4,60.3,51.5z"/></g><g><path fill="#1369f0" d="M88.2,17.8l1-0.2l0.2,1c0.1,0.4,0.5,0.6,0.9,0.5c0.4-0.1,0.6-0.5,0.6-0.9l-0.2-1l1-0.2 c0.4-0.1,0.6-0.5,0.5-0.9c-0.1-0.4-0.5-0.6-0.9-0.5l-1,0.2l-0.2-1c-0.1-0.4-0.5-0.6-0.9-0.5c-0.4,0.1-0.6,0.5-0.5,0.9l0.2,1 l-1,0.2c-0.4,0.1-0.6,0.5-0.5,0.9C87.4,17.6,87.8,17.9,88.2,17.8z"/><path fill="#1369f0" d="M88.5,62.6c0.4-0.1,0.6-0.5,0.6-0.9l-0.2-1l1-0.2c0.4-0.1,0.6-0.5,0.5-0.9c-0.1-0.4-0.5-0.6-0.9-0.5 l-1,0.2l-0.2-1c-0.1-0.4-0.5-0.6-0.9-0.5c-0.4,0.1-0.6,0.5-0.5,0.9l0.2,1l-1,0.2c-0.4,0.1-0.6,0.5-0.5,0.9 c0.1,0.4,0.5,0.6,0.9,0.6l1-0.2l0.2,1C87.7,62.5,88.1,62.7,88.5,62.6z"/><path fill="#1369f0" d="M81.4,73.2l-7,0c1.4-1.3,2.3-3.2,2.3-5.3c0-21.9,0-14.4,0-16c0.5,0.3,1.1,0.4,1.7,0.4c2,0,3.6-1.6,3.6-3.6 v-7.9c3.3-0.5,5.9-3.4,5.9-6.8c0-3.4-2.6-6.3-5.9-6.8v-7.9c0-2-1.6-3.6-3.6-3.6c-1.6,0-2.9,1-3.4,2.4c-5.5,4.4-11,7-17.5,8.4 l-8,0c-1.2,0-2.1,0.8-2.4,1.9l-2.1,0c-1.1,0-2.2,0.6-2.6,1.7H25.2c-2.5,0-4.5,2-4.5,4.5v32.2H9.1c-0.6,0-1,0.4-1,1 c0,2.1,0.9,3.9,2.4,5.2l-8,0h0c-0.6,0-1,0.4-1,1c0,0.6,0.4,1,1,1c16.1,0,9.9,0,26,0c0.6,0,1-0.4,1-1c0,0,0,0,0,0c0,0,0,0,0,0 c0-0.6-0.4-1-1-1H16.3c-3.3,0-5.7-1.7-6.2-4.2h13.6l0.4,1.1c0.1,0.4,0.6,0.7,1,0.7h10.2c0.5,0,0.9-0.3,1-0.7l0.4-1.1h12.3 c0.2,1.7,1,3.1,2.2,4.2H34.1c-0.6,0-1,0.4-1,1s0.4,1,1,1c-0.1,0,47.1,0.1,47.3,0.1h0c0.6,0,1-0.4,1-1 C82.4,73.7,81.9,73.2,81.4,73.2z M85.8,34.1c0,2.3-1.6,4.3-3.8,4.8l0-9.6C84.1,29.8,85.8,31.7,85.8,34.1z M42.2,37.5 c0.2,1.1,1.1,2.1,2.4,2.3l-0.8,1.4c-0.2,0.3-0.5,0.6-1.1,0.9c-2.7,0.8-4.8,2.1-6.2,3.4c-0.5-0.6-1.3-1-2.1-1c0,0,0,0,0,0 l-6.5,0v-7H42.2z M49.6,61.2c-0.5,0-1-0.5-1-1.1c0,0,0,0,0-0.1c0-0.3,0.1-0.6,0.3-0.8c0.2-0.2,0.4-0.3,0.6-0.3l5.6,0.2 c0.3,0,0.5,0.1,0.7,0.3c0.2,0.2,0.3,0.5,0.3,0.8l0,0.1c0,0.3-0.1,0.6-0.3,0.8c-0.2,0.2-0.4,0.3-0.6,0.3L49.6,61.2z M56.6,57.1 c-0.2,0-6.9-0.2-7-0.2c-0.5,0-1-0.5-1-1.1l0-0.1v0c0-0.6,0.4-1.1,0.9-1.1l7,0.2c0.3,0,0.5,0.1,0.7,0.3c0.2,0.2,0.3,0.5,0.3,0.8 l0,0.1C57.5,56.6,57.1,57.1,56.6,57.1z M58.3,52.8c-0.4,0-8.8-0.1-8.9-0.1c-0.5,0-1-0.4-1-1.1l0-0.1c0-0.6,0.4-1.1,0.9-1.1 l2.6,0l4.4,0.1c0.1,0,0.2,0,0.3,0l1.6,0c0.5,0,1,0.5,1,1.1l0,0.1c0,0.3-0.1,0.6-0.3,0.8C58.8,52.7,58.6,52.8,58.3,52.8z M56.6,48.4L52,48.4l-2.6-0.1c-0.2,0-0.5-0.1-0.7-0.3c-0.2-0.2-0.3-0.5-0.3-0.8l0-0.1c0-0.6,0.4-1.1,0.9-1.1 c0.2,0,6.9,0.2,7,0.2c0.5,0,1,0.5,1,1.1l0,0.1C57.4,47.9,57,48.4,56.6,48.4z M50.9,41.8l3.8,0l0,2.4L50.9,44L50.9,41.8z M48.9,41.6l0,2.4c-1.4,0.2-2.5,1.5-2.5,3.1c0,0,0,0,0,0l0,0.1c0,0.8,0.3,1.5,0.8,2.1c-0.5,0.6-0.8,1.3-0.8,2.1c0,0,0,0,0,0 l0,0.1c0,0.8,0.3,1.5,0.8,2.1c-0.5,0.6-0.8,1.3-0.8,2.1l0,0.1c0,0.8,0.3,1.5,0.8,2.1c-0.5,0.6-0.8,1.3-0.8,2.1l0,0.1 c0,0.4,0.1,0.7,0.2,1.1c-3,0-7.2-0.3-9.4-1.3l-0.2-12.4c1.3-1.3,3.3-2.8,6.1-3.6c0.1,0,0.1,0,0.2-0.1v0 c1.1-0.5,1.7-1.1,2.1-1.9l1.2-2.2l0.4,0C47.4,40.7,48,41.4,48.9,41.6z M35.2,47.2l0.1,13.1c-0.1,0.3-0.4,0.5-0.7,0.5l-6.7,0 V46.5l6.5,0c0,0,0,0,0,0C34.9,46.5,35.2,46.8,35.2,47.2z M28,62.8l6.7,0c0.8,0,1.6-0.4,2.1-1c2.8,1.2,7.6,1.4,10.4,1.4 c1.1,0,1.9,0,2.2,0c0.1,0,0.1,0,0.2,0c0.1,0-0.1,0,5.6,0.2c1.7,0,3-1.5,2.9-3.1l0-0.1c0-0.5-0.1-0.9-0.3-1.3 c1-0.5,1.8-1.6,1.7-2.8l0-0.1c0-0.4-0.1-0.9-0.3-1.2c0.5-0.2,0.9-0.4,1.2-0.8c0.5-0.6,0.8-1.4,0.8-2.2l0-0.1 c0-1.4-0.9-2.5-2.1-2.9c0.2-0.4,0.3-0.8,0.2-1.3l0-0.1c0-1.6-1.2-2.8-2.6-3l0-2.5l0.8,0c3.9,0.7,8.1,1.8,11.9,3.9v21.3H28V62.8 z M74.6,66.9h-3.2V46.9c1.1,0.8,2.2,1.7,3.2,2.8V66.9z M78.3,17.8c0.9,0,1.6,0.7,1.6,1.6c0,8.6,0,20.2,0,29.4 c0,0.9-0.7,1.6-1.6,1.6c-0.9,0-1.6-0.7-1.6-1.6c0-39.7,0-25.9,0-29.4C76.7,18.5,77.4,17.8,78.3,17.8z M74.7,20.9l0.1,26 c-4.8-4.2-10.7-6-16.1-7l0-11.5C64.4,27,69.6,24.6,74.7,20.9z M49.5,28.6l7.1,0c0,1.1,0-4.1,0,11.1l-7.1,0c0,0,0,0,0,0 c-0.2,0-0.4-0.2-0.4-0.4l0-0.5c0-2.5,0-9.7,0-9.3c0,0,0,0,0,0l0-0.5C49.1,28.8,49.3,28.6,49.5,28.6z M45,30.5l2.1,0l0,7.3 l-2.1,0c-0.3,0-0.5-0.1-0.6-0.3s-0.3-0.4-0.3-0.6l0-5.5C44.1,30.9,44.5,30.5,45,30.5z M22.7,34.7c0-1.4,1.1-2.5,2.5-2.5h16.9 l0,3.2H27c-0.6,0-1,0.4-1,1v9v16.4v5.1h-3.2V34.7z M51.2,68.9h23.4c-0.5,2.4-2.6,4.2-5.1,4.2H56.3 C53.8,73.2,51.7,71.4,51.2,68.9z"/><path fill="#1369f0" d="M92.5,73.2l-3.8,0h0c-0.6,0-1,0.4-1,1c0,0.6,0.4,1,1,1l3.8,0h0c0.6,0,1-0.4,1-1 C93.5,73.7,93.1,73.2,92.5,73.2z"/><path fill="#1369f0" d="M31.2,56c-0.8,0-1.4,0.7-1.4,1.5c0,0.8,0.7,1.4,1.5,1.4c0.8,0,1.4-0.7,1.4-1.5C32.6,56.7,32,56,31.2,56z"/></g></svg>