<svg xmlns="http://www.w3.org/2000/svg"  viewBox="0 0 95 95" width="66px" height="66px"><path fill="#e8f0fd" d="M81.8,81.7c-3.7,2-8.3,0.1-11.5-2.6c-3.2-2.7-7.1-7.7-10.4-10.2c-5.5-4.1-13.6-4.4-19.4-0.8 c-3.5,2.1-6.1,5.4-8.9,8.4c-2.8,3-6.1,5.8-10.1,6.5c-4.8,0.9-9.9-1.5-12.6-5.6c-2.7-4-3.2-9.3-1.8-14c1.5-4.6,4.8-8.6,8.8-11.3 c3.5-2.4,8-4.6,8.6-8.7c0.5-3.6-2-6.2-3.4-9.3c-1.4-3-2.3-6.3-2.7-9.6c-0.3-2.4-0.3-4.9,0.9-6.9c2.1-3.5,7.4-4.1,11-2 s5.7,6,7,9.9c0.5,1.5,0.9,3,1.7,4.3c0.8,1.3,2,2.5,3.5,2.8c1.6,0.3,3.3-0.4,4.5-1.6c1.9-1.9,2.6-4.8,3.9-7.2 c1.5-2.6,3.2-5.2,5.4-7.3c3-2.8,6.9-4.7,11-4.6c4.1,0.1,8.2,2.6,9.6,6.4c1.4,3.8,0,8-2.2,11.4c-2.2,3.4-5.2,6.2-7.4,9.5 c-2.3,3.3-3.8,7.5-2.7,11.3c1.7,3.1,4.9,4.1,8.6,7.1c3.7,3,9.2,7.3,11.3,11.5C86.7,73.4,86,79.4,81.8,81.7z"/><path fill="#e8f0fd" d="M89.8,59.4c0.1,0.4-0.1,0.8-0.5,0.9l-1,0.3l0.3,1c0.1,0.4-0.1,0.8-0.5,0.9c-0.4,0.1-0.8-0.1-0.9-0.5l-0.3-1 l-1,0.3c-0.4,0.1-0.8-0.1-0.9-0.5c-0.1-0.4,0.1-0.8,0.5-0.9l1-0.3l-0.3-1c-0.1-0.4,0.1-0.8,0.5-0.9c0.4-0.1,0.8,0.1,0.9,0.5 l0.3,1l1-0.3C89.3,58.8,89.7,59.1,89.8,59.4z"/><path fill="#e8f0fd" d="M7.8,48.5c-0.1,0.4-0.6,0.6-0.9,0.4l-1-0.4l-0.4,1c-0.1,0.4-0.6,0.6-0.9,0.4C4.2,49.8,4,49.4,4.1,49l0.4-1 l-1-0.4c-0.4-0.1-0.6-0.6-0.4-0.9c0.1-0.4,0.6-0.6,0.9-0.4l1,0.4l0.4-1c0.1-0.4,0.6-0.6,0.9-0.4c0.4,0.1,0.6,0.6,0.4,0.9l-0.4,1 l1,0.4C7.7,47.7,7.9,48.1,7.8,48.5z"/><path fill="#e8f0fd" d="M45.5,65.4c0,0.5-0.4,0.8-0.8,0.8h-12c-0.5,0-0.8-0.4-0.8-0.8c0-0.5,0.4-0.8,0.8-0.8h12 C45.1,64.6,45.5,65,45.5,65.4z"/><path fill="#e8f0fd" d="M67.1,65.4c0,0.5-0.4,0.8-0.8,0.8h-12c-0.5,0-0.8-0.4-0.8-0.8c0-0.5,0.4-0.8,0.8-0.8h12 C66.7,64.6,67.1,65,67.1,65.4z"/><path fill="#fff" d="M79.3,33.6v40.6H21.8V33.5c0-1.4,1.2-2.6,2.6-2.6h52.4C78.2,31,79.3,32.1,79.3,33.6z"/><path fill="#fff" d="M26.8,66.4V39.8c2.4,0,4.3-1.9,4.3-4.3h41.1c0,2.4,1.9,4.3,4.3,4.3v26.6c-2.4,0-4.3,1.9-4.3,4.3H31.1 C31.1,68.3,29.1,66.4,26.8,66.4z"/><path fill="#cedbf0" d="M36.3,66.1c0,0.9-0.2,1.8-0.7,2.7c0.4,0.8,0.7,1.7,0.7,2.7c0,1-0.2,1.9-0.7,2.7H21.8V46.2 c1.5,0.4,2.9,1.4,3.7,2.8c1,1.8,1.4,3.9,1.3,6.1h3.9c3.1,0,5.7,2.5,5.7,5.7c0,0.9-0.2,1.8-0.7,2.7C36.1,64.2,36.3,65.2,36.3,66.1 z" opacity=".3"/><path fill="#e8f0fd" d="M70.4,56.8c0,0.5-0.4,0.8-0.8,0.8H31.9c-0.5,0-0.8-0.4-0.8-0.8c0-0.5,0.4-0.8,0.8-0.8h37.6 C70,56,70.4,56.3,70.4,56.8z"/><path fill="#cedbf0" d="M79.3,33.6v17.6l-3-3.7l-0.1-0.1c-0.4,0.1-0.9,0.1-1.4,0.1c-0.4,0-0.8,0-1.1-0.1l-0.7,1.1l-4.8,7.3l-1.2-3.6 L63,52.9l5.1-8.1c-2.1-1.9-3.4-4.6-3.4-7.6c0-2.4,0.8-4.6,2.2-6.3h9.9C78.2,31,79.3,32.1,79.3,33.6z" opacity=".3"/><path fill="#e8f0fd" d="M70.4,52c0,0.5-0.4,0.8-0.8,0.8H31.9c-0.5,0-0.8-0.4-0.8-0.8c0-0.5,0.4-0.8,0.8-0.8h37.6 C70,51.1,70.4,51.5,70.4,52z"/><path fill="#e8f0fd" d="M63.3,44.1c-0.7,0.9-1.4,1.8-2,2.7c-6.3-4.7-15-4.7-21.3,0c-0.7-0.9-1.4-1.8-2-2.7 C45.4,38.5,55.7,38.5,63.3,44.1z"/><path fill="#fff" d="M77.4,42.7L75,46.5l-4.8,7.3L69,50.2L64.9,51l5.9-9c0.4,0.2,0.9,0.2,1.3,0.1c0.3-0.1,0.6-0.2,0.9-0.4 c0.1,0.8,1.1,0.4,2,0.5c1,0.2,1.8,0.9,2.1,0.1C77.3,42.5,77.3,42.6,77.4,42.7z"/><path fill="#fff" d="M75.4,41.9l2.8,3.5l5.5,6.8l0.8-3.7l4.1,0.4l-6.7-8.3c-0.4,0.2-0.9,0.3-1.3,0.3c-0.3,0-0.7-0.1-0.9-0.3 c-0.1,0.8-1,0.5-2,0.7c-1,0.3-1.7,1.1-2.1,0.3C75.5,41.7,75.5,41.8,75.4,41.9z"/><path fill="#fff" d="M87,35.3c0,5.6-4.6,10.2-10.2,10.2c-5.6,0-10.2-4.6-10.2-10.2c0-5.6,4.6-10.2,10.2-10.2 C82.4,25.1,87,29.7,87,35.3z"/><path fill="#e8f0fd" d="M87,35.3c0,5.6-4.6,10.2-10.2,10.2c-2.9,0-5.5-1.2-7.4-3.2c1.4,0.7,2.9,1.1,4.5,1.1 c5.6,0,10.2-4.6,10.2-10.2c0-2.7-1.1-5.2-2.8-7C84.7,27.8,87,31.3,87,35.3z"/><path fill="#1369f0" d="M83.2,35.9c-0.3,3.6-3.5,6.2-7,5.9c-3.6-0.3-6.2-3.5-5.9-7.1c0.3-3.6,3.5-6.2,7-5.9 C80.9,29.1,83.6,32.3,83.2,35.9z"/><polygon fill="#fff" points="78.8,36.4 79.3,39.2 76.8,37.9 74.3,39.2 74.7,36.4 72.7,34.4 75.5,34 76.8,31.4 78,34 80.9,34.4"/><rect width="2.8" height="15.7" x="15.5" y="58.4" fill="#e8f0fd"/><rect width="8.1" height="15.7" x="6.4" y="58.4" fill="#fff"/><rect width="2.9" height="15.7" x="11.5" y="58.4" fill="#e8f0fd"/><path fill="#fff" d="M29.4,74.1H17c-1.4,0-2.5-1.1-2.5-2.5V58.3c2-1.1,3.1-2.5,3.4-4.3c0.1-0.5,0.1-1.1,0-1.7 c-0.2-1.7,0.9-3.3,2.6-3.3c0.1,0,0.2,0,0.4,0c0.9,0.1,1.7,0.6,2.1,1.4c1.7,3.1,1.5,6.7-0.2,10.7l7.6,6.1L29.4,74.1"/><path fill="#fff" d="M22.6,71.4L22.6,71.4c0,1.5,1.2,2.7,2.7,2.7h5.4c1.5,0,2.7-1.2,2.7-2.7v0c0-1.5-1.2-2.7-2.7-2.7h-5.4 C23.8,68.8,22.6,70,22.6,71.4z"/><path fill="#e8f0fd" d="M33.3,71.2c0,1.5-1.2,2.7-2.7,2.7h-2.8c1.5,0,2.7-1.2,2.7-2.7c0-0.7-0.3-1.4-0.8-1.9s-1.2-0.8-1.9-0.8h2.8 c0.7,0,1.4,0.3,1.9,0.8C33,69.8,33.3,70.4,33.3,71.2z"/><path fill="#fff" d="M22.6,66.1L22.6,66.1c0,1.5,1.2,2.7,2.7,2.7h5.4c1.5,0,2.7-1.2,2.7-2.7v0c0-1.5-1.2-2.7-2.7-2.7h-5.4 C23.8,63.4,22.6,64.6,22.6,66.1z"/><path fill="#e8f0fd" d="M33.3,66.1c0,1.5-1.2,2.7-2.7,2.7h-2.8c1.5,0,2.7-1.2,2.7-2.7c0-0.7-0.3-1.4-0.8-1.9s-1.2-0.8-1.9-0.8h2.8 c0.7,0,1.4,0.3,1.9,0.8C33,64.7,33.3,65.4,33.3,66.1z"/><path fill="#fff" d="M22.6,60.7L22.6,60.7c0,1.5,1.2,2.7,2.7,2.7h5.4c1.5,0,2.7-1.2,2.7-2.7v0c0-1.5-1.2-2.7-2.7-2.7h-5.4 C23.8,58.1,22.6,59.3,22.6,60.7z"/><path fill="#e8f0fd" d="M33.3,60.8c0,1.5-1.2,2.7-2.7,2.7h-3.3c1.5,0,2.7-1.2,2.7-2.7c0-0.7-0.3-1.4-0.8-1.9 c-0.5-0.5-1.2-0.8-1.9-0.8h3.3c0.7,0,1.4,0.3,1.9,0.8C33,59.3,33.3,60,33.3,60.8z"/><path fill="#1369f0" d="M43,22.2l1-0.2l0.2,1c0.1,0.4,0.5,0.6,0.9,0.6c0.4-0.1,0.7-0.5,0.6-0.9l-0.2-1l1-0.2 c0.4-0.1,0.6-0.5,0.6-0.9c-0.1-0.4-0.5-0.6-0.9-0.6l-1,0.2l-0.2-1c-0.1-0.4-0.5-0.6-0.9-0.6c-0.4,0.1-0.6,0.5-0.6,0.9l0.2,1 l-1,0.2c-0.4,0.1-0.6,0.5-0.6,0.9C42.2,22,42.6,22.2,43,22.2z"/><path fill="#1369f0" d="M40.7,78.5l-1,0.2l-0.2-1c-0.1-0.4-0.5-0.6-0.9-0.6c-0.4,0.1-0.6,0.5-0.6,0.9l0.2,1l-1,0.2 c-0.4,0.1-0.6,0.5-0.6,0.9c0.1,0.4,0.5,0.7,0.9,0.6l1-0.2l0.2,1c0.1,0.4,0.5,0.6,0.9,0.6c0.4-0.1,0.7-0.5,0.6-0.9l-0.2-1l1-0.2 c0.4-0.1,0.6-0.5,0.6-0.9C41.5,78.6,41.1,78.4,40.7,78.5z"/><path fill="#1369f0" d="M92.5,73.1h-2.9c-0.6,0-1,0.4-1,1s0.4,1,1,1h2.9c0.6,0,1-0.4,1-1S93.1,73.1,92.5,73.1z"/><path fill="#1369f0" d="M82.9,52.9c0.2,0.2,0.5,0.4,0.8,0.4c0.5,0,0.9-0.3,1-0.8l0.6-2.9l3.2,0.3c0.4,0,0.8-0.2,1-0.5 c0.2-0.3,0.2-0.8-0.1-1.1l-4.3-5.5c1.8-2,2.9-4.6,2.9-7.5c0-6.2-5-11.2-11.2-11.2c-4.2,0-8,2.4-9.9,5.9H24.3 c-2,0-3.6,1.6-3.6,3.6v14.5c-0.2,0-0.3,0-0.4,0c-2.3,0-3.9,2.2-3.6,4.4c0.1,0.5,0.1,1,0,1.4c-0.2,1.4-1.1,2.5-2.7,3.4H6.4 c-0.6,0-1,0.4-1,1v14.7H2.5c-0.6,0-1,0.4-1,1s0.4,1,1,1c58.6,0,40.8,0,47.3,0c0.6,0,1-0.4,1-1s-0.4-1-1-1H33.9 c0.3-0.5,0.4-1.1,0.4-1.7c0-0.4-0.1-0.7-0.2-1h36c0.6,0,1-0.4,1-1c0-1.7,1.4-3.1,3.1-3.1c0.6,0,1-0.4,1-1V47.8l0.8-1.3 c0.4,0,0.6,0.1,1.6,0l0.8,1h-0.2v25.7H54.8c-0.6,0-1,0.4-1,1s0.4,1,1,1h0.5c45.8,0,23.1,0,29.6,0c0.6,0,1-0.4,1-1s-0.4-1-1-1 h-4.6V49.7L82.9,52.9z M24.3,32h41.8c-0.3,0.9-0.4,1.8-0.5,2.7H30.9c-0.6,0-1,0.4-1,1c0,1.7-1.4,3.1-3.1,3.1c-0.6,0-1,0.4-1,1 v17.3h-0.5c-0.3,0-0.5,0-0.8,0.1c0.5-2.3,0.5-4.9-0.8-7.2c-0.2-0.4-0.5-0.8-0.9-1.1V33.5C22.8,32.7,23.5,32,24.3,32z M30.7,62.4h-5.4c-0.9,0-1.7-0.8-1.7-1.7s0.8-1.7,1.7-1.7h5.4c0.9,0,1.7,0.8,1.7,1.7S31.6,62.4,30.7,62.4z M32.3,66.1 c0,0.9-0.8,1.7-1.7,1.7h-5.4c-0.9,0-1.7-0.8-1.7-1.7s0.8-1.7,1.7-1.7h5.4C31.6,64.4,32.3,65.2,32.3,66.1z M18.5,55.5h0.8 c0.6,0,1-0.4,1-1s-0.4-1-1-1h-0.5c0-0.4,0-0.8-0.1-1.3c-0.2-1.1,0.5-2.1,1.6-2.1c0.1,0,0.2,0,0.3,0c0.5,0,1,0.3,1.3,0.8 c1.4,2.5,1.1,5.6-0.7,9.9c0,0,0,0.1,0,0.1c-1,1.5-1.6,2.5-3.7,2.7c-0.5,0.1-0.9,0.6-0.9,1.1c0.1,0.5,0.5,0.9,1,0.9 c0,0,0.1,0,0.1,0c2.5-0.3,3.7-1.4,4.6-2.7c0.1,0.2,0.3,0.4,0.5,0.6c-1.6,1.5-1.6,3.9,0,5.3c-0.7,0.7-1.2,1.6-1.2,2.7 c0,0.6,0.2,1.2,0.4,1.7h-6.6V58.9C16.9,58,18,56.9,18.5,55.5z M7.4,59.4h6.1v13.7H7.4V59.4z M25.4,73.1L25.4,73.1l-0.1,0 c-0.9,0-1.7-0.8-1.7-1.7c0-0.9,0.8-1.7,1.7-1.7h5.4c0.9,0,1.7,0.8,1.7,1.7c0,0.9-0.7,1.6-1.6,1.7H25.4z M73.3,64.4 c-2,0.4-3.6,2-4,4H33.5c1.3-1.6,1.1-3.7-0.3-5c0.7-0.7,1.2-1.6,1.2-2.7c0-2-1.6-3.7-3.7-3.7h-2.9V40.7c2-0.4,3.6-2,4-4h33.9 c0.3,2.5,1.4,4.7,3.1,6.4l-4.7,7.4c-0.2,0.3-0.2,0.8,0,1.1c0.2,0.3,0.6,0.5,1,0.4l3.2-0.6l0.9,2.8c0.1,0.4,0.5,0.7,1,0.7 c0.3,0,0.7-0.2,0.8-0.5l2.3-3.5V64.4z M70.5,51.5l-0.5-1.6c-0.1-0.4-0.5-0.7-0.9-0.7c-0.1,0-0.1,0-0.2,0L67,49.5l3.3-5.2 c1.1,0.8,2.4,1.4,3.7,1.7L70.5,51.5z M67.6,35.3c0-5.1,4.1-9.2,9.2-9.2c5.1,0,9.2,4.1,9.2,9.2c0,5.1-4.1,9.2-9.2,9.2 C71.7,44.5,67.6,40.4,67.6,35.3z M83.6,44.1l2.8,3.6l-1.8-0.2c-0.5-0.1-1,0.3-1.1,0.8L83.2,50L80,46 C81.3,45.6,82.6,45,83.6,44.1z"/><path fill="#1369f0" d="M11.4,70c0-0.1,0-0.1-0.1-0.2c0-0.1-0.1-0.1-0.1-0.2c-0.1-0.1-0.2-0.2-0.3-0.3c-0.1,0-0.1-0.1-0.2-0.1 c-0.1,0-0.1,0-0.2-0.1c-0.3-0.1-0.7,0-0.9,0.3c0,0-0.1,0.1-0.1,0.2c0,0-0.1,0.1-0.1,0.2c0,0.1,0,0.1-0.1,0.2c0,0.1,0,0.1,0,0.2 c0,0.1,0,0.3,0.1,0.4c0,0.1,0.1,0.2,0.2,0.3c0.2,0.2,0.4,0.3,0.7,0.3c0.1,0,0.3,0,0.4-0.1c0.1,0,0.2-0.1,0.3-0.2 c0.1-0.1,0.2-0.2,0.2-0.3c0.1-0.1,0.1-0.3,0.1-0.4C11.4,70.1,11.4,70,11.4,70z"/></svg>