<svg xmlns="http://www.w3.org/2000/svg"  viewBox="0 0 95 95" width="66px" height="66px"><path fill="#e8f0fd" d="M86.3,47.7c0,4.9-4.2,8.9-8.7,10.5c-4.5,1.6-9.5,1.5-14.3,2c-4.8,0.4-10.4,4.9-13.8,8.4 c-2.2,2.3-3.3,5.4-4.9,8.2c-1.6,2.8-3.8,5.5-6.9,6.2c-3.4,0.7-6.9-1.5-8.9-4.3c-2-2.9-2.9-6.4-3.9-9.8c-1-3.4-1.5-10.1-3.9-12.7 c-2.1-2.2-4.9-3.6-7.6-5c-2.7-1.4-5.5-2.9-7.2-5.4c-1.8-2.5-2.3-6.1-0.4-8.5c2.4-3,6.8-2.6,10.6-2.9c7.1-0.6,13.7-4.9,17.3-11 c1.3-2.3,2.2-4.8,3.7-7.1c1.5-2.2,3.6-4.2,6.3-4.5c3.7-0.4,6.8,2.6,9.4,5.3c4.9,5.2,9.6,11.8,16,15.2 C75.4,35.7,86.3,38.7,86.3,47.7z"/><path fill="#e8f0fd" d="M12.1,24.7c-0.1,0.4-0.5,0.6-0.9,0.6l-1-0.2l-0.2,1c-0.1,0.4-0.5,0.6-0.9,0.6c-0.4-0.1-0.6-0.5-0.6-0.9 l0.2-1l-1-0.2c-0.4-0.1-0.6-0.5-0.6-0.9C7.2,23.3,7.6,23,8,23.1l1,0.2l0.2-1c0.1-0.4,0.5-0.6,0.9-0.6c0.4,0.1,0.6,0.5,0.6,0.9 l-0.2,1l1,0.2C11.9,23.9,12.1,24.3,12.1,24.7z"/><path fill="#e8f0fd" d="M58.4,79.9c-0.1,0.4-0.5,0.6-0.9,0.6l-1-0.2l-0.2,1c-0.1,0.4-0.5,0.6-0.9,0.6c-0.4-0.1-0.6-0.5-0.6-0.9 l0.2-1l-1-0.2c-0.4-0.1-0.6-0.5-0.6-0.9c0.1-0.4,0.5-0.6,0.9-0.6l1,0.2l0.2-1c0.1-0.4,0.5-0.6,0.9-0.6c0.4,0.1,0.6,0.5,0.6,0.9 l-0.2,1l1,0.2C58.3,79.1,58.5,79.5,58.4,79.9z"/><rect width="17.4" height="8.8" x="33.8" y="61.6" fill="#fff"/><rect width="3.6" height="8.8" x="47.6" y="61.6" fill="#e8f0fd"/><path fill="#fff" d="M56.4,75v-1.9c0-1.5-1.2-2.7-2.7-2.7H31.2c-1.5,0-2.7,1.2-2.7,2.7V75H56.4z"/><path fill="#e8f0fd" d="M56.4,73.1V75h-4v-1.9c0-1.5-1.2-2.7-2.7-2.7h4C55.2,70.4,56.4,71.6,56.4,73.1z"/><path fill="#fff" d="M71.9,26.1v34.1c0,1.8-1.4,3.2-3.2,3.2H16.2c-1.8,0-3.2-1.4-3.2-3.2V26.1c0-1.8,1.4-3.2,3.2-3.2h52.5 C70.5,22.9,71.9,24.4,71.9,26.1z"/><rect width="48.3" height="29.9" x="18.3" y="28.3" fill="#fff"/><path fill="#cedbf0" d="M71.9,48.4v11.9c0,1.8-1.4,3.2-3.2,3.2H53.5c-0.1-0.6-0.1-1.1,0.1-1.7c0.3-1.2,1-2.3,2-2.9l-3.4-5.6 c-0.7-1.1-0.9-2.4-0.6-3.7c0.3-1.3,1.1-2.3,2.2-3c0.7-0.4,1.5-0.7,2.4-0.7c0.4,0,0.8,0,1.1,0.1c1.2,0.3,2.2,1,2.9,2.1l1.1,1.8 c0.4-0.1,0.8-0.2,1.3-0.2c0.2,0,0.4,0,0.6,0c0.1-0.1,0.3-0.2,0.4-0.3c0.8-0.5,1.7-0.7,2.6-0.7c0.2,0,0.4,0,0.6,0 c0.1-0.1,0.3-0.2,0.4-0.3c0.8-0.5,1.6-0.7,2.5-0.7c0.4,0,0.7,0,1.1,0.1C71.1,48,71.5,48.2,71.9,48.4z" opacity=".3"/><path fill="#e8f0fd" d="M41,35.8c0-0.5,0.4-1,1-1h19.3c0.6,0,1,0.5,1,1s-0.4,1-1,1H42C41.4,36.8,41,36.3,41,35.8z"/><path fill="#e8f0fd" d="M62.3,40.8c0,0.5-0.4,1-1,1H42c-0.6,0-1-0.5-1-1c0-0.6,0.4-1,1-1h19.3C61.8,39.8,62.3,40.3,62.3,40.8z"/><path fill="#fff" d="M38.1,40.8c0,4.5-3.6,8.1-8.1,8.1c-4.5,0-8.1-3.6-8.1-8.1c0-4.5,3.6-8.1,8.1-8.1 C34.5,32.8,38.1,36.4,38.1,40.8z"/><path fill="#e8f0fd" d="M38.1,40.8c0,4.5-3.6,8.1-8.1,8.1c-0.6,0-1.3-0.1-1.9-0.2c4.1-0.4,7.3-3.8,7.3-8c0-3.8-2.6-7-6.2-7.8 c0.2,0,0.5,0,0.8,0C34.5,32.8,38.1,36.4,38.1,40.8z"/><g><path fill="#e8f0fd" d="M35.5,46.6c-1.4,1.4-3.3,2.3-5.4,2.3c-2.1,0-4-0.9-5.4-2.3c0.6-1.5,1.7-2.7,3.2-3.3 c-1.1-0.7-1.8-2-1.8-3.4c0-2.3,1.8-4.1,4.1-4.1c2.3,0,4.1,1.8,4.1,4.1c0,1.4-0.7,2.7-1.8,3.4C33.8,44,34.9,45.2,35.5,46.6z"/></g><g><polygon fill="#e8f0fd" points="45,48 45.8,50.5 43.7,48.9 41.6,50.5 42.4,48 40.3,46.5 42.9,46.5 43.7,44 44.5,46.5 47.1,46.5"/><polygon fill="#e8f0fd" points="52.9,48 53.7,50.5 51.6,48.9 49.5,50.5 50.3,48 48.2,46.5 50.8,46.5 51.6,44 52.4,46.5 55,46.5"/><polygon fill="#e8f0fd" points="60.8,48 61.6,50.5 59.5,48.9 57.4,50.5 58.2,48 56.1,46.5 58.7,46.5 59.5,44 60.3,46.5 62.9,46.5"/></g><g><path fill="#fff" d="M71,51.6l3.6,5.8c0.4,0.6,0.5,1.3,0.3,1.9c-0.2,0.7-0.1,1.4,0.3,1.9l1.1,1.8l-9.1,5.7l-1.2-1.9 c-0.3-0.5-0.9-0.9-1.5-1.1l-6.8-1.4c-0.9-0.2-1.5-1.1-1.3-2c0.1-0.5,0.4-0.8,0.8-1.1c0.4-0.2,0.8-0.3,1.3-0.2l2.3,0.5l-6.1-10 c-0.5-0.8-0.3-2,0.5-2.5c0.4-0.2,0.9-0.3,1.3-0.2c0.4,0.1,0.8,0.4,1.1,0.8l3.4,5.7c-0.5-0.8-0.3-1.9,0.5-2.4 c0.4-0.3,0.9-0.3,1.3-0.2c0.4,0.1,0.8,0.4,1.1,0.8l0.6,0.9c-0.5-0.8-0.3-1.9,0.5-2.4c0.4-0.3,0.9-0.3,1.3-0.2 c0.4,0.1,0.8,0.4,1.1,0.8l0.6,0.9c-0.5-0.8-0.3-1.9,0.5-2.4c0.4-0.3,0.9-0.3,1.3-0.2C70.4,50.9,70.8,51.2,71,51.6z"/><path fill="#fff" d="M81.7,68.8L78,63.2c-0.3-0.5-0.9-0.6-1.4-0.3L67,68.9c-0.5,0.3-0.6,0.9-0.3,1.4l3.1,4.7h6l5.5-3.7 C82,70.7,82.3,69.6,81.7,68.8z"/><path fill="#e8f0fd" d="M81.7,68.8L78,63.2c-0.3-0.5-0.9-0.6-1.4-0.3L74.8,64c0.4-0.1,0.8,0.1,1.1,0.4l3.7,5.6 c0.6,0.8,0.3,1.9-0.5,2.5L75.5,75h0.2l5.5-3.7C82,70.7,82.3,69.6,81.7,68.8z"/><path fill="#1369f0" d="M79.7,20.4l1-0.2l0.2,1c0.1,0.4,0.5,0.6,0.9,0.5c0.4-0.1,0.6-0.5,0.6-0.9l-0.2-1l1-0.2 c0.4-0.1,0.6-0.5,0.5-0.9c-0.1-0.4-0.5-0.6-0.9-0.5l-1,0.2l-0.2-1c-0.1-0.4-0.5-0.6-0.9-0.5c-0.4,0.1-0.6,0.5-0.5,0.9l0.2,1 l-1,0.2c-0.4,0.1-0.6,0.5-0.5,0.9C78.9,20.2,79.3,20.5,79.7,20.4z"/><path fill="#1369f0" d="M86.4,61.3l1-0.2l0.2,1c0.1,0.4,0.5,0.6,0.9,0.5c0.4-0.1,0.6-0.5,0.6-0.9l-0.2-1l1-0.2 c0.4-0.1,0.6-0.5,0.5-0.9c-0.1-0.4-0.5-0.6-0.9-0.5l-1,0.2l-0.2-1c-0.1-0.4-0.5-0.6-0.9-0.5c-0.4,0.1-0.6,0.5-0.5,0.9l0.2,1 l-1,0.2c-0.4,0.1-0.6,0.5-0.5,0.9C85.6,61.1,86,61.4,86.4,61.3z"/><path fill="#1369f0" d="M7.3,73.9l-4.8,0c0,0,0,0,0,0c-0.6,0-1,0.4-1,1s0.4,1,1,1l4.8,0c0,0,0,0,0,0c0.6,0,1-0.4,1-1 S7.9,73.9,7.3,73.9z"/><path fill="#1369f0" d="M92.5,74L79,74l2.8-1.9c1.3-0.9,1.6-2.6,0.8-3.9c0,0,0,0,0,0l-3.7-5.6c-0.5-0.7-1.3-1.1-2.1-0.9l-0.7-1.1 c-0.2-0.3-0.3-0.7-0.2-1.1c0.3-0.9,0.1-1.9-0.4-2.8l-2.6-4.2V26.1c0-2.3-1.9-4.2-4.2-4.2H16.2c-2.3,0-4.2,1.9-4.2,4.2v34.1 c0,2.3,1.9,4.2,4.2,4.2h16.6v4.9h-1.6c-2.1,0-3.7,1.7-3.7,3.7V74l-14.3,0h0c-0.6,0-1,0.4-1,1c0,0.6,0.4,1,1,1 c4.3,0.1,46.1,0,46.9,0h0c0.6,0,1-0.4,1-1c0-0.6-0.4-1-1-1l-2.6,0v-0.8c0-2.1-1.7-3.7-3.7-3.7h-1.6v-4.9H56 c0.4,0.5,0.9,0.8,1.5,1l6.8,1.4c0.4,0.1,0.7,0.3,0.9,0.6l0.7,1.1c-0.5,0.7-0.6,1.6-0.1,2.3l2.1,3.1c-0.1,0-1.8,0-1.7,0 c-0.6,0-1,0.4-1,1c0,0.6,0.4,1,1,1l26.3,0h0c0.6,0,1-0.4,1-1C93.5,74.5,93.1,74,92.5,74z M55.4,73.1V74l-26,0v-0.8 c0-1,0.8-1.7,1.7-1.7h22.5C54.6,71.4,55.4,72.2,55.4,73.1z M14,60.3V26.1c0-1.2,1-2.2,2.2-2.2h52.5c1.2,0,2.2,1,2.2,2.2v24 c-0.9-0.5-2-0.5-2.8,0.1c-0.2,0.1-0.4,0.3-0.5,0.4V28.3c0-0.6-0.4-1-1-1H18.3c-0.6,0-1,0.4-1,1v29.9c0,0.6,0.4,1,1,1h39.8 l0.6,1c-1.4-0.3-2.9,0.6-3.2,2c0,0.1,0,0.2,0,0.3H16.2C15,62.5,14,61.5,14,60.3z M63.7,52c-1.1-0.5-2.4-0.3-3.2,0.6l-2.1-3.4 c-0.8-1.3-2.4-1.7-3.7-0.9c-1.4,0.8-1.7,2.6-0.9,3.9l3.1,5H19.3V29.3h46.3v21.5C64.9,50.9,64.2,51.3,63.7,52z M50.1,69.4H34.8 v-4.9h15.4V69.4z M64.7,64.9L58,63.5c-0.2,0-0.3-0.2-0.4-0.3c-0.2-0.3-0.1-0.8,0.2-1c0.2-0.1,0.4-0.1,0.5-0.1l2.3,0.5 c0.4,0.1,0.8-0.1,1-0.4c0.2-0.3,0.3-0.8,0-1.1l-6.2-10c-0.2-0.4-0.1-0.9,0.2-1.1c0.4-0.2,0.8-0.1,1,0.2c0.5,0.9-2-3.2,5.3,8.7 c0.3,0.5,0.9,0.6,1.4,0.3c0.5-0.3,0.6-0.9,0.3-1.4l-1.9-3c0,0,0,0,0,0l0,0c-0.2-0.3-0.1-0.8,0.3-1c0.3-0.2,0.8-0.1,1,0.2 c0.1,0.1,1.8,2.9,1.7,2.8c0.3,0.5,0.9,0.6,1.4,0.3c0.5-0.3,0.6-0.9,0.3-1.4c-0.1-0.1-1.2-2-1.2-1.9l0,0c-0.2-0.3-0.1-0.8,0.2-1 c0.3-0.2,0.8-0.1,1,0.2c0.1,0.1,1.6,2.5,1.5,2.4c0.3,0.5,0.9,0.6,1.4,0.3c0.5-0.3,0.6-0.9,0.3-1.4c-0.1-0.1-1-1.6-0.9-1.5l0,0 c-0.2-0.3-0.1-0.8,0.2-1c0.3-0.2,0.8-0.1,1,0.2l3.6,5.8c0.2,0.3,0.3,0.7,0.2,1.1c-0.3,0.9-0.1,1.9,0.4,2.7l0.6,1l-7.4,4.7 l-0.6-1C66.4,65.6,65.6,65.1,64.7,64.9z M77.2,63.7l3.7,5.6c0.2,0.4,0.1,0.9-0.2,1.1L75.5,74h-5.2l-2.8-4.2L77.2,63.7z"/><path fill="#1369f0" d="M30,31.8c-5,0-9.1,4.1-9.1,9.1c0,5,4.1,9.1,9.1,9.1c5,0,9.1-4.1,9.1-9.1C39.1,35.8,35,31.8,30,31.8z M30,47.9c-3.9,0-7.1-3.2-7.1-7.1c0-3.9,3.2-7.1,7.1-7.1c3.9,0,7.1,3.2,7.1,7.1C37.1,44.7,33.9,47.9,30,47.9z"/><path fill="#1369f0" d="M76.6,69.3c0.8,0,1.5-0.7,1.5-1.5c0-0.8-0.7-1.5-1.5-1.5c-0.8,0-1.5,0.7-1.5,1.5 C75.1,68.7,75.8,69.3,76.6,69.3z"/></g></svg>