<svg xmlns="http://www.w3.org/2000/svg"  viewBox="0 0 95 95" width="66px" height="66px"><path fill="#e8f0fd" d="M82.8,36.2c-4.3,2.9-9.3,4.6-13.5,7.6c-4.2,3.1-7.5,8.3-5.9,13.3c1,3.4,4,5.7,5.5,8.9 c1.9,4.2,0.8,9.5-2.4,12.9c-3.2,3.3-8.2,4.7-12.7,3.9c-4.6-0.8-8.6-3.7-11.3-7.4c-1.8-2.5-3-5.4-4.8-7.9 c-1.7-2.5-4.2-4.8-7.3-5.3c-5.9-0.8-11,5.5-17,5.1C9.6,67,6.3,63.7,5.5,60c-0.8-3.7,0.5-7.7,3-10.6c2.5-2.9,6-4.8,9.7-5.8 c2.5-0.7,5.1-1.1,7.6-2c2.5-0.9,4.8-2.4,6.1-4.7c3-5.8-2.3-13.1,0-19.1c1.3-3.5,5.2-5.7,8.9-5.6c3.7,0.1,7.3,2.1,9.6,5 c1.4,1.7,3.2,8.7,4.9,9.3c2,0.6,8.5-5.9,10.3-7.1c4.1-2.6,8.8-4.6,13.6-4.3c4.8,0.4,9.6,3.7,10.5,8.4 C90.7,28.4,87.1,33.3,82.8,36.2z"/><path fill="#e8f0fd" d="M37.1,79.9c0-0.3,0.3-0.6,0.6-0.6l0.9,0l0-0.9c0-0.3,0.3-0.6,0.6-0.6c0.3,0,0.6,0.3,0.6,0.6l0,0.9l0.9,0 c0.3,0,0.6,0.3,0.6,0.6c0,0.3-0.3,0.6-0.6,0.6l-0.9,0l0,0.9c0,0.3-0.3,0.6-0.6,0.6c-0.3,0-0.6-0.3-0.6-0.6l0-0.9l-0.9,0 C37.4,80.5,37.1,80.3,37.1,79.9z"/><path fill="#cedbf0" d="M16.7,23c0,0.4-0.4,0.7-0.8,0.7l-1.1,0l0,1.1c0,0.4-0.4,0.7-0.8,0.7c-0.4,0-0.7-0.3-0.7-0.8l0-1.1l-1.1,0 c-0.4,0-0.7-0.4-0.7-0.8c0-0.4,0.3-0.7,0.8-0.7l1.1,0l0-1.1c0-0.4,0.4-0.7,0.8-0.7c0.4,0,0.7,0.4,0.7,0.8l0,1.1l1.1,0 C16.4,22.3,16.7,22.6,16.7,23z"/><path fill="#fff" d="M37.8,19.3c0.9-0.5,1.9-0.9,2.9-1.1c0.3-0.1,0.5-0.3,0.6-0.5l0.9-2.6c0.2-0.6,0.5-0.8,0.9-0.8l2.6,0.1 c0.4,0,0.7,0.3,0.8,0.6l0.8,2.9c0.1,0.3,0.3,0.5,0.6,0.6c1,0.3,2,0.7,2.9,1.3c0.2,0.1,0.6,0.2,0.8,0l2.7-1.4 c0.3-0.2,0.7-0.1,1,0.2l1.8,1.9c0.3,0.3,0.3,0.7,0.1,1l-1.5,2.6c-0.1,0.3-0.1,0.6,0,0.8c0.5,0.9,1,1.8,1.2,2.8 c0.1,0.3,0.3,0.6,0.6,0.7l2.5,0.8c0.6,0.2,0.8,0.5,0.8,0.9l-0.1,2.6c0,0.4-0.3,0.7-0.6,0.8l-2.9,0.8c-0.3,0.1-0.5,0.3-0.6,0.6 c-0.3,1-0.7,2-1.3,2.9c-0.1,0.2-0.2,0.5,0,0.8l1.7,3.2l-2.8,2.7l-3.2-1.8c-0.3-0.1-0.6-0.1-0.8,0c-0.9,0.5-1.9,0.9-2.9,1.1 c-0.3,0.1-0.5,0.3-0.6,0.5L46,47c-0.2,0.6-0.5,0.8-0.9,0.8l-2.6-0.1c-0.4,0-0.7-0.3-0.8-0.6l-0.8-2.9c-0.1-0.3-0.3-0.5-0.6-0.6 c-1-0.3-2-0.7-2.9-1.3c-0.2-0.1-0.6-0.2-0.8,0l-2.7,1.4c-0.3,0.2-0.7,0.1-1-0.2L31,41.7c-0.3-0.3-0.3-0.7-0.1-1l1.5-2.6 c0.1-0.3,0.1-0.6,0-0.8c-0.5-0.9-0.9-1.9-1.1-2.9c-0.1-0.3-0.3-0.5-0.5-0.6l-2.6-0.9c-0.6-0.2-0.8-0.5-0.8-0.9l0.1-2.6 c0-0.4,0.3-0.7,0.6-0.8l2.9-0.8c0.3-0.1,0.5-0.3,0.6-0.6c0.3-1,0.7-2,1.3-2.9c0.1-0.2,0.2-0.5,0-0.8l-1.3-2.5 c-0.3-0.6-0.2-1,0.1-1.2l1.9-1.8c0.3-0.3,0.7-0.3,1-0.1l2.4,1.4C37.3,19.5,37.6,19.5,37.8,19.3z"/><circle cx="44.1" cy="31" r="8.1" fill="#fff" transform="rotate(-43.97 44.076 31.039)"/><path fill="#fff" d="M69.4,30.6v32.2c0,0.2,0,0.4-0.1,0.6c-0.1,0.2-0.1,0.4-0.2,0.5c-0.1,0.2-0.2,0.3-0.3,0.4 c0,0-0.1,0.1-0.1,0.1v0c-0.1,0.1-0.1,0.1-0.2,0.1c-0.1,0.1-0.2,0.2-0.3,0.2c0,0,0,0,0,0c-0.1,0-0.2,0.1-0.3,0.1 c-0.1,0-0.2,0.1-0.3,0.1c0,0,0,0-0.1,0c-0.1,0-0.3,0-0.4,0H21.1c-0.7,0-1.3-0.3-1.7-0.7c-0.1-0.1-0.2-0.2-0.3-0.4 c-0.3-0.4-0.4-0.8-0.4-1.3V30.6c0-1.7,1.4-3.1,3.1-3.1h44.5C68,27.6,69.4,28.9,69.4,30.6z"/><path fill="#fff" d="M69.4,59.2v3.6c0,0.2,0,0.4-0.1,0.6c-0.1,0.2-0.1,0.4-0.2,0.5c-0.1,0.2-0.2,0.3-0.3,0.4 c0,0-0.1,0.1-0.1,0.1v0c-0.1,0.1-0.1,0.1-0.2,0.1c-0.1,0.1-0.2,0.2-0.3,0.2c0,0,0,0,0,0c-0.1,0-0.2,0.1-0.3,0.1 c-0.1,0-0.2,0.1-0.3,0.1c0,0,0,0-0.1,0c-0.1,0-0.3,0-0.4,0H21.1c-0.7,0-1.3-0.3-1.7-0.7c-0.1-0.1-0.2-0.2-0.3-0.4 c-0.3-0.4-0.4-0.8-0.4-1.3v-3.6H69.4z"/><path fill="#e8f0fd" d="M69.4,59.2v3.6c0,0.4-0.1,0.8-0.3,1.1c-0.1,0.2-0.2,0.4-0.4,0.5v0c-0.1,0.1-0.1,0.1-0.2,0.1 c-0.4,0.3-0.9,0.5-1.5,0.5h-3.5c0.6,0,1.1-0.2,1.5-0.5c0.1,0,0.1-0.1,0.2-0.1v0c0.2-0.2,0.3-0.3,0.4-0.5 c0.2-0.3,0.3-0.7,0.3-1.1v-3.6H69.4z"/><polygon fill="#fff" points="48.7,65.2 49.8,71.3 38.1,71.3 39.2,65.2"/><polygon fill="#fff" points="48.7,65.2 49.8,71.3 38.1,71.3 39.2,65.2"/><polygon fill="#fff" points="48.7,65.2 49.8,71.3 38.1,71.3 39.2,65.2"/><path fill="#e8f0fd" d="M49.8,71.3H38.1l0.3-1.5c0.7,0.3,1.5,0.5,2.4,0.5c3,0,5.6-2.2,6-5.1h1.9L49.8,71.3z"/><path fill="#fff" d="M55,74.8H33.2c0-1,0.4-1.9,1-2.5c0.6-0.6,1.5-1,2.5-1h14.7C53.4,71.3,55,72.9,55,74.8z"/><rect width="41.9" height="27.3" x="23.1" y="31.9" fill="#fff"/><path fill="#cedbf0" d="M69.4,59.2v3.6c0,0.2,0,0.4-0.1,0.6c-0.1,0.2-0.1,0.4-0.2,0.5c-0.1,0.2-0.2,0.3-0.3,0.4 c0,0-0.1,0.1-0.1,0.1v0c-0.1,0.1-0.1,0.1-0.2,0.1c-0.1,0.1-0.2,0.2-0.3,0.2c0,0,0,0,0,0c-0.1,0-0.2,0.1-0.3,0.1 c-0.1,0-0.2,0.1-0.3,0.1c0,0,0,0-0.1,0c-0.1,0-0.3,0-0.4,0h-8.4c0-2.1,0.6-4.2,1.7-6c0.6-1,1.3-1.8,2.1-2.7 c0.8-0.8,1.7-1.4,2.6-1.9c1.3-0.7,2.8-1.2,4.4-1.4L69.4,59.2L69.4,59.2z" opacity=".3"/><g><path fill="#e8f0fd" d="M27.8,53.5V39.3c0-0.5,0.4-0.9,0.9-0.9h4c0.5,0,0.9,0.4,0.9,0.9v14.2c0,0.5-0.4,0.9-0.9,0.9h-4 C28.3,54.5,27.8,54.1,27.8,53.5z"/><path fill="#e8f0fd" d="M45.9,53.5v-13c0-0.5,0.4-0.9,0.9-0.9h4c0.5,0,0.9,0.4,0.9,0.9v13c0,0.5-0.4,0.9-0.9,0.9h-4 C46.3,54.5,45.9,54.1,45.9,53.5z"/></g><g><path fill="#fff" d="M80.4,65.6c-0.1,5.2-4.4,9.3-9.5,9.2c-5.2-0.1-9.3-4.4-9.2-9.5c0.1-5.2,4.4-9.3,9.5-9.2 C76.4,56.2,80.5,60.4,80.4,65.6z"/><path fill="#e8f0fd" d="M80.4,65.6c-0.1,5.2-4.4,9.3-9.5,9.2c-0.5,0-0.9,0-1.4-0.1c4.6-0.6,8.1-4.4,8.2-9.1s-3.3-8.7-7.9-9.4 c0.4-0.1,0.9-0.1,1.4-0.1C76.4,56.2,80.5,60.4,80.4,65.6z"/><path fill="#1369f0" d="M93.3,35.6l-1.1,0l0-1.1c0-0.4-0.3-0.7-0.7-0.8c-0.4,0-0.7,0.3-0.8,0.7l0,1.1l-1.1,0 c-0.4,0-0.7,0.3-0.8,0.7c0,0.4,0.3,0.7,0.7,0.8l1.1,0l0,1.1c0,0.4,0.3,0.7,0.7,0.8c0.4,0,0.7-0.3,0.8-0.7l0-1.1l1.1,0 c0.4,0,0.7-0.3,0.8-0.7C94,36,93.7,35.6,93.3,35.6z"/><path fill="#1369f0" d="M92.3,73.8h-2.1c-0.6,0-1,0.4-1,1s0.4,1,1,1h2.1c0.6,0,1-0.4,1-1S92.9,73.8,92.3,73.8z"/><path fill="#1369f0" d="M83.4,73.8h-6.3c2.5-1.9,4.2-4.8,4.3-8.2c0-2.8-1-5.4-2.9-7.4c-2-2.1-4.7-3.2-7.5-3.2c-0.2,0-0.4,0-0.6,0 V30.6c0-2.2-1.8-4.1-4.1-4.1h-8.6c-0.3-0.8-0.7-1.5-1-2.2l1.4-2.5c0.4-0.7,0.3-1.6-0.3-2.2L56,17.7c-0.6-0.6-1.4-0.7-2.2-0.4 l-2.6,1.3c-0.9-0.5-1.9-1-3-1.3l-0.8-2.8c-0.2-0.8-0.9-1.3-1.7-1.3l-2.6-0.1h0c-0.8,0-1.5,0.6-1.8,1.5l-0.8,2.5 c-1,0.3-2,0.7-3,1.2c0,0-0.1,0-0.1-0.1L34.9,17c-0.7-0.4-1.6-0.3-2.2,0.3l-1.9,1.8c-0.6,0.6-0.7,1.5-0.3,2.4l1.2,2.4 c-0.5,0.8-0.9,1.7-1.2,2.7h-8.7c-2.2,0-4.1,1.8-4.1,4.1v32.2c0,1.9,1.5,3.4,3.4,3.4H38l-0.8,4.1h-0.5c-2.1,0-4,1.4-4.4,3.6H15.7 c-0.6,0-1,0.4-1,1s0.4,1,1,1c15.4,0,52.8,0,67.7,0c0.6,0,1-0.4,1-1S84,73.8,83.4,73.8z M51.4,70.3h-0.8l-0.8-4.1h10.8 c0.2,2.4,1.2,4.7,2.9,6.5c0.4,0.4,0.9,0.8,1.4,1.2h-9C55.4,71.8,53.6,70.3,51.4,70.3z M64,57.8c-0.1,0.1-0.3,0.3-0.4,0.4H24.1 V32.9H64V57.8z M79.4,65.6c-0.1,4.6-3.8,8.2-8.4,8.2c0,0-0.1,0-0.1,0c-2.2,0-4.3-0.9-5.9-2.6c-1.6-1.6-2.4-3.7-2.3-6 c0.1-4.6,3.8-8.2,8.4-8.2C75.7,57.1,79.5,60.9,79.4,65.6z M33.6,23.1c-1.3-2.6-1.3-2.5-1.3-2.6l1.7-1.7l2.3,1.3 c0.7,0.4,1.4,0.4,2,0.1h0c0.9-0.5,1.8-0.8,2.7-1.1c0.6-0.2,1.1-0.6,1.3-1.2l0.9-2.6c0-0.1,0-0.1,0.1-0.1l2.4,0l0.8,2.8 c0.2,0.6,0.6,1.1,1.2,1.3c0.9,0.3,1.8,0.7,2.7,1.2c0.5,0.3,1.2,0.3,1.8,0.1l2.6-1.3l1.7,1.7l-1.4,2.5c-0.3,0.6-0.3,1.3,0,1.8 c0.2,0.4,0.5,0.8,0.7,1.3H52c-0.4-0.8-1-1.5-1.7-2.1c-4.3-4-11.3-3-14.2,2.1h-3.5c0.2-0.6,0.5-1.2,0.8-1.7 C33.8,24.3,33.8,23.6,33.6,23.1z M49.6,26.6h-11c0.1-0.1,0.2-0.3,0.3-0.4C41.9,23,46.9,23.2,49.6,26.6z M19.8,30.6 c0-1.1,0.9-2.1,2.1-2.1h44.5c1.1,0,2.1,0.9,2.1,2.1v24.8c-0.8,0.2-1.6,0.5-2.4,0.9V31.9c0-0.6-0.4-1-1-1H23.1c-0.6,0-1,0.4-1,1 v26.3h-2.4V30.6z M19.8,62.8v-2.6c54.3,0,39.8,0,42.3,0c-0.7,1.2-1.2,2.5-1.4,4c-20.3,0-19.1,0-39.6,0 C20.4,64.2,19.8,63.6,19.8,62.8z M40,66.2h7.8l0.8,4.1h-9.3L40,66.2z M34.4,73.8c0.4-0.9,1.3-1.6,2.3-1.6H38 c-0.4,0,5.5,0,13.4,0c1.1,0,2,0.6,2.4,1.6H34.4z"/><path fill="#1369f0" d="M7.7,73.8H2c-0.6,0-1,0.4-1,1s0.4,1,1,1h5.8c0.6,0,1-0.4,1-1S8.3,73.8,7.7,73.8z"/><path fill="#1369f0" d="M43.9,63.3c0.7,0,1.2-0.6,1.2-1.2c0-0.7-0.6-1.2-1.2-1.2c-0.7,0-1.2,0.6-1.2,1.2 C42.7,62.8,43.3,63.3,43.9,63.3z"/><path fill="#1369f0" d="M37.8,54.5h4c0.5,0,0.9-0.4,0.9-0.9V44c0-0.5-0.4-0.9-0.9-0.9h-4c-0.5,0-0.9,0.4-0.9,0.9v9.5 C36.8,54.1,37.3,54.5,37.8,54.5z"/><path fill="#1369f0" d="M55.8,54.5h4c0.5,0,0.9-0.4,0.9-0.9v-16c0-0.5-0.4-0.9-0.9-0.9h-4c-0.5,0-0.9,0.4-0.9,0.9v16 C54.9,54.1,55.3,54.5,55.8,54.5z"/><path fill="#1369f0" d="M69,68.8c0.1,0.2,0.3,0.2,0.5,0.2c0.2,0,0.4-0.1,0.5-0.2l5.6-5.6c0.3-0.3,0.3-0.8,0-1.1 c-0.3-0.3-0.8-0.3-1.1,0l-5,5l-2-2c-0.3-0.3-0.8-0.3-1.1,0c-0.3,0.3-0.3,0.8,0,1.1L69,68.8z"/></g></svg>