<?xml version="1.0" encoding="UTF-8"?>
<!DOCTYPE svg PUBLIC "-//W3C//DTD SVG 1.1//EN" "http://www.w3.org/Graphics/SVG/1.1/DTD/svg11.dtd">
<!-- Creator: CorelDRAW -->
<svg xmlns="http://www.w3.org/2000/svg" xml:space="preserve" width="17.0949mm" height="12.6649mm" version="1.1" shape-rendering="geometricPrecision" text-rendering="geometricPrecision" image-rendering="optimizeQuality" fill-rule="evenodd" clip-rule="evenodd"
viewBox="0 0 1709.5 1266.5"
 xmlns:xlink="http://www.w3.org/1999/xlink"
 xmlns:xodm="http://www.corel.com/coreldraw/odm/2003">
 <g id="Camada_x0020_1">
  <metadata id="CorelCorpID_0Corel-Layer"/>
  <path fill="#1369F0" fill-rule="nonzero" d="M663.57 1227.9c0,-5.51 5.51,-11.03 11.03,-11.03l16.54 0 0 -16.54c0,-5.51 5.51,-11.03 11.03,-11.03 5.51,0 11.03,5.51 11.03,11.03l0 16.54 16.54 0c5.51,0 11.03,5.51 11.03,11.03 0,5.51 -5.51,11.03 -11.03,11.03l-16.54 0 0 16.54c0,5.51 -5.51,11.03 -11.03,11.03 -5.51,0 -11.03,-5.51 -11.03,-11.03l0 -16.54 -16.54 0c-5.51,0 -11.03,-3.67 -11.03,-11.03z"/>
  <path fill="#1369F0" fill-rule="nonzero" d="M288.59 181.98c0,7.35 -7.35,12.87 -14.71,12.87l-20.22 0 0 20.22c0,7.35 -7.35,12.87 -14.71,12.87 -7.35,0 -12.87,-5.51 -12.87,-14.71l0 -20.22 -20.22 0c-7.35,0 -12.87,-7.35 -12.87,-14.71 0,-7.35 5.51,-12.87 14.71,-12.87l20.22 0 0 -20.22c0,-7.35 7.35,-12.87 14.71,-12.87 7.35,0 12.87,7.35 12.87,14.71l0 20.22 20.22 0c7.35,1.84 12.87,7.36 12.87,14.71z"/>
  <g id="_1980157546064">
   <path fill="#1369F0" fill-rule="nonzero" d="M492.62 742.62l0 -261.02c0,-9.19 7.35,-16.54 16.54,-16.54l73.53 0c9.19,0 16.54,7.35 16.54,16.54l0 261.02c0,9.19 -7.35,16.54 -16.54,16.54l-73.52 0c-7.36,1.84 -16.55,-5.51 -16.55,-16.54z"/>
   <path fill="#1369F0" fill-rule="nonzero" d="M825.33 742.62l0 -238.96c0,-9.19 7.35,-16.54 16.54,-16.54l73.53 0c9.19,0 16.54,7.35 16.54,16.54l0 238.96c0,9.19 -7.35,16.54 -16.54,16.54l-73.53 0c-9.19,1.84 -16.54,-5.51 -16.54,-16.54z"/>
  </g>
  <path fill="#1369F0" fill-rule="nonzero" d="M1696.63 413.59l-20.22 0 0 -20.22c0,-7.35 -5.51,-12.87 -12.87,-14.71 -7.35,0 -12.87,5.51 -14.71,12.87l0 20.22 -20.22 0c-7.35,0 -12.87,5.51 -14.71,12.87 0,7.35 5.51,12.87 12.87,14.71l20.22 0 0 20.22c0,7.35 5.51,12.87 12.87,14.71 7.35,0 12.87,-5.51 14.71,-12.87l0 -20.22 20.22 0c7.35,0 12.87,-5.51 14.71,-12.87 -0.01,-7.36 -5.52,-14.71 -12.87,-14.71z"/>
  <path fill="#1369F0" fill-rule="nonzero" d="M1678.24 1115.78l-38.6 0c-11.03,0 -18.38,7.35 -18.38,18.38 0,11.03 7.35,18.38 18.38,18.38l38.6 0c11.03,0 18.38,-7.35 18.38,-18.38 0,-11.03 -7.35,-18.38 -18.38,-18.38z"/>
  <path fill="#1369F0" fill-rule="nonzero" d="M1514.65 1115.78l-115.81 0c45.95,-34.93 77.2,-88.23 79.04,-150.73 0,-51.47 -18.38,-99.26 -53.31,-136.02 -36.76,-38.6 -86.39,-58.82 -137.86,-58.82 -3.68,0 -7.35,0 -11.03,0l0.01 -448.52c0,-40.44 -33.09,-75.36 -75.36,-75.36l-158.09 0c-5.51,-14.71 -12.87,-27.57 -18.38,-40.44l25.73 -45.95c7.35,-12.87 5.51,-29.41 -5.51,-40.44l-33.09 -34.93c-11.03,-11.03 -25.73,-12.87 -40.44,-7.35l-47.79 23.9c-16.54,-9.19 -34.93,-18.38 -55.14,-23.9l-14.71 -51.47c-3.68,-14.71 -16.54,-23.9 -31.25,-23.9l-47.79 -1.84 0 0c-14.71,0 -27.57,11.03 -33.09,27.57l-14.71 45.95c-18.38,5.51 -36.76,12.87 -55.14,22.06 0,0 -1.84,0 -1.84,-1.84l-45.95 -22.05c-12.87,-7.35 -29.41,-5.51 -40.44,5.51l-34.93 33.09c-11.03,11.03 -12.87,27.57 -5.51,44.12l22.06 44.12c-9.19,14.71 -16.54,31.25 -22.06,49.63l-159.92 -0.01c-40.44,0 -75.36,33.09 -75.36,75.36l0 591.89c0,34.93 27.57,62.5 62.5,62.5l310.64 0 -14.71 75.36 -9.18 0.01c-38.6,0 -73.53,25.73 -80.88,66.17l-305.13 0c-11.03,0 -18.38,7.35 -18.38,18.38 0,11.03 7.35,18.38 18.38,18.38 283.08,0 970.56,0 1244.44,0 11.03,0 18.38,-7.35 18.38,-18.38 0,-11.03 -7.35,-22.05 -18.38,-22.05zm-588.21 -64.34l-14.71 0 -14.71 -75.36 198.53 0c3.68,44.12 22.06,86.39 53.31,119.48 7.35,7.35 16.54,14.71 25.73,22.06l-165.43 -0.01c-9.2,-38.6 -42.28,-66.17 -82.72,-66.17zm231.61 -229.77c-1.84,1.84 -5.51,5.51 -7.35,7.35l-726.08 0 0 -465.05 733.43 0 0 457.7zm283.07 143.38c-1.84,84.56 -69.85,150.73 -154.41,150.73 0,0 -1.84,0 -1.84,0 -40.44,0 -79.04,-16.54 -108.45,-47.79 -29.41,-29.41 -44.12,-68.01 -42.28,-110.29 1.84,-84.56 69.85,-150.73 154.41,-150.73 84.56,1.83 154.41,71.68 152.57,158.08zm-841.87 -781.22c-23.9,-47.79 -23.9,-45.95 -23.9,-47.79l31.25 -31.25 42.28 23.9c12.87,7.35 25.73,7.35 36.76,1.84l0 -0.01c16.54,-9.19 33.09,-14.71 49.63,-20.22 11.03,-3.68 20.22,-11.03 23.9,-22.06l16.54 -47.79c0,-1.84 0,-1.84 1.84,-1.84l44.12 0 14.71 51.47c3.68,11.03 11.03,20.22 22.06,23.9 16.54,5.51 33.09,12.87 49.63,22.06 9.19,5.51 22.06,5.51 33.09,1.84l47.79 -23.9 31.25 31.25 -25.73 45.95c-5.51,11.03 -5.51,23.9 0,33.09 3.68,7.35 9.19,14.71 12.87,23.9l-69.87 0c-7.35,-14.71 -18.38,-27.57 -31.25,-38.6 -79.04,-73.53 -207.71,-55.14 -261.02,38.6l-64.34 0c3.68,-11.03 9.19,-22.06 14.71,-31.25 7.35,-11.03 7.35,-23.9 3.68,-33.09zm294.1 64.33l-202.2 0c1.84,-1.84 3.68,-5.51 5.51,-7.35 55.15,-58.82 147.06,-55.14 196.69,7.35zm-547.77 73.53c0,-20.22 16.54,-38.6 38.6,-38.6l817.98 0c20.22,0 38.6,16.54 38.6,38.6l0 455.86c-14.71,3.68 -29.41,9.19 -44.12,16.54l0.01 -448.5c0,-11.03 -7.35,-18.38 -18.38,-18.38l-772.03 0c-11.03,0 -18.38,7.35 -18.38,18.38l0 483.44 -44.12 -0.01 0 -507.33 1.84 0zm0 591.89l0 -47.79c998.13,0 731.59,0 777.54,0 -12.87,22.06 -22.06,45.95 -25.73,73.53 -373.15,0 -351.09,0 -727.91,0 -12.87,-0.01 -23.9,-11.04 -23.9,-25.74zm371.31 62.5l143.37 0 14.71 75.36 -170.95 0 12.87 -75.36zm-102.94 139.7c7.35,-16.54 23.9,-29.41 42.28,-29.41l23.89 0c-7.35,0 101.1,0 246.31,0 20.22,0 36.76,11.03 44.12,29.41l-356.6 0z"/>
  <path fill="#1369F0" fill-rule="nonzero" d="M123.15 1115.78l-104.77 0c-11.03,0 -18.38,7.35 -18.38,18.38 0,11.03 7.35,18.38 18.38,18.38l106.61 0c11.03,0 18.38,-7.35 18.38,-18.38 0,-11.03 -9.19,-18.38 -20.22,-18.38z"/>
  <path fill="#1369F0" fill-rule="nonzero" d="M788.57 922.77c12.87,0 22.06,-11.03 22.06,-22.06 0,-12.87 -11.03,-22.06 -22.06,-22.06 -12.87,0 -22.06,11.03 -22.06,22.06 0,12.87 11.03,22.06 22.06,22.06z"/>
  <path fill="#1369F0" fill-rule="nonzero" d="M676.44 761l73.52 0c9.19,0 16.54,-7.35 16.54,-16.54l0.01 -176.47c0,-9.19 -7.35,-16.54 -16.54,-16.54l-73.53 0c-9.19,0 -16.54,7.35 -16.54,16.54l0 174.63c-1.84,11.03 7.35,18.38 16.54,18.38z"/>
  <path fill="#1369F0" fill-rule="nonzero" d="M1007.32 761l73.52 0c9.19,0 16.54,-7.35 16.54,-16.54l0 -294.11c0,-9.19 -7.35,-16.54 -16.54,-16.54l-73.52 0c-9.19,0 -16.54,7.35 -16.54,16.54l0 294.11c-0.01,9.19 7.35,16.54 16.54,16.54z"/>
  <path fill="#1369F0" fill-rule="nonzero" d="M1249.95 1023.87c1.84,3.68 5.51,3.68 9.19,3.68 3.68,0 7.35,-1.84 9.19,-3.68l102.94 -102.94c5.51,-5.51 5.51,-14.71 0,-20.22 -5.51,-5.51 -14.71,-5.51 -20.22,0l-91.91 91.91 -36.76 -36.76c-5.51,-5.51 -14.71,-5.51 -20.22,0 -5.51,5.51 -5.51,14.71 0,20.22l47.79 47.79z"/>
 </g>
</svg>
