<svg xmlns="http://www.w3.org/2000/svg"  viewBox="0 0 95 95" width="66px" height="66px"><path fill="#e8f0fd" d="M82.6,81.7c-3.7,2-8.3,0.1-11.5-2.6c-3.2-2.7-7.1-7.7-10.4-10.2c-5.5-4.1-13.6-4.4-19.4-0.8 c-3.5,2.1-6.1,5.4-8.9,8.4c-2.8,3-6.1,5.8-10.1,6.5c-4.8,0.9-9.9-1.5-12.6-5.6c-2.7-4-3.2-9.3-1.8-14c1.5-4.6,4.8-8.6,8.8-11.3 c3.5-2.4,8-4.6,8.6-8.7c0.5-3.6-2-6.2-3.4-9.3c-1.4-3-2.3-6.3-2.7-9.6c-0.3-2.4-0.3-4.9,0.9-6.9c2.1-3.5,7.4-4.1,11-2 s5.7,6,7,9.9c0.5,1.5,0.9,3,1.7,4.3c0.8,1.3,2,2.5,3.5,2.8c1.6,0.3,3.3-0.4,4.5-1.6c1.9-1.9,2.6-4.8,3.9-7.2 c1.5-2.6,3.2-5.2,5.4-7.3c3-2.8,6.9-4.7,11-4.6c4.1,0.1,8.2,2.6,9.6,6.4c1.4,3.8,0,8-2.2,11.4c-2.2,3.4-5.2,6.2-7.4,9.5 c-2.3,3.3-3.8,7.5-2.7,11.3c1.7,3.1,4.9,4.1,8.6,7.1c3.7,3,9.2,7.3,11.3,11.5C87.5,73.4,86.8,79.4,82.6,81.7z"/><path fill="#e8f0fd" d="M89.1,48c0,0.5-0.3,0.9-0.7,0.8l-1,0l0,1.2c0,0.5-0.3,0.8-0.7,0.8c-0.4,0-0.7-0.4-0.6-0.9l0-1.2l-1,0 c-0.4,0-0.7-0.4-0.6-0.9c0-0.5,0.3-0.8,0.7-0.8l1,0l0-1.2c0-0.5,0.3-0.8,0.7-0.8c0.4,0,0.7,0.4,0.6,0.9l0,1.2l1,0 C88.9,47.1,89.1,47.5,89.1,48z"/><path fill="#e8f0fd" d="M43.1,80.7c0,0.4-0.4,0.7-0.8,0.7l-1.1,0l0,1.1c0,0.4-0.4,0.7-0.8,0.7c-0.4,0-0.7-0.3-0.7-0.8l0-1.1l-1.1,0 c-0.4,0-0.7-0.4-0.7-0.8c0-0.4,0.3-0.7,0.8-0.7l1.1,0l0-1.1c0-0.4,0.4-0.7,0.8-0.7c0.4,0,0.7,0.4,0.7,0.8l0,1.1l1.1,0 C42.8,79.9,43.1,80.3,43.1,80.7z"/><path fill="#fff" d="M62.3,50.5v-2.6c0-0.5-0.4-1-1-1H33.7c-0.5,0-1,0.4-1,1v2.6c0,0.5,0.4,1,1,1h27.6 C61.9,51.4,62.3,51,62.3,50.5z"/><path fill="#cedbf0" d="M62.3,47.9v2.6c0,0.5-0.4,1-1,1h-3.4c0.5,0,1-0.4,1-1v-2.6c0-0.5-0.4-1-1-1h3.4 C61.9,46.9,62.3,47.3,62.3,47.9z"/><rect width="23.5" height="23.4" x="35.8" y="51.4" fill="#fff"/><rect width="3.6" height="23.4" x="55.6" y="51.4" fill="#e8f0fd"/><rect width="3.7" height="15.5" x="32.1" y="59.3" fill="#e8f0fd"/><rect width="3.7" height="4.5" x="32.1" y="54.7" fill="#e8f0fd"/><rect width="23.5" height="14.6" x="12.3" y="60.2" fill="#fff"/><path fill="#fff" d="M35.7,60.2v-4.5H9.9c-0.5,0-1,0.4-1,1v2.6c0,0.5,0.4,1,1,1H35.7z"/><rect width="23.5" height="11.7" x="59.3" y="63.1" fill="#fff"/><rect width="3.2" height="11.7" x="79.5" y="63.1" fill="#e8f0fd"/><path fill="#fff" d="M59.3,62.8v-4.5h25.9c0.5,0,1,0.4,1,1v2.6c0,0.5-0.4,1-1,1H59.3z"/><path fill="#e8f0fd" d="M85.7,59.2v2.6c0,0.5-0.4,1-1,1h-3c0.5,0,1-0.4,1-1v-2.6c0-0.5-0.4-1-1-1h3C85.2,58.2,85.7,58.6,85.7,59.2z"/><polygon fill="#fff" points="50.6,42.7 45.1,42.7 46.1,37.8 49.6,37.8"/><polygon fill="#e8f0fd" points="50.6,42.6 48.6,42.6 47.7,37.8 49.6,37.8"/><path fill="#fff" d="M50.4,34.2c0.5,0.2,0.8,0.8,0.8,1.3v1.7c0,0.7-0.6,1.3-1.3,1.3h-4.1c-0.7,0-1.3-0.6-1.3-1.3v-1.7 c0-0.4,0.2-0.8,0.5-1"/><path fill="#e8f0fd" d="M51.2,35.4v1.7c0,0.7-0.6,1.3-1.3,1.3H48c0.7,0,1.3-0.6,1.3-1.3v-1.7c0-0.4-0.2-1-0.6-1.2l1.7-0.1 C50.9,34.3,51.2,34.9,51.2,35.4z"/><path fill="#fff" d="M54.2,46.9V44c0-0.7-0.6-1.4-1.3-1.4h-9.7c-0.7,0-1.3,0.6-1.3,1.4v2.9H54.2z"/><path fill="#e8f0fd" d="M51.9,44v2.9h2.4V44c0-0.7-0.6-1.3-1.3-1.3h-2.4C51.3,42.6,51.9,43.3,51.9,44z"/><path fill="#fff" d="M56.3,15.3c0,0.7,0,1.3,0,2c-0.2,4.1-0.9,7.9-2.1,10.8c-1.3,3.3-3,5.6-5,6.4c-0.1,0.1-0.3,0.1-0.4,0.1 C48.4,34.9,48,35,47.6,35c-0.4,0-0.9-0.1-1.3-0.2c-0.1,0-0.3-0.1-0.4-0.2c-2-0.9-3.7-3.2-4.9-6.4c-1.2-3-1.9-6.7-2.1-10.8 c0-0.7,0-1.3,0-2H56.3z"/><path fill="#e8f0fd" d="M56.3,15.3c0,0.7,0,1.3,0,2c-0.2,4.1-0.9,7.9-2.1,10.8c-1.3,3.3-3,5.6-5,6.4c-0.1,0.1-0.2,0.1-0.4,0.1 C48.4,34.9,48,35,47.6,35c-0.4,0-0.7-0.1-1.1-0.1c0.1,0,0.1,0,0.2-0.1c0.1,0,0.3-0.1,0.4-0.1c2-0.9,3.7-3.2,5-6.4 c1.1-3,1.9-6.7,2.1-10.8c0-0.6,0-1.3,0-2H56.3z"/><path fill="#e8f0fd" d="M49.6,24.9l0.9,2.7c0.1,0.3-0.2,0.5-0.4,0.3l-2.3-1.7c-0.1-0.1-0.2-0.1-0.3,0l-2.3,1.7 c-0.2,0.2-0.5-0.1-0.4-0.3l0.9-2.7c0-0.1,0-0.2-0.1-0.3l-2.3-1.7c-0.2-0.2-0.1-0.5,0.2-0.5h2.8c0.1,0,0.2-0.1,0.3-0.2l0.9-2.7 c0.1-0.3,0.5-0.3,0.5,0l0.9,2.7c0,0.1,0.1,0.2,0.3,0.2h2.8c0.3,0,0.4,0.3,0.2,0.5l-2.3,1.7C49.6,24.6,49.5,24.8,49.6,24.9z"/><g><path fill="#1369f0" d="M9.4,20.6c0-0.4-0.3-0.8-0.7-0.8l-1-0.1l0.1-1c0-0.4-0.3-0.8-0.7-0.8c-0.4,0-0.8,0.3-0.8,0.7l-0.1,1l-1-0.1 c-0.4,0-0.8,0.3-0.8,0.7c0,0.4,0.3,0.8,0.7,0.8l1,0.1l-0.1,1c0,0.4,0.3,0.8,0.7,0.8c0.4,0,0.8-0.3,0.8-0.7l0.1-1l1,0.1 C9,21.3,9.4,21,9.4,20.6z"/><path fill="#1369f0" d="M70.4,18.5l1.1,0l0,1.1c0,0.4,0.3,0.7,0.7,0.8c0.4,0,0.7-0.3,0.8-0.7l0-1.1l1.1,0c0.4,0,0.7-0.3,0.8-0.7 c0-0.4-0.3-0.7-0.7-0.8l-1.1,0l0-1.1c0-0.4-0.3-0.7-0.7-0.8c-0.4,0-0.7,0.3-0.8,0.7l0,1.1l-1.1,0c-0.4,0-0.7,0.3-0.8,0.7 C69.7,18.2,70,18.5,70.4,18.5z"/><path fill="#1369f0" d="M3.6,73.8l-1.1,0h0c-0.6,0-1,0.4-1,1c0,0.6,0.4,1,1,1l1.1,0h0c0.6,0,1-0.4,1-1C4.6,74.3,4.1,73.8,3.6,73.8z"/><path fill="#1369f0" d="M92.5,73.9l-1.4,0h0c-0.6,0-1,0.4-1,1c0,0.6,0.4,1,1,1l1.4,0h0c0.6,0,1-0.4,1-1 C93.5,74.4,93.1,73.9,92.5,73.9z"/><path fill="#1369f0" d="M85.1,57.2H60.3v-4.8h1.1c1.1,0,2-0.9,2-1.9v-2.6c0-1.1-0.9-2-2-2h-6.1V44c0-1.3-1-2.3-2.3-2.3h-1.5 l-0.5-2.5c0.8-0.4,1.3-1.2,1.3-2.1v-1.6c0-0.5-0.1-1-0.4-1.4c1.2-1.2,2.3-2.9,3.2-5c4.2-1.1,7.4-5.5,7.7-10.9 c0-0.5-0.2-0.9-0.5-1.3c-0.3-0.4-0.8-0.6-1.3-0.6c0,0,0,0,0,0l-3.5,0c0-0.3,0-0.7,0-1c0-0.5-0.4-1-1-1H38.8c-0.6,0-1,0.5-1,1 c0,0.3,0,0.7,0,1h-3.6c-0.5,0-1,0.2-1.3,0.6c-0.3,0.3-0.5,0.8-0.5,1.2v0.1c0.3,5.4,3.5,9.8,7.8,10.8c1,2.4,2.2,4.2,3.5,5.3 c-0.2,0.3-0.2,0.7-0.2,1v1.6c0,0.9,0.5,1.7,1.3,2.1l-0.5,2.5h-1.1c-1.3,0-2.3,1.1-2.3,2.3v1.9h-7.1c-1.1,0-1.9,0.9-1.9,2v2.6 c0,1.1,0.9,1.9,1.9,1.9h1.1v2.2H9.8c-1.1,0-2,0.9-2,1.9v2.6c0,1.1,0.9,1.9,2,1.9h1.4v12.6l-2,0h0c-0.6,0-1,0.4-1,1 c0,0.6,0.4,1,1,1l76.1,0.1h0c0.6,0,1-0.4,1-1c0-0.6-0.4-1-1-1l-1.7,0V63.8h1.4c1.1,0,2-0.9,2-1.9v-2.6 C87.1,58.1,86.2,57.2,85.1,57.2z M50.2,35.4c0,0.1,0,1.8,0,1.6c0,0.2-0.1,0.3-0.3,0.3h-4.1c-0.2,0-0.3-0.1-0.3-0.3V37v-1.5 c0.2,0.1,0.3,0.1,0.5,0.2c1.2,0.4,2.4,0.3,3.6-0.2c0.2-0.1,0.3-0.2,0.5-0.3C50.2,35.3,50.2,35.4,50.2,35.4z M60.6,18.3 c-0.3,3.7-2.2,6.9-4.8,8.3c0.1-0.4,0.2-0.8,0.3-1.2c0.1-0.5,0.3-1.1,0.4-1.6c0-0.2,0.1-0.4,0.1-0.6c0.1-0.3,0.1-0.7,0.2-1 c0.1-0.9,0.3-1.8,0.3-2.8c0-0.3,0-0.5,0.1-0.8c0-0.1,0-0.2,0-0.2H60.6z M34.4,18.4h3.4c0,0,0,0.1,0,0.1c0.1,2.3,0.5,4.9,1.1,7.1 c0,0.1,0,0.2,0.1,0.2c0,0.2,0.1,0.4,0.2,0.6c0,0.1,0,0.2,0.1,0.3C36.7,25.3,34.7,22.1,34.4,18.4z M39.8,17.4 C39.8,17.4,39.8,17.3,39.8,17.4l0-0.1c0-0.3,0-0.6,0-1h15.6c0,0.3,0,0.6,0,0.9c0,0,0,0,0,0.1c-0.1,1.4-0.2,2.8-0.4,4.1 c-0.3,2.4-0.9,4.5-1.6,6.4c-1.2,3.1-2.8,5.2-4.5,5.9c-0.1,0-0.2,0.1-0.3,0.1c-0.7,0.3-1.5,0.2-2.3-0.1 C41.8,31.7,40,22.3,39.8,17.4z M46.8,39.4h2.1l0.5,2.3h-3L46.8,39.4z M42.8,44c0-0.2,0.2-0.3,0.3-0.3c0.2,0,7.8,0,7.4,0h2.3 c0.2,0,0.3,0.1,0.3,0.3v1.9H42.8V44z M33.7,47.9c29.7,0-14.9,0,27.6,0v2.6c-30.1,0-25.2,0-27.5,0.1L33.7,47.9z M58.3,52.4 c0,7.7,0,13.8,0,21.4H36.8V52.4H58.3z M9.8,56.7h24.9v2.5c-2.5,0,9.2,0-24.9,0.1L9.8,56.7z M34.7,61.2v12.6H13.3V61.2H34.7z M81.7,73.8H60.3V63.8h21.5V73.8z M60.3,61.8v-2.5l24.8-0.1l0,2.6C78.9,61.8,66.4,61.8,60.3,61.8z"/><path fill="#1369f0" d="M45.7,60.9c0.1,0,0.2,0,0.3-0.1l1-0.5v5.5h-1.2c-0.2,0-0.3,0.1-0.4,0.2c-0.1,0.1-0.2,0.3-0.2,0.4 c0,0.2,0.1,0.3,0.2,0.4s0.3,0.2,0.4,0.2h3.5c0.2,0,0.3-0.1,0.4-0.2c0.1-0.1,0.2-0.3,0.2-0.4c0-0.2-0.1-0.3-0.2-0.4l0,0 c-0.1-0.1-0.3-0.2-0.4-0.2h-1v-6.3c0-0.2-0.1-0.3-0.2-0.5c-0.1-0.1-0.3-0.2-0.5-0.2h-0.2c-0.1,0-0.3,0-0.4,0.1l-1.6,0.8 c-0.2,0.1-0.4,0.3-0.4,0.6c0,0.2,0.1,0.3,0.2,0.4C45.4,60.9,45.5,60.9,45.7,60.9z"/><path fill="#1369f0" d="M24.8,67c-0.3,0.2-0.6,0.4-1.1,0.7c-0.5,0.4-1,0.7-1.3,0.9c-0.3,0.3-0.6,0.6-0.9,0.9 c-0.2,0.4-0.4,0.7-0.4,1.2c0,0.2,0.1,0.4,0.2,0.5c0.1,0.1,0.3,0.2,0.5,0.2h4.4c0.2,0,0.3-0.1,0.4-0.2c0.1-0.1,0.2-0.3,0.2-0.4 c0-0.2-0.1-0.3-0.2-0.4l0,0c-0.1-0.1-0.3-0.2-0.4-0.2h-3.8c0.1-0.2,0.2-0.3,0.4-0.5c0.3-0.2,0.7-0.5,1.2-0.9 c0.6-0.4,1.1-0.7,1.4-1c0.4-0.3,0.7-0.6,1-1c0.3-0.4,0.4-0.8,0.4-1.3c0-0.5-0.1-0.9-0.4-1.3c-0.5-0.8-1.4-1.2-2.4-1.2 c-0.9,0-1.8,0.2-2.6,0.6c-0.2,0.1-0.3,0.3-0.3,0.5c0,0.2,0.1,0.3,0.2,0.4c0.2,0.2,0.4,0.2,0.7,0.1c0.6-0.3,1.2-0.4,1.9-0.4 c0.6,0,1,0.1,1.3,0.4c0.3,0.2,0.4,0.5,0.4,0.9c0,0.3-0.1,0.5-0.3,0.7C25.2,66.6,25,66.8,24.8,67z"/><path fill="#1369f0" d="M72,71.3c-0.3,0.2-0.8,0.2-1.3,0.2c-0.6,0-1.1-0.1-1.5-0.3c-0.2-0.1-0.4,0-0.6,0.1 c-0.1,0.1-0.1,0.2-0.1,0.4c0,0.1,0,0.2,0.1,0.3c0.1,0.1,0.1,0.1,0.2,0.2c0.7,0.3,1.4,0.4,2.1,0.4c0.8,0,1.4-0.2,1.9-0.5 c0.5-0.4,0.8-0.9,0.8-1.5c0-0.6-0.2-1-0.5-1.3c-0.2-0.2-0.5-0.4-0.8-0.5c0.2-0.1,0.5-0.3,0.6-0.5c0.2-0.3,0.4-0.7,0.4-1.1 c0-0.6-0.2-1.1-0.7-1.4c-0.4-0.3-1-0.5-1.8-0.5c-0.7,0-1.4,0.2-2,0.5c-0.2,0.1-0.3,0.2-0.3,0.4c0,0.1,0,0.2,0.1,0.3 c0.1,0.1,0.3,0.2,0.6,0.1c0.5-0.2,1-0.3,1.5-0.3c0.5,0,0.9,0.1,1.1,0.3c0.2,0.2,0.4,0.4,0.4,0.7c0,0.4-0.2,0.6-0.5,0.8 c-0.3,0.2-0.8,0.3-1.5,0.3h-0.1c-0.1,0-0.3,0.1-0.4,0.2c-0.1,0.1-0.2,0.2-0.2,0.4c0,0.1,0.1,0.3,0.2,0.4 c0.1,0.1,0.2,0.2,0.4,0.2h0.2c1.4,0,2.1,0.4,2.1,1.1C72.4,70.9,72.3,71.2,72,71.3z"/></g></svg>