<svg xmlns="http://www.w3.org/2000/svg"  viewBox="0 0 95 95" width="66px" height="66px"><path fill="#e8f0fd" d="M88.8,50.7c0,4.9-4.3,8.9-9,10.5c-4.7,1.6-9.8,1.5-14.7,2c-4.9,0.4-10.2,1.6-13.6,5.2 c-2.2,2.3-3.4,5.4-5,8.3c-1.6,2.8-3.9,5.6-7.1,6.2c-3.5,0.7-7.1-1.5-9.2-4.4c-2.1-2.9-3-6.4-4-9.8c-1-3.4-2.2-6.9-4.6-9.5 c-2.1-2.2-3.9-3.3-6.6-5c-2.8-1.8-4.4-2.9-6.2-5.4c-1.8-2.5-2.4-6.2-0.4-8.5c2.4-3,5.8-2.6,9.6-2.9c7.3-0.6,12.9-4.9,16.5-11.1 c1.4-2.3,2.3-7.6,3.8-9.8c1.5-2.2,3.7-4.2,6.4-4.5c3.8-0.4,7,2.6,9.6,5.3c5.1,5.2,9.9,14.5,16.5,18 C77.5,38.7,88.8,41.6,88.8,50.7z"/><path fill="#e8f0fd" d="M9.8,19.1c0,0.4-0.4,0.7-0.8,0.7l-1-0.1l-0.1,1c0,0.4-0.4,0.7-0.8,0.7c-0.4,0-0.7-0.4-0.7-0.8l0.1-1l-1-0.1 c-0.4,0-0.7-0.4-0.7-0.8c0-0.4,0.4-0.7,0.8-0.7l1,0.1l0.1-1c0-0.4,0.4-0.7,0.8-0.7c0.4,0,0.7,0.4,0.7,0.8l-0.1,1l1,0.1 C9.5,18.4,9.8,18.7,9.8,19.1z"/><path fill="#e8f0fd" d="M6.1,56.2c0,0.4-0.4,0.7-0.8,0.7l-1-0.1l-0.1,1c0,0.4-0.4,0.7-0.8,0.7c-0.4,0-0.7-0.4-0.7-0.8l0.1-1l-1-0.1 c-0.4,0-0.7-0.4-0.7-0.8c0-0.4,0.4-0.7,0.8-0.7l1,0.1l0.1-1c0-0.4,0.4-0.7,0.8-0.7c0.4,0,0.7,0.4,0.7,0.8l-0.1,1l1,0.1 C5.8,55.5,6.1,55.8,6.1,56.2z"/><path fill="#fff" d="M67.7,29.2V75H23.4V21.8c0-1.7,1.3-3,3-3h30.9v8.4c0,1.1,0.9,2,2,2H67.7z"/><rect width="3.8" height="45.8" x="63.9" y="29.2" fill="#e8f0fd"/><path fill="#cedbf0" d="M67.7,40.8v20.5L65,64c-0.2,0.2-0.5,0.4-0.8,0.6l-0.1,0.1l-0.4,0.1L55,67.5c-0.3,0.1-0.6,0.1-0.9,0.1 c-0.8,0-1.6-0.3-2.1-0.9c-0.8-0.8-1.1-2-0.7-3l2.9-9.1l0.1-0.1c0.1-0.3,0.3-0.6,0.6-0.8L67.7,40.8z" opacity=".3"/><path fill="#fff" d="M37.5,26.3V32c0,0.6-0.4,1-1,1h-5.6c-0.6,0-1-0.4-1-1v-5.6c0-0.6,0.4-1,1-1h5.6 C37.1,25.3,37.5,25.8,37.5,26.3z"/><path fill="#e8f0fd" d="M37.5,26.3V32c0,0.6-0.4,1-1,1H34c0.6,0,1-0.5,1-1v-5.6c0-0.6-0.4-1-1-1h2.5 C37.1,25.3,37.5,25.8,37.5,26.3z"/><path fill="#fff" d="M37.5,38.2v5.6c0,0.6-0.4,1-1,1h-5.6c-0.6,0-1-0.4-1-1v-5.6c0-0.6,0.4-1,1-1h5.6 C37.1,37.2,37.5,37.6,37.5,38.2z"/><path fill="#e8f0fd" d="M37.5,38.2v5.6c0,0.6-0.4,1-1,1H34c0.6,0,1-0.5,1-1v-5.6c0-0.6-0.4-1-1-1h2.5 C37.1,37.2,37.5,37.6,37.5,38.2z"/><path fill="#fff" d="M37.5,50v5.6c0,0.6-0.4,1-1,1h-5.6c-0.6,0-1-0.4-1-1V50c0-0.6,0.4-1,1-1h5.6C37.1,49,37.5,49.5,37.5,50z"/><path fill="#e8f0fd" d="M37.5,50v5.6c0,0.6-0.4,1-1,1H34c0.6,0,1-0.5,1-1V50c0-0.6-0.4-1-1-1h2.5C37.1,49,37.5,49.5,37.5,50z"/><path fill="#fff" d="M37.5,61.9v5.6c0,0.6-0.4,1-1,1h-5.6c-0.6,0-1-0.4-1-1v-5.6c0-0.6,0.4-1,1-1h5.6 C37.1,60.9,37.5,61.3,37.5,61.9z"/><path fill="#e8f0fd" d="M37.5,61.9v5.6c0,0.6-0.4,1-1,1H34c0.6,0,1-0.5,1-1v-5.6c0-0.6-0.4-1-1-1h2.5 C37.1,60.9,37.5,61.3,37.5,61.9z"/><g><path fill="#fff" d="M67.7,29.2h-8.4c-1.1,0-2-0.9-2-2v-8.4L67.7,29.2z"/></g><g><polyline fill="#fff" points="78.2,34.6 56.8,55.9 54.1,64.7 62.8,61.9 84.1,40.6"/><polyline fill="#e8f0fd" points="80,36.4 58.6,57.7 56.7,63.9 54.1,64.7 56.8,55.9 78.2,34.6"/><line x1="62.8" x2="56.8" y1="61.9" y2="55.9" fill="#e8f0fd"/><line x1="58.7" x2="56.9" y1="57.7" y2="55.9" fill="#fff"/></g><g><path fill="#1369f0" d="M85.8,24.6c0,0.4,0.3,0.8,0.7,0.8c0.4,0,0.8-0.3,0.8-0.7l0.1-1l1,0.1c0.4,0,0.8-0.3,0.8-0.7 c0-0.4-0.3-0.8-0.7-0.8l-1-0.1l0.1-1c0-0.4-0.3-0.8-0.7-0.8c-0.4,0-0.8,0.3-0.8,0.7l-0.1,1L85,22c-0.4,0-0.8,0.3-0.8,0.7 c0,0.4,0.3,0.8,0.7,0.8l1,0.1L85.8,24.6z"/><path fill="#1369f0" d="M68.9,79.2l-1-0.1l0.1-1c0-0.4-0.3-0.8-0.7-0.8c-0.4,0-0.8,0.3-0.8,0.7l-0.1,1l-1-0.1 c-0.4,0-0.8,0.3-0.8,0.7c0,0.4,0.3,0.8,0.7,0.8l1,0.1l-0.1,1c0,0.4,0.3,0.8,0.7,0.8c0.4,0,0.8-0.3,0.8-0.7l0.1-1l1,0.1 c0.4,0,0.8-0.3,0.8-0.7C69.6,79.6,69.3,79.3,68.9,79.2z"/><path fill="#1369f0" d="M4.7,74H2.9c-0.6,0-1,0.4-1,1s0.4,1,1,1h1.8c0.6,0,1-0.4,1-1S5.3,74,4.7,74z"/><path fill="#1369f0" d="M92.9,74h-6.6c-0.6,0-1,0.4-1,1s0.4,1,1,1h6.6c0.6,0,1-0.4,1-1S93.5,74,92.9,74z"/><path fill="#1369f0" d="M36.5,24.3h-5.6c-1.1,0-2,0.9-2,2V32c0,1.1,0.9,2,2,2h5.6c1.1,0,2-0.9,2-2v-5.6 C38.5,25.2,37.6,24.3,36.5,24.3z M36.5,32h-5.6v-5.6h5.6V32z"/><path fill="#1369f0" d="M36.5,36.2h-5.6c-1.1,0-2,0.9-2,2v5.6c0,1.1,0.9,2,2,2h5.6c1.1,0,2-0.9,2-2v-5.6 C38.5,37.1,37.6,36.2,36.5,36.2z M36.5,43.8h-5.6v-5.6h5.6V43.8z"/><path fill="#1369f0" d="M36.5,48h-5.6c-1.1,0-2,0.9-2,2v5.6c0,1.1,0.9,2,2,2h5.6c1.1,0,2-0.9,2-2V50C38.5,48.9,37.6,48,36.5,48z M36.5,55.7l-5.6,0V50h5.6V55.7z"/><path fill="#1369f0" d="M36.5,59.9h-5.6c-1.1,0-2,0.9-2,2v5.6c0,1.1,0.9,2,2,2h5.6c1.1,0,2-0.9,2-2v-5.6 C38.5,60.8,37.6,59.9,36.5,59.9z M36.5,67.5h-5.6v-5.6h5.6V67.5z"/><path fill="#1369f0" d="M41.8,42h19.5c0.6,0,1-0.4,1-1s-0.4-1-1-1H41.8c-0.6,0-1,0.4-1,1S41.2,42,41.8,42z"/><path fill="#1369f0" d="M41.8,30.1h11.5c0.6,0,1-0.4,1-1s-0.4-1-1-1H41.8c-0.6,0-1,0.4-1,1S41.2,30.1,41.8,30.1z"/><path fill="#1369f0" d="M80.3,35.3c-1.2-1.2-3.1-1.1-4.3,0c-0.6,0.6-6.9,6.9-7.3,7.3V29.2c0-0.1,0-0.3-0.1-0.4 c0-0.1-0.1-0.1-0.1-0.2c0-0.1-0.1-0.1-0.1-0.2l0,0L58.1,18.2l0,0c0,0-0.1-0.1-0.1-0.1c-0.1,0-0.1-0.1-0.2-0.1 c-0.1-0.1-0.2-0.1-0.4-0.1H26.4c-2.2,0-4,1.8-4,4V74H11.3c-0.6,0-1,0.4-1,1s0.4,1,1,1c14.6,0,50.6,0,65,0c0.6,0,1-0.4,1-1 s-0.4-1-1-1h-7.6V57.4c2.6-2.6,7.4-7.4,14.7-14.7c0.1-0.1,0.3-0.3,0.4-0.4c0.8-1.2,0.7-2.8-0.4-3.8L80.3,35.3z M65.3,28.2h-6 c-0.5,0-1-0.4-1-1v-5.9L65.3,28.2z M66.7,74H24.4V21.8c0-1.1,0.9-2,2-2h29.9v7.4c0,1.7,1.4,3,3,3h7.4v14.4l-7.3,7.3H41.8 c-0.6,0-1,0.4-1,1c0,0.5,0.4,1,1,1h15.7l-1.4,1.4c-0.1,0.1-0.2,0.2-0.2,0.4c0,0,0,0,0,0l-2.5,8.1H41.8c-0.6,0-1,0.4-1,1 s0.4,1,1,1h12.3c0,0,0,0,0,0c0,0,0.1,0,0.1,0c0,0,0.1,0,0.1,0h0c2.4-0.8,9.1-2.9,8.7-2.8c0,0,0.1,0,0.1,0 c0.2-0.1,0.3-0.1,0.4-0.2l3.2-3.2V74z M57.3,57.8l3.7,3.6l-5.4,1.7L57.3,57.8z M68.7,54.6l-2,2l-3.9,3.9l-4.6-4.6l2.1-2.1 l1.7-1.7c5.8-5.8-1.7,1.7,12.3-12.3l4.6,4.6L68.7,54.6z M82,41.3L80.3,43l-4.6-4.6l1.8-1.8c0,0,0.1-0.1,0.1-0.1 c0.4-0.3,0.9-0.2,1.3,0.1l3.2,3.2C82.4,40.3,82.4,40.9,82,41.3z"/><path fill="#1369f0" d="M32.7,42.2c0.1,0.1,0.3,0.2,0.4,0.2h0c0.1,0,0.3-0.1,0.4-0.2l2.2-2.1c0.2-0.2,0.2-0.6,0-0.8 c-0.2-0.2-0.6-0.2-0.8,0L33.1,41l-0.5-0.5c-0.2-0.2-0.6-0.2-0.8,0c-0.2,0.2-0.2,0.6,0,0.8L32.7,42.2z"/><path fill="#1369f0" d="M32.7,30.5c0.1,0.1,0.3,0.2,0.4,0.2h0c0.1,0,0.3-0.1,0.4-0.2l2.2-2.1c0.2-0.2,0.2-0.6,0-0.8 c-0.2-0.2-0.6-0.2-0.8,0l-1.8,1.7l-0.5-0.5c-0.2-0.2-0.6-0.2-0.8,0c-0.2,0.2-0.2,0.6,0,0.8L32.7,30.5z"/></g></svg>